<svg width="435" height="321" viewBox="0 0 435 321" fill="none" xmlns="http://www.w3.org/2000/svg">
<g id="panel">
<path id="gear" d="M160.721 262.984H153.947C153.4 262.985 152.427 262.278 151.966 261.958C151.504 261.639 151.156 261.455 150.951 260.933C150.355 259.403 149.612 258.28 148.83 256.831C148.56 256.329 148.672 255.332 148.737 254.78C148.801 254.227 149.282 254.149 149.657 253.754L154.262 248.626C154.737 248.123 155.169 247.287 155.137 246.575C155.104 245.864 154.596 245.027 154.076 244.524L142.966 234.269C142.446 233.766 141.688 233.243 140.984 233.243C140.281 233.243 139.57 233.766 139.096 234.269L134.491 239.397C134.121 239.79 134.107 240.33 133.57 240.422C133.033 240.515 132.093 239.639 131.588 239.397C130.151 238.702 128.208 238.88 126.704 238.371C126.173 238.191 126.031 237.799 125.689 237.346C125.348 236.892 125.621 235.852 125.596 235.294L125.27 228.116C125.254 227.764 124.403 227.415 124.256 227.09C124.108 226.765 124.466 226.314 124.209 226.065C123.951 225.816 123.569 226.199 123.241 226.065C122.914 225.93 122.622 226.065 122.274 226.065L106.792 226.065C106.444 226.065 106.14 225.93 105.825 226.065C105.509 226.199 105.092 225.816 104.857 226.065C104.622 226.314 105.022 226.765 104.904 227.09C104.785 227.415 104.934 227.764 104.95 228.116L105.277 235.294C105.303 235.852 104.703 236.892 104.403 237.346C104.103 237.799 103.996 238.191 103.482 238.371C102.023 238.88 100.065 238.702 98.6904 239.397C98.2074 239.639 98.3153 240.515 97.7694 240.422C97.2235 240.33 96.1933 239.79 95.7876 239.397L90.7165 234.269C90.1961 233.766 89.4382 233.243 88.7347 233.243C88.0313 233.243 87.3209 233.766 86.8462 234.269L76.6691 244.524C76.1948 245.027 75.7624 245.864 75.7948 246.575C75.8271 247.287 76.3355 248.123 76.8556 248.626L81.9267 253.754C82.3376 254.149 82.8257 254.227 82.9409 254.78C83.0561 255.332 83.2584 256.329 83.0342 256.831C82.384 258.279 81.7398 259.402 81.2855 260.933C81.1266 261.455 80.7972 261.639 80.3646 261.958C79.9319 262.278 79.0236 262.984 78.476 262.984H71.703C71.3548 262.984 71.0509 262.849 70.7354 262.984C70.4198 263.119 70.0493 263.76 69.8144 264.009C69.5796 264.258 69.9794 264.71 69.861 265.035C69.7427 265.36 69.8916 265.708 69.9077 266.06L70.5605 280.418C70.5764 280.77 70.4592 281.118 70.6071 281.443C70.7551 281.769 70.3963 282.22 70.6538 282.469C70.9113 282.718 71.3402 283.36 71.668 283.495C71.9958 283.629 72.2874 283.495 72.6356 283.495H79.4086C79.9662 283.494 80.8769 283.164 81.3438 283.495C81.8107 283.825 82.2063 285.01 82.4047 285.546C82.9936 287.117 83.7425 288.158 84.5263 289.648C84.7923 290.149 84.6844 291.148 84.6196 291.699C84.5548 292.25 84.0702 292.328 83.6986 292.724L79.0939 297.852C78.859 298.101 79.259 298.553 79.1405 298.878C79.022 299.203 78.2036 299.551 78.2196 299.903C78.2356 300.255 79.0857 300.604 79.2338 300.929C79.3818 301.254 79.0229 301.706 79.2804 301.954L90.3901 312.209C90.9106 312.712 91.6685 313.235 92.3719 313.235C93.0754 313.235 93.7857 312.712 94.2605 312.209L98.8652 307.082C99.2416 306.684 99.287 307.171 99.8328 307.082C100.379 306.993 101.259 306.829 101.768 307.082C103.3 307.838 105.089 308.589 106.699 309.133C107.233 309.313 107.369 309.703 107.713 310.158C108.058 310.614 108.701 310.623 108.728 311.184L109.054 318.363C109.069 318.715 108.953 319.063 109.101 319.388C109.248 319.714 108.89 320.164 109.147 320.414C109.405 320.663 109.787 320.279 110.115 320.414C110.443 320.549 110.734 320.414 111.082 320.414H126.564C126.912 320.414 127.216 320.549 127.531 320.414C127.847 320.279 128.264 320.663 128.499 320.414C128.734 320.164 128.334 319.714 128.452 319.388C128.57 319.063 129.39 318.715 129.373 318.363L129.047 311.184C129.022 310.623 128.697 310.614 129 310.158C129.303 309.703 129.404 309.313 129.921 309.133C131.481 308.589 133.203 307.838 134.666 307.082C135.152 306.829 136.047 306.993 136.601 307.082C137.155 307.171 137.156 306.684 137.569 307.082L142.64 312.209C143.16 312.712 143.918 313.235 144.621 313.235C145.325 313.235 146.035 312.712 146.51 312.209L156.687 301.954C156.922 301.706 157.49 301.254 157.608 300.929C157.726 300.604 157.577 300.255 157.561 299.903C157.545 299.551 157.663 299.203 157.515 298.878C157.367 298.553 156.758 298.101 156.501 297.852L151.429 292.724C151.022 292.328 150.53 292.25 150.415 291.699C150.3 291.148 151.069 290.149 151.29 289.648C151.938 288.158 152.592 287.117 153.038 285.546C153.188 285.01 153.476 283.825 153.913 283.495C154.349 283.164 154.322 283.494 154.88 283.495H161.653C162.001 283.495 162.305 283.629 162.621 283.495C162.936 283.36 163.307 282.718 163.542 282.469C163.777 282.22 164.344 281.769 164.463 281.443C164.581 281.118 164.432 280.77 164.416 280.418L163.763 266.06C163.747 265.708 163.865 265.36 163.717 265.035C163.568 264.709 162.96 264.258 162.702 264.009C162.445 263.76 162.016 263.118 161.688 262.984C161.36 262.849 161.069 262.983 160.721 262.984ZM117.704 295.801C113.335 295.801 108.683 294.153 104.939 291.699C101.195 289.244 98.5894 285.525 96.7319 281.443C94.8743 277.362 94.5494 273.47 95.2047 269.137C95.86 264.804 97.55 260.98 100.497 257.856C103.445 254.732 107.583 252.565 111.828 251.703C116.074 250.841 120.34 251.038 124.454 252.729C128.567 254.419 131.908 257.259 134.503 260.933C137.097 264.606 138.732 268.821 138.932 273.239C139.066 276.173 138.357 278.733 137.37 281.443C136.383 284.154 134.816 286.548 132.859 288.622C130.902 290.696 128.948 292.627 126.319 293.75C123.69 294.872 120.605 295.801 117.704 295.801V295.801Z" fill="#293B78"/>
<path id="gear_2" d="M119.959 164.102H111.042C110.319 164.103 109.65 163.583 109.061 163.164C108.471 162.744 108.309 161.973 108.07 161.288C107.374 159.279 106.043 157.564 105.098 155.66C104.771 155.002 104.979 154.511 105.098 153.785C105.217 153.059 105.569 152.427 106.088 151.909L113.024 145.344C113.68 144.683 114.014 143.464 114.014 142.53C114.014 141.596 113.68 140.377 113.024 139.716L99.1531 126.586C98.4959 125.926 97.1097 124.71 96.1808 124.71C95.252 124.71 94.8565 125.926 94.1993 126.586L87.2641 133.151C86.752 133.668 85.9982 133.967 85.2826 134.089C84.567 134.21 83.9537 133.47 83.3011 133.151C81.444 132.239 79.3133 131.944 77.3566 131.275C76.6672 131.039 75.7985 129.995 75.3751 129.399C74.9517 128.804 75.3738 128.256 75.3751 127.524V118.145C75.3753 117.683 74.5602 117.634 74.3844 117.207C74.2085 116.78 74.7095 116.596 74.3844 116.269C74.0593 115.942 73.8184 115.508 73.3936 115.331C72.9688 115.154 71.8719 115.331 71.4121 115.331H51.5971C51.1374 115.331 51.0311 115.154 50.6064 115.331C50.1817 115.508 49.9407 115.942 49.6156 116.269C49.2906 116.596 48.8007 116.78 48.6249 117.207C48.4491 117.634 48.6247 117.683 48.6249 118.145V127.524C48.6261 128.256 48.0575 128.804 47.6342 129.399C47.2108 129.995 46.342 131.039 45.6527 131.275C43.6959 131.944 42.5559 132.239 40.6989 133.151C40.0463 133.47 38.4422 134.21 37.7267 134.089C37.0111 133.967 37.248 133.668 36.7359 133.151L29.8007 126.586C29.1435 125.926 27.7573 124.71 26.8284 124.71C25.8995 124.71 25.5041 125.926 24.8469 126.586L10.9764 139.716C10.32 140.377 9.9857 141.596 9.9857 142.53C9.9857 143.464 10.32 144.683 10.9764 145.344L16.9209 151.909C17.4401 152.427 17.7929 153.059 17.9117 153.785C18.0305 154.511 18.2382 155.002 17.9117 155.66C16.9659 157.563 16.6213 159.278 15.9302 161.288C15.6886 161.973 14.5395 162.744 13.9487 163.164C13.3579 163.583 12.6904 164.102 11.9672 164.102H3.05046C2.59071 164.101 2.48452 163.925 2.05971 164.102C1.6349 164.278 1.39408 164.713 1.06896 165.039C0.743835 165.366 0.254088 165.55 0.0782087 165.977C-0.0976707 166.404 0.0780374 167.391 0.0782087 167.853V187.549C0.0779518 188.011 -0.0976324 188.06 0.0782087 188.487C0.25405 188.914 0.743826 189.098 1.06896 189.425C1.39409 189.752 1.63485 190.186 2.05971 190.363C2.48456 190.539 2.59065 190.363 3.05046 190.363H11.9672C12.7034 190.362 13.3522 190.867 13.9487 191.3C14.5452 191.734 14.7095 192.473 14.9394 193.176C15.6226 195.239 16.9658 196.848 17.9117 198.804C18.2326 199.462 18.0304 200.894 17.9117 201.617C17.793 202.341 17.4353 202.973 16.9209 203.493L10.9764 209.12C10.6511 209.447 10.1618 210.569 9.9857 210.996C9.8096 211.423 9.9857 211.472 9.9857 211.934C9.9857 212.396 9.8096 213.383 9.9857 213.81C10.1618 214.237 10.6511 214.421 10.9764 214.748L24.8469 228.816C25.5041 229.476 25.8995 229.754 26.8284 229.754C27.7573 229.754 29.1435 229.476 29.8007 228.816L35.7452 222.251C36.2659 221.729 37.0004 221.431 37.7267 221.313C38.453 221.196 39.0507 220.981 39.7082 221.313C41.6854 222.306 43.5596 223.413 45.6527 224.127C46.3467 224.363 47.2064 225.404 47.6342 226.003C48.0619 226.601 48.6234 227.142 48.6249 227.878V236.319C48.6241 236.782 48.4494 236.83 48.6249 237.257C48.8004 237.685 49.2906 238.806 49.6156 239.133C49.9407 239.46 50.1814 238.956 50.6064 239.133C51.0314 239.31 51.137 240.071 51.5971 240.071H71.4121C71.8724 240.071 72.9685 239.31 73.3936 239.133C73.8187 238.956 74.0592 239.46 74.3844 239.133C74.7095 238.806 74.2088 237.685 74.3844 237.257C74.56 236.83 75.3759 236.782 75.3751 236.319V227.878C75.3766 227.142 74.9474 226.601 75.3751 226.003C75.8029 225.404 76.6625 224.363 77.3566 224.127C79.4495 223.413 81.3241 222.306 83.3011 221.313C83.9586 220.981 84.5563 221.196 85.2826 221.313C86.0089 221.431 86.7433 221.729 87.2641 222.251L94.1993 228.816C94.8565 229.476 95.252 229.754 96.1808 229.754C97.1097 229.754 98.4959 229.476 99.1531 228.816L113.024 214.748C113.349 214.421 112.847 214.237 113.024 213.81C113.2 213.383 114.014 212.396 114.014 211.934C114.014 211.472 113.2 211.423 113.024 210.996C112.847 210.569 113.349 209.447 113.024 209.12L106.088 203.493C105.574 202.973 105.216 202.341 105.098 201.617C104.979 200.894 105.767 199.462 106.088 198.804C107.035 196.848 107.387 195.24 108.07 193.176C108.3 192.473 108.464 191.734 109.061 191.3C109.657 190.867 111.297 190.362 112.033 190.363H119.959C120.419 190.363 121.516 190.539 121.94 190.363C122.365 190.186 122.606 189.752 122.931 189.425C123.256 189.098 123.746 188.914 123.922 188.487C124.098 188.06 123.922 188.011 123.922 187.549V167.853C123.922 166.92 123.587 165.699 122.931 165.039C122.275 164.38 120.887 164.102 119.959 164.102V164.102ZM61.5046 206.307C55.7344 206.307 50.4506 204.84 45.6527 201.617C40.8547 198.395 36.9628 193.846 34.7544 188.487C32.546 183.127 31.6473 177.294 32.7729 171.605C33.8985 165.915 36.6187 160.7 40.6989 156.598C44.7791 152.496 50.8915 149.289 56.5509 148.157C62.2103 147.026 68.0627 147.813 73.3936 150.033C78.7245 152.253 83.0679 156.464 86.2734 161.288C89.4788 166.112 91.2276 171.431 91.2271 177.232C91.2262 185.01 87.7808 192.366 82.3104 197.866C76.8399 203.365 69.241 206.306 61.5046 206.307V206.307Z" fill="#394EA5"/>
<g id="window">
<rect x="55" y="0.5" width="380" height="285.875" rx="10" fill="#395B9F"/>
<g id="panel_2">
<path d="M55 10.5C55 4.97715 59.4772 0.5 65 0.5H425C430.523 0.5 435 4.97715 435 10.5V40.5H55V10.5Z" fill="#292A2E"/>
<circle id="Ellipse 32" cx="76" cy="20.5" r="6" fill="#5772FF"/>
</g>
</g>
</g>
</svg>
