<svg preserveAspectRatio="none" width="206" height="439" viewBox="0 0 206 439" fill="none" xmlns="http://www.w3.org/2000/svg">
<g id="Group 5">
<g id="sicials">
<g id="window">
<g id="window-bg">
<path id="Vector" d="M8.66882 437.713L197.331 437.713C201.964 437.713 205.719 427.131 205.719 414.079L205.719 24.9222C205.719 11.8694 201.964 1.28796 197.331 1.28796L8.66882 1.28796C4.03577 1.28796 0.279968 11.8694 0.279968 24.9222L0.279968 414.079C0.279968 427.131 4.03577 437.713 8.66882 437.713Z" fill="#395B9F"/>
<path id="Vector_2" d="M0 414.078V24.9217C0.00275401 18.4469 0.916963 12.2395 2.54208 7.66117C4.1672 3.08286 6.37053 0.507491 8.66875 0.5L197.331 0.5C199.629 0.507491 201.833 3.08286 203.458 7.66117C205.083 12.2395 205.997 18.4469 206 24.9217V414.078C205.997 420.553 205.083 426.761 203.458 431.339C201.833 435.917 199.629 438.493 197.331 438.5H8.66875C6.3705 438.493 4.16712 435.917 2.54198 431.339C0.916836 426.761 0.00265924 420.553 0 414.078V414.078ZM8.66875 2.07602C6.51878 2.08298 4.45756 4.49227 2.9373 8.77535C1.41704 13.0584 0.56187 18.8656 0.559401 24.9227V414.078C0.56187 420.135 1.41704 425.943 2.9373 430.226C4.45756 434.509 6.51878 436.918 8.66875 436.925H197.331C199.481 436.918 201.542 434.509 203.063 430.226C204.583 425.943 205.438 420.135 205.441 414.078V24.9217C205.438 18.8645 204.583 13.0572 203.063 8.77405C201.543 4.4909 199.481 2.0817 197.331 2.07501L8.66875 2.07602Z" fill="#292A2E"/>
</g>
<g id="panel">
<path id="Rectangle 246" d="M0.470215 7.77563C0.470215 4.46192 3.15651 1.77563 6.47021 1.77563H200C203.314 1.77563 206 4.46193 206 7.77563V48.81H0.470215V7.77563Z" fill="#292A2E"/>
<ellipse id="Ellipse 1" cx="24.0309" cy="25.2928" rx="7.51938" ry="7.50549" fill="#5772FF"/>
</g>
</g>
</g>
</g>
</svg>
