<svg width="24" height="24" viewBox="0 0 24 24" xmlns="http://www.w3.org/2000/svg">
	<path fill-rule="evenodd" clip-rule="evenodd" d="M23.3643 4.13527C23.7203 5.07831 23.9093 6.076 23.9227 7.08371C23.997 8.35117 23.9973 8.76567 24 11.974L24 12.0186C24 15.2691 23.9827 15.6749 23.9254 16.9549C23.9054 17.9514 23.7175 18.9334 23.3669 19.8647C23.0579 20.66 22.5862 21.3822 21.982 21.9854C21.3778 22.5885 20.6544 23.0594 19.8578 23.368C18.9254 23.7174 17.9402 23.9059 16.9445 23.9255C15.6717 24 15.2546 24 12 24C8.74545 24 8.33896 23.9827 7.05553 23.9255C6.0578 23.8927 5.07299 23.6903 4.14349 23.3268C3.3466 23.0188 2.6228 22.5484 2.01835 21.9454C1.4139 21.3424 0.942085 20.6202 0.633052 19.8248C0.282541 18.8921 0.0946246 17.9102 0.0746335 16.915C0 15.643 0 15.2279 0 11.9787C0 8.72957 0.0173256 8.32376 0.0746335 7.04247C0.093456 6.04871 0.282316 5.06548 0.633052 4.13527C0.941567 3.33969 1.41303 2.61717 2.01728 2.01393C2.62153 1.41068 3.34526 0.940001 4.14216 0.631999C5.07421 0.282694 6.05885 0.0937409 7.0542 0.0731789C8.32697 0 8.74411 0 11.9987 0C15.2532 0 15.6597 0.0159664 16.9418 0.0731789C17.9376 0.0935908 18.9227 0.282546 19.8552 0.631999C20.652 0.940216 21.3756 1.41097 21.9798 2.01419C22.584 2.61741 23.0556 3.33982 23.3643 4.13527ZM5.82941 11.9721C5.82941 15.3702 8.58685 18.1231 11.9907 18.1231C13.6247 18.1231 15.1919 17.475 16.3473 16.3215C17.5028 15.1679 18.1519 13.6034 18.1519 11.9721C18.1519 10.3407 17.5028 8.77618 16.3473 7.62264C15.1919 6.4691 13.6247 5.82104 11.9907 5.82104C8.58685 5.82104 5.82941 8.5739 5.82941 11.9721ZM17.8472 6.91901C18.0215 6.99103 18.2084 7.02801 18.3972 7.02783C19.1901 7.02783 19.8325 6.38652 19.8325 5.59353C19.8325 5.40526 19.7954 5.21883 19.7232 5.0449C19.651 4.87096 19.5453 4.71291 19.4119 4.57979C19.2786 4.44666 19.1203 4.34106 18.946 4.26901C18.7718 4.19697 18.5851 4.15989 18.3965 4.15989C18.2079 4.15989 18.0212 4.19697 17.8469 4.26901C17.6727 4.34106 17.5144 4.44666 17.3811 4.57979C17.2477 4.71291 17.1419 4.87096 17.0698 5.0449C16.9976 5.21883 16.9605 5.40526 16.9605 5.59353C16.9603 5.78193 16.9973 5.96852 17.0695 6.14262C17.1416 6.31671 17.2474 6.4749 17.3809 6.60812C17.5143 6.74135 17.6728 6.84699 17.8472 6.91901ZM15.993 11.9721C15.993 14.1787 14.2011 15.9676 11.9907 15.9676C9.78038 15.9676 7.98853 14.1787 7.98853 11.9721C7.98853 9.76536 9.78038 7.97649 11.9907 7.97649C14.2011 7.97649 15.993 9.76536 15.993 11.9721Z"/>
</svg>
