<svg width="538" height="338" viewBox="0 0 538 338" fill="none" xmlns="http://www.w3.org/2000/svg">
	<g id="illustration">
		<path id="gear" d="M160.721 260.763H153.947C153.4 260.764 152.427 260.061 151.966 259.744C151.504 259.426 151.156 259.244 150.951 258.725C150.355 257.205 149.612 256.09 148.83 254.65C148.56 254.152 148.672 253.161 148.737 252.612C148.801 252.063 149.282 251.986 149.657 251.593L154.262 246.499C154.737 245.999 155.169 245.168 155.137 244.462C155.104 243.755 154.596 242.924 154.076 242.424L142.966 232.236C142.446 231.737 141.688 231.217 140.984 231.217C140.281 231.217 139.57 231.737 139.096 232.236L134.491 237.33C134.121 237.721 134.107 238.257 133.57 238.349C133.033 238.441 132.093 237.571 131.588 237.33C130.151 236.64 128.208 236.817 126.704 236.311C126.173 236.133 126.031 235.743 125.689 235.292C125.348 234.842 125.621 233.809 125.596 233.255L125.27 226.123C125.254 225.773 124.403 225.428 124.256 225.104C124.108 224.781 124.466 224.333 124.209 224.086C123.951 223.838 123.569 224.219 123.241 224.086C122.914 223.952 122.622 224.085 122.274 224.086H106.792C106.444 224.085 106.14 223.952 105.825 224.086C105.509 224.219 105.092 223.838 104.857 224.086C104.622 224.333 105.022 224.781 104.904 225.104C104.785 225.428 104.934 225.773 104.95 226.123L105.277 233.255C105.303 233.809 104.703 234.842 104.403 235.292C104.103 235.743 103.996 236.133 103.482 236.311C102.023 236.817 100.065 236.64 98.6904 237.33C98.2074 237.571 98.3153 238.441 97.7694 238.349C97.2235 238.257 96.1933 237.721 95.7876 237.33L90.7165 232.236C90.1961 231.737 89.4382 231.217 88.7347 231.217C88.0313 231.217 87.3209 231.737 86.8462 232.236L76.6691 242.424C76.1948 242.924 75.7624 243.755 75.7948 244.462C75.8271 245.168 76.3355 245.999 76.8556 246.499L81.9267 251.593C82.3376 251.986 82.8257 252.063 82.9409 252.612C83.0561 253.161 83.2584 254.152 83.0342 254.65C82.384 256.089 81.7398 257.205 81.2855 258.725C81.1266 259.244 80.7972 259.426 80.3646 259.744C79.9319 260.061 79.0236 260.763 78.476 260.763H71.703C71.3548 260.763 71.0509 260.629 70.7354 260.763C70.4198 260.896 70.0493 261.534 69.8144 261.781C69.5796 262.029 69.9794 262.477 69.861 262.8C69.7427 263.123 69.8916 263.469 69.9077 263.819L70.5605 278.082C70.5764 278.432 70.4592 278.778 70.6071 279.101C70.7551 279.424 70.3963 279.873 70.6538 280.12C70.9113 280.367 71.3402 281.005 71.668 281.139C71.9958 281.273 72.2874 281.139 72.6356 281.139H79.4086C79.9662 281.138 80.8769 280.811 81.3438 281.139C81.8107 281.467 82.2063 282.644 82.4047 283.176C82.9936 284.737 83.7425 285.772 84.5263 287.252C84.7923 287.75 84.6844 288.742 84.6196 289.289C84.5548 289.837 84.0702 289.915 83.6986 290.308L79.0939 295.402C78.859 295.649 79.259 296.098 79.1405 296.421C79.022 296.744 78.2036 297.09 78.2196 297.44C78.2356 297.789 79.0857 298.136 79.2338 298.459C79.3818 298.781 79.0229 299.23 79.2804 299.477L90.3901 309.666C90.9106 310.165 91.6685 310.684 92.3719 310.684C93.0754 310.684 93.7857 310.165 94.2605 309.666L98.8652 304.571C99.2416 304.177 99.287 304.66 99.8328 304.571C100.379 304.483 101.259 304.32 101.768 304.571C103.3 305.323 105.089 306.069 106.699 306.609C107.233 306.788 107.369 307.175 107.713 307.628C108.058 308.08 108.701 308.089 108.728 308.647L109.054 315.778C109.069 316.128 108.953 316.474 109.101 316.797C109.248 317.121 108.89 317.568 109.147 317.816C109.405 318.064 109.787 317.682 110.115 317.816C110.443 317.95 110.734 317.816 111.082 317.816H126.564C126.912 317.816 127.216 317.95 127.531 317.816C127.847 317.682 128.264 318.064 128.499 317.816C128.734 317.568 128.334 317.121 128.452 316.797C128.57 316.474 129.39 316.128 129.373 315.778L129.047 308.647C129.022 308.089 128.697 308.08 129 307.628C129.303 307.175 129.404 306.788 129.921 306.609C131.481 306.069 133.203 305.323 134.666 304.571C135.152 304.32 136.047 304.483 136.601 304.571C137.155 304.66 137.156 304.177 137.569 304.571L142.64 309.666C143.16 310.165 143.918 310.684 144.621 310.684C145.325 310.684 146.035 310.165 146.51 309.666L156.687 299.477C156.922 299.23 157.49 298.781 157.608 298.459C157.726 298.136 157.577 297.789 157.561 297.44C157.545 297.09 157.663 296.744 157.515 296.421C157.367 296.098 156.758 295.649 156.501 295.402L151.429 290.308C151.022 289.915 150.53 289.837 150.415 289.289C150.3 288.742 151.069 287.75 151.29 287.252C151.938 285.772 152.592 284.737 153.038 283.176C153.188 282.644 153.476 281.467 153.913 281.139C154.349 280.811 154.322 281.138 154.88 281.139H161.653C162.001 281.139 162.305 281.273 162.621 281.139C162.936 281.005 163.307 280.367 163.542 280.12C163.777 279.873 164.344 279.424 164.463 279.101C164.581 278.778 164.432 278.432 164.416 278.082L163.763 263.819C163.747 263.469 163.865 263.124 163.717 262.8C163.568 262.477 162.96 262.029 162.702 261.781C162.445 261.534 162.016 260.896 161.688 260.763C161.36 260.629 161.069 260.762 160.721 260.763ZM117.704 293.365C113.335 293.365 108.683 291.728 104.939 289.289C101.195 286.851 98.5894 283.156 96.7319 279.101C94.8743 275.046 94.5494 271.18 95.2047 266.876C95.86 262.571 97.55 258.772 100.497 255.669C103.445 252.565 107.583 250.412 111.828 249.556C116.074 248.7 120.34 248.895 124.454 250.575C128.567 252.254 131.908 255.076 134.503 258.725C137.097 262.374 138.732 266.562 138.932 270.951C139.066 273.865 138.357 276.409 137.37 279.101C136.383 281.794 134.816 284.172 132.859 286.233C130.902 288.294 128.948 290.212 126.319 291.327C123.69 292.442 120.605 293.365 117.704 293.365V293.365Z" fill="#293B78" />
		<path id="gear_2" d="M119.959 162.529H111.042C110.319 162.53 109.65 162.014 109.061 161.597C108.471 161.18 108.309 160.415 108.07 159.734C107.374 157.738 106.043 156.034 105.098 154.143C104.771 153.489 104.979 153.001 105.098 152.28C105.217 151.558 105.569 150.931 106.088 150.416L113.024 143.894C113.68 143.238 114.014 142.026 114.014 141.099C114.014 140.171 113.68 138.96 113.024 138.303L99.1531 125.259C98.4959 124.603 97.1097 123.396 96.1808 123.396C95.252 123.396 94.8565 124.603 94.1993 125.259L87.2641 131.781C86.752 132.295 85.9982 132.592 85.2826 132.713C84.567 132.834 83.9537 132.098 83.3011 131.781C81.444 130.876 79.3133 130.582 77.3566 129.918C76.6672 129.683 75.7985 128.646 75.3751 128.054C74.9517 127.462 75.3738 126.918 75.3751 126.191V116.873C75.3753 116.414 74.5602 116.366 74.3844 115.942C74.2085 115.517 74.7095 115.335 74.3844 115.01C74.0593 114.685 73.8184 114.254 73.3936 114.078C72.9688 113.902 71.8719 114.078 71.4121 114.078H51.5971C51.1374 114.078 51.0311 113.902 50.6064 114.078C50.1817 114.254 49.9407 114.685 49.6156 115.01C49.2906 115.335 48.8007 115.517 48.6249 115.942C48.4491 116.366 48.6247 116.414 48.6249 116.873V126.191C48.6261 126.918 48.0575 127.462 47.6342 128.054C47.2108 128.646 46.342 129.683 45.6527 129.918C43.6959 130.582 42.5559 130.875 40.6989 131.781C40.0463 132.098 38.4422 132.834 37.7267 132.713C37.0111 132.592 37.248 132.295 36.7359 131.781L29.8007 125.259C29.1435 124.603 27.7573 123.396 26.8284 123.396C25.8995 123.396 25.5041 124.603 24.8469 125.259L10.9764 138.303C10.32 138.96 9.9857 140.171 9.9857 141.099C9.9857 142.026 10.32 143.238 10.9764 143.894L16.9209 150.416C17.4401 150.931 17.7929 151.558 17.9117 152.28C18.0305 153.001 18.2382 153.489 17.9117 154.143C16.9659 156.033 16.6213 157.737 15.9302 159.734C15.6886 160.414 14.5395 161.18 13.9487 161.597C13.3579 162.014 12.6904 162.529 11.9672 162.529H3.05046C2.59071 162.529 2.48452 162.353 2.05971 162.529C1.6349 162.704 1.39408 163.136 1.06896 163.461C0.743835 163.785 0.254088 163.968 0.0782087 164.392C-0.0976707 164.817 0.0780374 165.797 0.0782087 166.256V185.822C0.0779518 186.282 -0.0976324 186.33 0.0782087 186.754C0.25405 187.178 0.743826 187.361 1.06896 187.686C1.39409 188.011 1.63485 188.442 2.05971 188.618C2.48456 188.793 2.59065 188.618 3.05046 188.618H11.9672C12.7034 188.617 13.3522 189.118 13.9487 189.549C14.5452 189.98 14.7095 190.714 14.9394 191.413C15.6226 193.463 16.9658 195.061 17.9117 197.003C18.2326 197.658 18.0304 199.08 17.9117 199.799C17.793 200.517 17.4353 201.145 16.9209 201.662L10.9764 207.252C10.6511 207.577 10.1618 208.692 9.9857 209.116C9.8096 209.54 9.9857 209.589 9.9857 210.048C9.9857 210.507 9.8096 211.487 9.9857 211.911C10.1618 212.335 10.6511 212.518 10.9764 212.843L24.8469 226.819C25.5041 227.475 25.8995 227.751 26.8284 227.751C27.7573 227.751 29.1435 227.475 29.8007 226.819L35.7452 220.297C36.2659 219.778 37.0004 219.482 37.7267 219.365C38.453 219.248 39.0507 219.036 39.7082 219.365C41.6854 220.352 43.5596 221.451 45.6527 222.16C46.3467 222.395 47.2064 223.43 47.6342 224.024C48.0619 224.618 48.6234 225.156 48.6249 225.887V234.273C48.6241 234.733 48.4494 234.78 48.6249 235.205C48.8004 235.63 49.2906 236.743 49.6156 237.068C49.9407 237.394 50.1814 236.892 50.6064 237.068C51.0314 237.244 51.137 238 51.5971 238H71.4121C71.8724 238 72.9685 237.244 73.3936 237.068C73.8187 236.892 74.0592 237.394 74.3844 237.068C74.7095 236.743 74.2088 235.63 74.3844 235.205C74.56 234.78 75.3759 234.733 75.3751 234.273V225.887C75.3766 225.156 74.9474 224.618 75.3751 224.024C75.8029 223.43 76.6625 222.395 77.3566 222.16C79.4495 221.451 81.3241 220.352 83.3011 219.365C83.9586 219.036 84.5563 219.248 85.2826 219.365C86.0089 219.482 86.7433 219.778 87.2641 220.297L94.1993 226.819C94.8565 227.475 95.252 227.751 96.1808 227.751C97.1097 227.751 98.4959 227.475 99.1531 226.819L113.024 212.843C113.349 212.518 112.847 212.335 113.024 211.911C113.2 211.487 114.014 210.507 114.014 210.048C114.014 209.589 113.2 209.54 113.024 209.116C112.847 208.692 113.349 207.577 113.024 207.252L106.088 201.662C105.574 201.145 105.216 200.517 105.098 199.799C104.979 199.08 105.767 197.658 106.088 197.003C107.035 195.061 107.387 193.463 108.07 191.413C108.3 190.714 108.464 189.98 109.061 189.549C109.657 189.118 111.297 188.617 112.033 188.618H119.959C120.419 188.618 121.516 188.793 121.94 188.618C122.365 188.442 122.606 188.011 122.931 187.686C123.256 187.361 123.746 187.178 123.922 186.754C124.098 186.33 123.922 186.282 123.922 185.822V166.256C123.922 165.329 123.587 164.116 122.931 163.461C122.275 162.805 120.887 162.529 119.959 162.529V162.529ZM61.5046 204.457C55.7344 204.458 50.4506 203 45.6527 199.799C40.8547 196.597 36.9628 192.078 34.7544 186.754C32.546 181.43 31.6473 175.635 32.7729 169.983C33.8985 164.33 36.6187 159.15 40.6989 155.075C44.7791 151 50.8915 147.813 56.5509 146.689C62.2103 145.565 68.0627 146.347 73.3936 148.553C78.7245 150.758 83.0679 154.941 86.2734 159.734C89.4788 164.526 91.2276 169.81 91.2271 175.573C91.2262 183.3 87.7808 190.608 82.3104 196.072C76.8399 201.535 69.241 204.456 61.5046 204.457V204.457Z" fill="#5772FF" fill-opacity="0.5" />
		<g id="window">
			<rect x="55" width="380" height="284" rx="10" fill="#395B9F" />
			<g id="panel">
				<path d="M55 10C55 4.47715 59.4772 0 65 0H425C430.523 0 435 4.47715 435 10V40H55V10Z" fill="#292A2E" />
				<circle id="Ellipse 32" cx="76" cy="20" r="6" fill="#5772FF" />
			</g>
			<g id="socials-list">
				<g id="item">
					<a href="#" class="contacts__socials-link">
						<rect x="90" y="120.5" width="73" height="73" rx="36.5" fill="#395B9F" />
						<g id="icon-github" class="contacts__socials-icon">
							<path id="Vector" fill-rule="evenodd" clip-rule="evenodd" d="M126.499 130C111.588 130 99.5 142.395 99.5 157.685C99.5 169.916 107.234 180.293 117.965 183.951C119.316 184.208 119.807 183.355 119.807 182.619C119.807 181.963 119.784 180.223 119.772 177.911C112.261 179.585 110.677 174.199 110.677 174.199C109.448 171.001 107.678 170.151 107.678 170.151C105.227 168.434 107.864 168.468 107.864 168.468C110.574 168.664 112 171.32 112 171.32C114.408 175.55 118.32 174.326 119.858 173.622C120.102 171.829 120.802 170.612 121.572 169.918C115.577 169.22 109.275 166.845 109.275 156.237C109.275 153.214 110.326 150.742 112.053 148.806C111.777 148.109 110.848 145.295 112.318 141.482C112.318 141.482 114.585 140.738 119.744 144.322C121.896 143.705 124.206 143.397 126.503 143.388C128.796 143.397 131.107 143.705 133.262 144.322C138.417 140.738 140.681 141.482 140.681 141.482C142.154 145.295 141.226 148.109 140.949 148.806C142.68 150.742 143.724 153.214 143.724 156.237C143.724 166.87 137.412 169.212 131.397 169.895C132.365 170.75 133.229 172.443 133.229 175.026C133.229 178.725 133.197 181.71 133.197 182.618C133.197 183.36 133.682 184.222 135.053 183.948C145.771 180.281 153.5 169.913 153.5 157.685C153.5 142.395 141.412 130 126.499 130V130Z" fill="white" />
						</g>
						<rect x="90" y="120.5" width="73" height="73" rx="36.5" stroke="#5772FF" />
					</a>
				</g>
				<g id="item_2">
					<a href="#" class="contacts__socials-link">
						<rect x="169" y="120.5" width="73" height="73" rx="36.5" fill="#395B9F" />
						<g id="icon-instagram" class="contacts__socials-icon">
							<path id="Union" fill-rule="evenodd" clip-rule="evenodd" d="M231.07 139.304C231.871 141.426 232.296 143.671 232.326 145.938C232.493 148.79 232.494 149.723 232.5 156.942L232.5 157.042C232.5 164.355 232.461 165.269 232.332 168.148C232.287 170.391 231.864 172.6 231.076 174.696C230.38 176.485 229.319 178.11 227.96 179.467C226.6 180.824 224.972 181.884 223.18 182.578C221.082 183.364 218.866 183.788 216.625 183.832C213.761 184 212.823 184 205.5 184C198.177 184 197.263 183.961 194.375 183.832C192.13 183.759 189.914 183.303 187.823 182.485C186.03 181.792 184.401 180.734 183.041 179.377C181.681 178.02 180.62 176.395 179.924 174.606C179.136 172.507 178.713 170.298 178.668 168.059C178.5 165.197 178.5 164.263 178.5 156.952C178.5 149.642 178.539 148.728 178.668 145.846C178.71 143.61 179.135 141.397 179.924 139.304C180.619 137.514 181.679 135.889 183.039 134.531C184.398 133.174 186.027 132.115 187.82 131.422C189.917 130.636 192.132 130.211 194.372 130.165C197.236 130 198.174 130 205.497 130C212.82 130 213.734 130.036 216.619 130.165C218.86 130.211 221.076 130.636 223.174 131.422C224.967 132.115 226.595 133.175 227.955 134.532C229.314 135.889 230.375 137.515 231.07 139.304ZM191.616 156.937C191.616 164.583 197.82 170.777 205.479 170.777C209.156 170.777 212.682 169.319 215.282 166.723C217.881 164.128 219.342 160.608 219.342 156.937C219.342 153.267 217.881 149.746 215.282 147.151C212.682 144.555 209.156 143.097 205.479 143.097C197.82 143.097 191.616 149.291 191.616 156.937ZM218.656 145.568C219.048 145.73 219.469 145.813 219.894 145.813C221.678 145.813 223.123 144.37 223.123 142.585C223.123 142.162 223.04 141.742 222.877 141.351C222.715 140.96 222.477 140.604 222.177 140.305C221.877 140.005 221.521 139.767 221.129 139.605C220.737 139.443 220.316 139.36 219.892 139.36C219.468 139.36 219.048 139.443 218.656 139.605C218.264 139.767 217.907 140.005 217.607 140.305C217.307 140.604 217.069 140.96 216.907 141.351C216.745 141.742 216.661 142.162 216.661 142.585C216.661 143.009 216.744 143.429 216.906 143.821C217.069 144.213 217.307 144.569 217.607 144.868C217.907 145.168 218.264 145.406 218.656 145.568ZM214.484 156.937C214.484 161.902 210.453 165.927 205.479 165.927C200.506 165.927 196.474 161.902 196.474 156.937C196.474 151.972 200.506 147.947 205.479 147.947C210.453 147.947 214.484 151.972 214.484 156.937Z" fill="white" />
						</g>
						<rect x="169" y="120.5" width="73" height="73" rx="36.5" stroke="#5772FF" />
					</a>
				</g>
				<g id="item_3">
					<a href="#" class="contacts__socials-link">
						<rect x="248" y="120.5" width="73" height="73" rx="36.5" fill="#395B9F" />
						<g id="icon-telegram" class="contacts__socials-icon" clip-path="url(#clip0_343_553)">
							<path id="Vector_2" d="M311.5 157C311.5 164.161 308.655 171.028 303.592 176.092C298.528 181.155 291.661 184 284.5 184C277.339 184 270.472 181.155 265.408 176.092C260.345 171.028 257.5 164.161 257.5 157C257.5 149.839 260.345 142.972 265.408 137.908C270.472 132.845 277.339 130 284.5 130C291.661 130 298.528 132.845 303.592 137.908C308.655 142.972 311.5 149.839 311.5 157V157ZM285.469 149.933C282.843 151.026 277.591 153.287 269.721 156.716C268.445 157.223 267.774 157.722 267.713 158.208C267.612 159.028 268.641 159.352 270.042 159.795L270.632 159.98C272.009 160.429 273.865 160.952 274.827 160.972C275.705 160.993 276.68 160.635 277.757 159.892C285.111 154.928 288.908 152.42 289.144 152.366C289.313 152.326 289.549 152.278 289.704 152.42C289.863 152.559 289.846 152.825 289.829 152.896C289.728 153.331 285.688 157.084 283.599 159.028C282.947 159.636 282.485 160.065 282.391 160.162C282.183 160.375 281.971 160.584 281.756 160.79C280.474 162.025 279.515 162.95 281.807 164.462C282.91 165.191 283.795 165.788 284.676 166.389C285.634 167.044 286.592 167.695 287.834 168.512C288.148 168.715 288.452 168.934 288.746 169.143C289.863 169.94 290.872 170.655 292.111 170.541C292.833 170.473 293.579 169.798 293.957 167.773C294.851 162.991 296.61 152.633 297.015 148.363C297.039 148.008 297.024 147.652 296.971 147.3C296.939 147.016 296.802 146.755 296.586 146.568C296.279 146.356 295.913 146.246 295.54 146.254C294.527 146.271 292.964 146.814 285.469 149.933V149.933Z" fill="white" />
						</g>
						<rect x="248" y="120.5" width="73" height="73" rx="36.5" stroke="#5772FF" />
					</a>
				</g>
				<g id="item_4">
					<a href="#" class="contacts__socials-link">
						<rect x="327" y="120.5" width="73" height="73" rx="36.5" fill="#395B9F" />
						<g id="icon-mail" class="contacts__socials-icon">
							<path id="Vector_3" d="M388.5 144.973V172.385C388.5 174.935 387.677 177.38 386.212 179.184C384.747 180.987 382.76 182 380.688 182H346.312C344.24 182 342.253 180.987 340.788 179.184C339.323 177.38 338.5 174.935 338.5 172.385V144.973L362.706 162.504C362.947 162.678 363.221 162.77 363.5 162.77C363.779 162.77 364.053 162.678 364.294 162.504L388.5 144.973ZM380.688 132C382.61 132 384.465 132.872 385.898 134.449C387.33 136.026 388.24 138.199 388.453 140.55L363.5 158.615L338.547 140.55C338.76 138.199 339.67 136.026 341.102 134.449C342.535 132.872 344.39 132 346.312 132H380.688Z" fill="white" />
						</g>
						<rect x="327" y="120.5" width="73" height="73" rx="36.5" stroke="#5772FF" />
					</a>
				</g>
			</g>
		</g>
		<g id="robot-v2.0">
			<g id="main">
				<g id="body">
					<path d="M521.074 252.208C520.699 293.7 479.235 318.942 437.346 318.622C395.855 318.306 355.339 293.306 354.926 252.208C354.509 210.691 395.759 184.657 437.673 184.497C479.785 184.336 521.451 210.495 521.074 252.208Z" fill="#5772FF" />
					<path d="M438.588 187.693C438.826 189.184 432.326 191.397 424.07 192.635C415.813 193.873 408.926 193.668 408.688 192.177C408.682 192.14 408.68 192.102 408.683 192.064C408.775 190.576 415.156 188.442 423.207 187.235C430.636 186.121 436.956 186.175 438.322 187.284C438.474 187.407 438.564 187.544 438.588 187.693Z" fill="#AEBBFF" />
					<path d="M408.683 192.064C408.775 190.576 415.156 188.442 423.207 187.235C430.636 186.121 436.956 186.175 438.322 187.284C448.943 187.327 459.572 189.209 469.655 192.697L467.615 189.747C459.398 187.118 450.717 185.529 441.948 185.097C430.406 184.53 418.796 185.957 408 189.204V189.5L405.545 193.123C406.578 192.755 407.624 192.402 408.683 192.064Z" fill="#AEBBFF" />
					<path d="M374.41 283C363.283 271.867 358.186 251.385 358.004 233.224C358.002 233.078 358 232.935 357.997 232.796C355.944 238.805 354.857 245.291 354.926 252.208C355.106 270.062 362.854 284.878 374.962 295.952C380.082 300.574 385.877 304.538 392.14 307.795C387.919 301.988 383.7 295.331 380.453 287.693C378.142 286.262 376.108 284.698 374.41 283Z" fill="#3749A4" />
					<path fill-rule="evenodd" clip-rule="evenodd" d="M484.63 306.002C484.089 306.77 483.547 307.524 483.005 308.263C504.969 297.222 520.843 277.808 521.074 252.208C521.085 251.041 521.062 249.887 521.008 248.745C521.045 247.902 521.067 247.053 521.074 246.198C521.228 227.999 511.337 216.007 500.5 204C501.433 205.597 502.389 207.14 503.333 208.662L503.333 208.664C503.886 209.556 504.434 210.44 504.971 211.325C495.244 200.829 481.885 193.099 467.076 188.701C468.719 191.788 471.682 195.478 475.197 199.854C485.636 212.85 500.936 231.899 500.936 259.201C500.936 263.09 500.626 266.806 500.063 270.357C486.113 289.231 461.531 299.847 434.273 299.639C414.649 299.489 393.286 295.639 380.453 287.693C376.93 279.408 374.551 269.967 374.551 259.201C374.551 231.899 389.852 212.85 400.29 199.854C403.729 195.572 406.641 191.947 408.303 188.901C384.966 195.994 365.326 211.353 357.997 232.796C357.94 230.042 357.613 228.681 357.366 227.65C356.99 226.084 356.796 225.276 358.004 221.5C352.405 231.264 352.244 233.543 352.362 246.198C352.555 266.803 361.381 283.692 374.962 295.952C380.009 300.567 385.813 304.533 392.142 307.797L392.14 307.795C405.347 314.663 420.634 318.39 436.054 318.516C453.221 318.656 470.318 314.263 484.63 306.002ZM374.962 295.952C362.854 284.878 355.106 270.062 354.926 252.208C354.857 245.291 355.944 238.805 357.997 232.796C358 232.935 358.002 233.078 358.004 233.224C358.186 251.385 363.283 271.867 374.41 283C376.108 284.698 378.142 286.262 380.453 287.693C383.7 295.331 387.919 301.988 392.14 307.795C385.877 304.538 380.082 300.574 374.962 295.952ZM484.63 306.002C491.309 296.516 497.735 284.859 500.04 270.5L500.063 270.357C507.551 260.226 511.975 247.717 512.106 233.224C512.188 224.208 508.884 217.774 504.971 211.325C514.318 221.411 520.31 234.052 521.008 248.745C519.884 274.447 505.108 294.183 484.63 306.002Z" fill="#3749A4" />
					<path d="M500.04 270.5C497.735 284.859 491.309 296.516 484.63 306.002C505.108 294.183 519.884 274.447 521.008 248.745C520.31 234.052 514.318 221.411 504.971 211.325C508.884 217.774 512.188 224.208 512.106 233.224C511.975 247.717 507.551 260.226 500.063 270.357L500.04 270.5Z" fill="#3749A4" />
					<path fill-rule="evenodd" clip-rule="evenodd" d="M494.707 203.449C479.265 191.86 458.538 185.417 437.677 185.497C416.912 185.577 396.337 192.068 381.029 203.641C365.735 215.203 355.721 231.81 355.926 252.198C356.129 272.383 366.169 288.633 381.329 299.906C396.505 311.191 416.793 317.466 437.354 317.622C458.108 317.781 478.731 311.603 494.187 300.288C509.628 288.983 519.89 272.576 520.074 252.199C520.26 231.715 510.133 215.028 494.707 203.449ZM495.907 201.85C511.748 213.739 522.266 230.988 522.074 252.217C521.884 273.332 511.226 290.292 495.369 301.901C479.527 313.499 458.473 319.783 437.339 319.622C416.408 319.463 395.693 313.08 380.135 301.511C364.561 289.93 354.136 273.13 353.926 252.218C353.714 231.088 364.116 213.92 379.822 202.046C395.513 190.184 416.52 183.578 437.669 183.497C458.92 183.416 480.082 189.972 495.907 201.85Z" fill="#061568" />
				</g>
				<g id="screen">
					<path d="M497.998 251.495C497.726 279.157 467.651 295.984 437.269 295.771C407.176 295.561 377.789 278.894 377.489 251.495C377.187 223.817 407.106 206.462 437.507 206.355C468.051 206.247 498.272 223.687 497.998 251.495Z" fill="url(#paint0_radial_343_553)" />
					<path d="M497.998 251.495C497.726 279.157 467.651 295.984 437.269 295.771C407.176 295.561 377.789 278.894 377.489 251.495C377.187 223.817 407.106 206.462 437.507 206.355C468.051 206.247 498.272 223.687 497.998 251.495Z" fill="url(#paint1_radial_343_553)" />
					<path d="M425.692 268.954C425.692 268.402 426.14 267.954 426.692 267.954H427.256C427.809 267.954 428.256 268.402 428.256 268.954V269.438C428.256 269.99 427.809 270.438 427.256 270.438H426.692C426.14 270.438 425.692 269.99 425.692 269.438V268.954Z" fill="#48CCA8" />
					<path d="M447.231 268.954C447.231 268.402 447.678 267.954 448.231 267.954H448.795C449.347 267.954 449.795 268.402 449.795 268.954V269.438C449.795 269.99 449.347 270.438 448.795 270.438H448.231C447.678 270.438 447.231 269.99 447.231 269.438V268.954Z" fill="#48CCA8" />
					<path d="M444.154 271.935C444.154 271.382 444.602 270.935 445.154 270.935H445.718C446.27 270.935 446.718 271.382 446.718 271.935V272.419C446.718 272.971 446.27 273.419 445.718 273.419H445.154C444.602 273.419 444.154 272.971 444.154 272.419V271.935Z" fill="#48CCA8" />
					<path d="M441.077 271.935C441.077 271.382 441.525 270.935 442.077 270.935H442.641C443.193 270.935 443.641 271.382 443.641 271.935V272.419C443.641 272.971 443.193 273.419 442.641 273.419H442.077C441.525 273.419 441.077 272.971 441.077 272.419V271.935Z" fill="#48CCA8" />
					<path d="M438 271.935C438 271.382 438.448 270.935 439 270.935H439.564C440.116 270.935 440.564 271.382 440.564 271.935V272.419C440.564 272.971 440.116 273.419 439.564 273.419H439C438.448 273.419 438 272.971 438 272.419V271.935Z" fill="#48CCA8" />
					<path d="M434.923 271.935C434.923 271.382 435.371 270.935 435.923 270.935H436.487C437.039 270.935 437.487 271.382 437.487 271.935V272.419C437.487 272.971 437.039 273.419 436.487 273.419H435.923C435.371 273.419 434.923 272.971 434.923 272.419V271.935Z" fill="#48CCA8" />
					<path d="M431.846 271.935C431.846 271.382 432.294 270.935 432.846 270.935H433.41C433.963 270.935 434.41 271.382 434.41 271.935V272.419C434.41 272.971 433.963 273.419 433.41 273.419H432.846C432.294 273.419 431.846 272.971 431.846 272.419V271.935Z" fill="#48CCA8" />
					<path d="M428.769 271.935C428.769 271.382 429.217 270.935 429.769 270.935H430.333C430.886 270.935 431.333 271.382 431.333 271.935V272.419C431.333 272.971 430.886 273.419 430.333 273.419H429.769C429.217 273.419 428.769 272.971 428.769 272.419V271.935Z" fill="#48CCA8" />
					<path d="M410.82 233.683C410.82 233.131 411.268 232.683 411.82 232.683H412.385C412.937 232.683 413.385 233.131 413.385 233.683V234.167C413.385 234.719 412.937 235.167 412.385 235.167H411.82C411.268 235.167 410.82 234.719 410.82 234.167V233.683Z" fill="#48CCA8" />
					<path d="M410.82 236.664C410.82 236.111 411.268 235.664 411.82 235.664H412.385C412.937 235.664 413.385 236.111 413.385 236.664V237.148C413.385 237.7 412.937 238.148 412.385 238.148H411.82C411.268 238.148 410.82 237.7 410.82 237.148V236.664Z" fill="#48CCA8" />
					<path d="M410.82 242.625C410.82 242.073 411.268 241.625 411.82 241.625H412.385C412.937 241.625 413.385 242.073 413.385 242.625V243.109C413.385 243.661 412.937 244.109 412.385 244.109H411.82C411.268 244.109 410.82 243.661 410.82 243.109V242.625Z" fill="#48CCA8" />
					<path d="M410.82 245.606C410.82 245.053 411.268 244.606 411.82 244.606H412.385C412.937 244.606 413.385 245.053 413.385 245.606V246.09C413.385 246.642 412.937 247.09 412.385 247.09H411.82C411.268 247.09 410.82 246.642 410.82 246.09V245.606Z" fill="#48CCA8" />
					<path d="M410.82 248.586C410.82 248.034 411.268 247.586 411.82 247.586H412.385C412.937 247.586 413.385 248.034 413.385 248.586V249.07C413.385 249.622 412.937 250.07 412.385 250.07H411.82C411.268 250.07 410.82 249.622 410.82 249.07V248.586Z" fill="#48CCA8" />
					<path d="M413.897 251.567C413.897 251.015 414.345 250.567 414.897 250.567H415.462C416.014 250.567 416.462 251.015 416.462 251.567V252.051C416.462 252.603 416.014 253.051 415.462 253.051H414.897C414.345 253.051 413.897 252.603 413.897 252.051V251.567Z" fill="#48CCA8" />
					<path d="M413.897 248.586C413.897 248.034 414.345 247.586 414.897 247.586H415.462C416.014 247.586 416.462 248.034 416.462 248.586V249.07C416.462 249.622 416.014 250.07 415.462 250.07H414.897C414.345 250.07 413.897 249.622 413.897 249.07V248.586Z" fill="#48CCA8" />
					<path d="M413.897 245.606C413.897 245.053 414.345 244.606 414.897 244.606H415.462C416.014 244.606 416.462 245.053 416.462 245.606V246.09C416.462 246.642 416.014 247.09 415.462 247.09H414.897C414.345 247.09 413.897 246.642 413.897 246.09V245.606Z" fill="#48CCA8" />
					<path d="M413.897 242.625C413.897 242.073 414.345 241.625 414.897 241.625H415.462C416.014 241.625 416.462 242.073 416.462 242.625V243.109C416.462 243.661 416.014 244.109 415.462 244.109H414.897C414.345 244.109 413.897 243.661 413.897 243.109V242.625Z" fill="#48CCA8" />
					<path d="M413.897 230.702C413.897 230.15 414.345 229.702 414.897 229.702H415.462C416.014 229.702 416.462 230.15 416.462 230.702V231.186C416.462 231.739 416.014 232.186 415.462 232.186H414.897C414.345 232.186 413.897 231.739 413.897 231.186V230.702Z" fill="#48CCA8" />
					<path d="M416.974 230.702C416.974 230.15 417.422 229.702 417.974 229.702H418.538C419.091 229.702 419.538 230.15 419.538 230.702V231.186C419.538 231.739 419.091 232.186 418.538 232.186H417.974C417.422 232.186 416.974 231.739 416.974 231.186V230.702Z" fill="#48CCA8" />
					<path d="M416.974 242.625C416.974 242.073 417.422 241.625 417.974 241.625H418.538C419.091 241.625 419.538 242.073 419.538 242.625V243.109C419.538 243.661 419.091 244.109 418.538 244.109H417.974C417.422 244.109 416.974 243.661 416.974 243.109V242.625Z" fill="#48CCA8" />
					<path d="M416.974 245.606C416.974 245.053 417.422 244.606 417.974 244.606H418.538C419.091 244.606 419.538 245.053 419.538 245.606V246.09C419.538 246.642 419.091 247.09 418.538 247.09H417.974C417.422 247.09 416.974 246.642 416.974 246.09V245.606Z" fill="#48CCA8" />
					<path d="M416.974 248.586C416.974 248.034 417.422 247.586 417.974 247.586H418.538C419.091 247.586 419.538 248.034 419.538 248.586V249.07C419.538 249.622 419.091 250.07 418.538 250.07H417.974C417.422 250.07 416.974 249.622 416.974 249.07V248.586Z" fill="#48CCA8" />
					<path d="M416.974 251.567C416.974 251.015 417.422 250.567 417.974 250.567H418.538C419.091 250.567 419.538 251.015 419.538 251.567V252.051C419.538 252.603 419.091 253.051 418.538 253.051H417.974C417.422 253.051 416.974 252.603 416.974 252.051V251.567Z" fill="#48CCA8" />
					<path d="M420.051 251.567C420.051 251.015 420.499 250.567 421.051 250.567H421.615C422.168 250.567 422.615 251.015 422.615 251.567V252.051C422.615 252.603 422.168 253.051 421.615 253.051H421.051C420.499 253.051 420.051 252.603 420.051 252.051V251.567Z" fill="#48CCA8" />
					<path d="M420.051 248.586C420.051 248.034 420.499 247.586 421.051 247.586H421.615C422.168 247.586 422.615 248.034 422.615 248.586V249.07C422.615 249.622 422.168 250.07 421.615 250.07H421.051C420.499 250.07 420.051 249.622 420.051 249.07V248.586Z" fill="#48CCA8" />
					<path d="M420.051 245.606C420.051 245.053 420.499 244.606 421.051 244.606H421.615C422.168 244.606 422.615 245.053 422.615 245.606V246.09C422.615 246.642 422.168 247.09 421.615 247.09H421.051C420.499 247.09 420.051 246.642 420.051 246.09V245.606Z" fill="#48CCA8" />
					<path d="M420.051 242.625C420.051 242.073 420.499 241.625 421.051 241.625H421.615C422.168 241.625 422.615 242.073 422.615 242.625V243.109C422.615 243.661 422.168 244.109 421.615 244.109H421.051C420.499 244.109 420.051 243.661 420.051 243.109V242.625Z" fill="#48CCA8" />
					<path d="M420.051 233.683C420.051 233.131 420.499 232.683 421.051 232.683H421.615C422.168 232.683 422.615 233.131 422.615 233.683V234.167C422.615 234.719 422.168 235.167 421.615 235.167H421.051C420.499 235.167 420.051 234.719 420.051 234.167V233.683Z" fill="#48CCA8" />
					<path d="M420.051 230.702C420.051 230.15 420.499 229.702 421.051 229.702H421.615C422.168 229.702 422.615 230.15 422.615 230.702V231.186C422.615 231.739 422.168 232.186 421.615 232.186H421.051C420.499 232.186 420.051 231.739 420.051 231.186V230.702Z" fill="#48CCA8" />
					<path d="M423.128 233.683C423.128 233.131 423.576 232.683 424.128 232.683H424.692C425.245 232.683 425.692 233.131 425.692 233.683V234.167C425.692 234.719 425.245 235.167 424.692 235.167H424.128C423.576 235.167 423.128 234.719 423.128 234.167V233.683Z" fill="#48CCA8" />
					<path d="M423.128 236.664C423.128 236.111 423.576 235.664 424.128 235.664H424.692C425.245 235.664 425.692 236.111 425.692 236.664V237.148C425.692 237.7 425.245 238.148 424.692 238.148H424.128C423.576 238.148 423.128 237.7 423.128 237.148V236.664Z" fill="#48CCA8" />
					<path d="M423.128 239.644C423.128 239.092 423.576 238.644 424.128 238.644H424.692C425.245 238.644 425.692 239.092 425.692 239.644V240.128C425.692 240.681 425.245 241.128 424.692 241.128H424.128C423.576 241.128 423.128 240.681 423.128 240.128V239.644Z" fill="#48CCA8" />
					<path d="M423.128 242.625C423.128 242.073 423.576 241.625 424.128 241.625H424.692C425.245 241.625 425.692 242.073 425.692 242.625V243.109C425.692 243.661 425.245 244.109 424.692 244.109H424.128C423.576 244.109 423.128 243.661 423.128 243.109V242.625Z" fill="#48CCA8" />
					<path d="M423.128 245.606C423.128 245.053 423.576 244.606 424.128 244.606H424.692C425.245 244.606 425.692 245.053 425.692 245.606V246.09C425.692 246.642 425.245 247.09 424.692 247.09H424.128C423.576 247.09 423.128 246.642 423.128 246.09V245.606Z" fill="#48CCA8" />
					<path d="M423.128 248.586C423.128 248.034 423.576 247.586 424.128 247.586H424.692C425.245 247.586 425.692 248.034 425.692 248.586V249.07C425.692 249.622 425.245 250.07 424.692 250.07H424.128C423.576 250.07 423.128 249.622 423.128 249.07V248.586Z" fill="#48CCA8" />
					<path d="M449.795 233.684C449.795 233.132 450.243 232.684 450.795 232.684H451.359C451.911 232.684 452.359 233.132 452.359 233.684V234.168C452.359 234.72 451.911 235.168 451.359 235.168H450.795C450.243 235.168 449.795 234.72 449.795 234.168V233.684Z" fill="#48CCA8" />
					<path d="M449.795 236.664C449.795 236.112 450.243 235.664 450.795 235.664H451.359C451.911 235.664 452.359 236.112 452.359 236.664V237.148C452.359 237.701 451.911 238.148 451.359 238.148H450.795C450.243 238.148 449.795 237.701 449.795 237.148V236.664Z" fill="#48CCA8" />
					<path d="M449.795 242.626C449.795 242.074 450.243 241.626 450.795 241.626H451.359C451.911 241.626 452.359 242.074 452.359 242.626V243.11C452.359 243.662 451.911 244.11 451.359 244.11H450.795C450.243 244.11 449.795 243.662 449.795 243.11V242.626Z" fill="#48CCA8" />
					<path d="M449.795 245.606C449.795 245.054 450.243 244.606 450.795 244.606H451.359C451.911 244.606 452.359 245.054 452.359 245.606V246.09C452.359 246.643 451.911 247.09 451.359 247.09H450.795C450.243 247.09 449.795 246.643 449.795 246.09V245.606Z" fill="#48CCA8" />
					<path d="M449.795 248.587C449.795 248.035 450.243 247.587 450.795 247.587H451.359C451.911 247.587 452.359 248.035 452.359 248.587V249.071C452.359 249.623 451.911 250.071 451.359 250.071H450.795C450.243 250.071 449.795 249.623 449.795 249.071V248.587Z" fill="#48CCA8" />
					<path d="M452.872 251.568C452.872 251.015 453.319 250.568 453.872 250.568H454.436C454.988 250.568 455.436 251.015 455.436 251.568V252.052C455.436 252.604 454.988 253.052 454.436 253.052H453.872C453.319 253.052 452.872 252.604 452.872 252.052V251.568Z" fill="#48CCA8" />
					<path d="M452.872 248.587C452.872 248.035 453.319 247.587 453.872 247.587H454.436C454.988 247.587 455.436 248.035 455.436 248.587V249.071C455.436 249.623 454.988 250.071 454.436 250.071H453.872C453.319 250.071 452.872 249.623 452.872 249.071V248.587Z" fill="#48CCA8" />
					<path d="M452.872 245.606C452.872 245.054 453.319 244.606 453.872 244.606H454.436C454.988 244.606 455.436 245.054 455.436 245.606V246.09C455.436 246.643 454.988 247.09 454.436 247.09H453.872C453.319 247.09 452.872 246.643 452.872 246.09V245.606Z" fill="#48CCA8" />
					<path d="M452.872 242.626C452.872 242.074 453.319 241.626 453.872 241.626H454.436C454.988 241.626 455.436 242.074 455.436 242.626V243.11C455.436 243.662 454.988 244.11 454.436 244.11H453.872C453.319 244.11 452.872 243.662 452.872 243.11V242.626Z" fill="#48CCA8" />
					<path d="M452.872 230.703C452.872 230.151 453.319 229.703 453.872 229.703H454.436C454.988 229.703 455.436 230.151 455.436 230.703V231.187C455.436 231.739 454.988 232.187 454.436 232.187H453.872C453.319 232.187 452.872 231.739 452.872 231.187V230.703Z" fill="#48CCA8" />
					<path d="M455.949 230.703C455.949 230.151 456.396 229.703 456.949 229.703H457.513C458.065 229.703 458.513 230.151 458.513 230.703V231.187C458.513 231.739 458.065 232.187 457.513 232.187H456.949C456.396 232.187 455.949 231.739 455.949 231.187V230.703Z" fill="#48CCA8" />
					<path d="M455.949 242.626C455.949 242.074 456.396 241.626 456.949 241.626H457.513C458.065 241.626 458.513 242.074 458.513 242.626V243.11C458.513 243.662 458.065 244.11 457.513 244.11H456.949C456.396 244.11 455.949 243.662 455.949 243.11V242.626Z" fill="#48CCA8" />
					<path d="M455.949 245.606C455.949 245.054 456.396 244.606 456.949 244.606H457.513C458.065 244.606 458.513 245.054 458.513 245.606V246.09C458.513 246.643 458.065 247.09 457.513 247.09H456.949C456.396 247.09 455.949 246.643 455.949 246.09V245.606Z" fill="#48CCA8" />
					<path d="M455.949 248.587C455.949 248.035 456.396 247.587 456.949 247.587H457.513C458.065 247.587 458.513 248.035 458.513 248.587V249.071C458.513 249.623 458.065 250.071 457.513 250.071H456.949C456.396 250.071 455.949 249.623 455.949 249.071V248.587Z" fill="#48CCA8" />
					<path d="M455.949 251.568C455.949 251.015 456.396 250.568 456.949 250.568H457.513C458.065 250.568 458.513 251.015 458.513 251.568V252.052C458.513 252.604 458.065 253.052 457.513 253.052H456.949C456.396 253.052 455.949 252.604 455.949 252.052V251.568Z" fill="#48CCA8" />
					<path d="M459.026 251.568C459.026 251.015 459.473 250.568 460.026 250.568H460.59C461.142 250.568 461.59 251.015 461.59 251.568V252.052C461.59 252.604 461.142 253.052 460.59 253.052H460.026C459.473 253.052 459.026 252.604 459.026 252.052V251.568Z" fill="#48CCA8" />
					<path d="M459.026 248.587C459.026 248.035 459.473 247.587 460.026 247.587H460.59C461.142 247.587 461.59 248.035 461.59 248.587V249.071C461.59 249.623 461.142 250.071 460.59 250.071H460.026C459.473 250.071 459.026 249.623 459.026 249.071V248.587Z" fill="#48CCA8" />
					<path d="M459.026 245.606C459.026 245.054 459.473 244.606 460.026 244.606H460.59C461.142 244.606 461.59 245.054 461.59 245.606V246.09C461.59 246.643 461.142 247.09 460.59 247.09H460.026C459.473 247.09 459.026 246.643 459.026 246.09V245.606Z" fill="#48CCA8" />
					<path d="M459.026 242.626C459.026 242.074 459.473 241.626 460.026 241.626H460.59C461.142 241.626 461.59 242.074 461.59 242.626V243.11C461.59 243.662 461.142 244.11 460.59 244.11H460.026C459.473 244.11 459.026 243.662 459.026 243.11V242.626Z" fill="#48CCA8" />
					<path d="M459.026 233.684C459.026 233.132 459.473 232.684 460.026 232.684H460.59C461.142 232.684 461.59 233.132 461.59 233.684V234.168C461.59 234.72 461.142 235.168 460.59 235.168H460.026C459.473 235.168 459.026 234.72 459.026 234.168V233.684Z" fill="#48CCA8" />
					<path d="M459.026 230.703C459.026 230.151 459.473 229.703 460.026 229.703H460.59C461.142 229.703 461.59 230.151 461.59 230.703V231.187C461.59 231.739 461.142 232.187 460.59 232.187H460.026C459.473 232.187 459.026 231.739 459.026 231.187V230.703Z" fill="#48CCA8" />
					<path d="M462.103 233.684C462.103 233.132 462.55 232.684 463.103 232.684H463.667C464.219 232.684 464.667 233.132 464.667 233.684V234.168C464.667 234.72 464.219 235.168 463.667 235.168H463.103C462.55 235.168 462.103 234.72 462.103 234.168V233.684Z" fill="#48CCA8" />
					<path d="M462.103 236.664C462.103 236.112 462.55 235.664 463.103 235.664H463.667C464.219 235.664 464.667 236.112 464.667 236.664V237.148C464.667 237.701 464.219 238.148 463.667 238.148H463.103C462.55 238.148 462.103 237.701 462.103 237.148V236.664Z" fill="#48CCA8" />
					<path d="M462.103 239.645C462.103 239.093 462.55 238.645 463.103 238.645H463.667C464.219 238.645 464.667 239.093 464.667 239.645V240.129C464.667 240.681 464.219 241.129 463.667 241.129H463.103C462.55 241.129 462.103 240.681 462.103 240.129V239.645Z" fill="#48CCA8" />
					<path d="M462.103 242.626C462.103 242.074 462.55 241.626 463.103 241.626H463.667C464.219 241.626 464.667 242.074 464.667 242.626V243.11C464.667 243.662 464.219 244.11 463.667 244.11H463.103C462.55 244.11 462.103 243.662 462.103 243.11V242.626Z" fill="#48CCA8" />
					<path d="M462.103 245.606C462.103 245.054 462.55 244.606 463.103 244.606H463.667C464.219 244.606 464.667 245.054 464.667 245.606V246.09C464.667 246.643 464.219 247.09 463.667 247.09H463.103C462.55 247.09 462.103 246.643 462.103 246.09V245.606Z" fill="#48CCA8" />
					<path d="M462.103 248.587C462.103 248.035 462.55 247.587 463.103 247.587H463.667C464.219 247.587 464.667 248.035 464.667 248.587V249.071C464.667 249.623 464.219 250.071 463.667 250.071H463.103C462.55 250.071 462.103 249.623 462.103 249.071V248.587Z" fill="#48CCA8" />
					<path d="M432.359 212.067C434.932 215.578 418.254 214.533 405.949 222.996C393.643 231.459 390.573 243.148 388 239.638C385.427 236.127 388.64 227.29 400.945 218.827C413.251 210.364 429.786 208.556 432.359 212.067Z" fill="#D9D9D9" fill-opacity="0.5" />
					<path d="M388.769 244.606C388.769 245.703 387.851 246.593 386.718 246.593C385.585 246.593 384.667 245.703 384.667 244.606C384.667 243.508 385.585 242.619 386.718 242.619C387.851 242.619 388.769 243.508 388.769 244.606Z" fill="#D9D9D9" fill-opacity="0.5" />
					<path d="M445.039 290.233C445.636 287.134 453.937 285.658 465.983 278.839C478.028 272.02 484.855 262.167 486.474 264.827C488.093 267.487 483.512 277.238 471.466 284.057C459.42 290.877 446.659 292.894 445.039 290.233Z" fill="#4C5896" fill-opacity="0.5" />
					<path fill-rule="evenodd" clip-rule="evenodd" d="M478.819 219.775C467.718 212.084 452.798 207.798 437.768 207.851C422.806 207.904 407.996 212.222 396.991 219.902C385.999 227.573 378.856 238.549 379.002 251.981C379.147 265.282 386.31 276.022 397.206 283.501C408.115 290.989 422.72 295.164 437.535 295.268C452.489 295.373 467.334 291.264 478.446 283.754C489.545 276.254 496.867 265.409 496.998 251.982C497.13 238.486 489.907 227.457 478.819 219.775ZM479.958 218.131C491.451 226.094 499.138 237.689 498.998 252.002C498.859 266.236 491.072 277.636 479.566 285.411C468.074 293.178 452.82 297.376 437.521 297.268C422.37 297.162 407.361 292.897 396.074 285.15C384.773 277.393 377.156 266.1 377.002 252.003C376.847 237.757 384.45 226.215 395.846 218.262C407.229 210.318 422.45 205.905 437.76 205.851C453.144 205.797 468.477 210.177 479.958 218.131Z" fill="#061568" />
				</g>
			</g>
			<g id="shield">
				<path d="M370.449 260.829C370.449 302.265 405.692 324.068 405.692 335.914C405.692 337.484 401.49 338.235 399.538 337.935C386.756 335.967 341.59 296.776 341.59 260.829C341.59 225.118 386.894 186.872 400.051 184.137C402.161 183.698 405.692 184.325 405.692 185.86C405.692 196.966 370.449 219.392 370.449 260.829Z" fill="#3749A4" />
				<path d="M366.859 260.829C366.859 302.265 402.103 324.068 402.103 335.914C402.103 347.761 338 302.265 338 260.829C338 219.392 402.103 174.754 402.103 185.86C402.103 196.966 366.859 219.392 366.859 260.829Z" fill="#5772FF" />
				<path d="M401.825 337.031C402.007 336.742 402.103 336.371 402.103 335.914C402.103 335.62 402.081 335.319 402.038 335.012C400.38 332.161 398.059 328.937 395.43 325.286C392.596 321.35 389.404 316.918 386.3 311.921C379.956 303.523 373.294 293.233 369.65 280.593C367.818 280.254 365.738 279.586 363.385 278.529C352.978 273.859 346.138 265.766 341.671 257.694C341.617 258.555 341.59 259.414 341.59 260.272C341.59 295.515 387.963 333.695 401.825 337.031Z" fill="#3749A4" />
				<path d="M339.109 252.532C338.443 255.536 338.059 258.547 338.006 261.544C338.002 261.305 338 261.067 338 260.829C338 257.917 338.317 254.989 338.905 252.066C338.972 252.221 339.04 252.376 339.109 252.532Z" fill="#3749A4" />
				<path d="M339.538 260.788C339.456 261.413 338.825 261.951 338.033 262.461C338.011 261.916 338 261.372 338 260.829C338 220.503 398.711 177.145 401.967 185.085C399.217 186.091 395.379 188.284 390.941 191.408C391.108 191.467 391.242 191.559 391.335 191.684C391.906 192.452 390.761 194.197 388.778 195.582C386.794 196.967 384.723 197.468 384.152 196.7C384.129 196.669 384.108 196.635 384.09 196.6C365.872 211.332 342.67 237.145 339.538 260.788Z" fill="#AEBBFF" />
				<path fill-rule="evenodd" clip-rule="evenodd" d="M400.359 184.144C390.096 183.517 338 223.414 338 260.712C338 296.369 385.613 335.037 398.77 337.469C399.15 337.572 399.509 337.649 399.846 337.701C401.798 338.001 406 337.251 406 335.684C406 331.563 401.722 326.235 396.147 319.292C385.72 306.306 370.756 287.671 370.756 260.712C370.756 233.451 386.057 214.431 396.495 201.455C401.899 194.737 406 189.64 406 185.857C406 184.325 402.468 183.699 400.359 184.137L400.359 184.144ZM368.756 260.712C368.756 282.008 377.839 298.209 386.762 310.455C389.434 314.123 392.198 317.568 394.664 320.641L394.665 320.642C396.231 322.593 397.676 324.394 398.9 326.007C400.534 328.158 401.833 330.039 402.721 331.704C403.471 333.112 403.862 334.247 403.969 335.169C403.776 335.26 403.5 335.364 403.139 335.461C402.901 335.524 402.655 335.577 402.41 335.62L402.102 335.615C402.055 331.504 397.794 326.196 392.249 319.292C381.823 306.306 366.859 287.671 366.859 260.712C366.859 233.451 382.159 214.431 392.598 201.455C397.911 194.85 401.965 189.81 402.099 186.048L402.408 186.024C402.774 186.053 403.14 186.11 403.475 186.196C403.682 186.248 403.844 186.304 403.965 186.355C403.855 187.183 403.477 188.243 402.733 189.597C401.844 191.214 400.543 193.063 398.907 195.195C397.758 196.692 396.434 198.339 395.003 200.118L395.002 200.119L395.001 200.12C392.457 203.285 389.577 206.866 386.759 210.754C377.836 223.064 368.756 239.42 368.756 260.712ZM398.052 335.233C396.758 334.84 395.071 334.115 393.036 333.017C387.219 329.879 379.345 324.133 371.42 316.691C363.504 309.256 355.619 300.206 349.725 290.506C343.822 280.788 340 270.555 340 260.712C340 250.87 343.821 240.692 349.722 231.046C355.614 221.415 363.498 212.449 371.415 205.074C379.338 197.693 387.216 191.979 393.041 188.814C395.999 187.207 398.239 186.362 399.618 186.174C399.817 186.147 399.973 186.137 400.091 186.136C400.023 186.995 399.646 188.121 398.835 189.597C397.947 191.214 396.646 193.063 395.009 195.195C393.86 196.692 392.535 198.34 391.104 200.12C388.559 203.285 385.68 206.866 382.861 210.754C373.939 223.064 364.859 239.42 364.859 260.712C364.859 282.008 373.942 298.209 382.864 310.455C385.537 314.123 388.302 317.569 390.768 320.642C392.333 322.593 393.778 324.394 395.003 326.007C396.636 328.158 397.936 330.039 398.823 331.704C399.691 333.332 400.077 334.596 400.101 335.586C400.033 335.582 399.957 335.576 399.872 335.567C399.386 335.514 398.788 335.376 398.083 335.146L398.052 335.233Z" fill="#061568" />
			</g>
			<g id="shield_2">
				<path d="M505.551 260.712C505.551 302.085 470.308 323.855 470.308 335.684C470.308 337.251 474.51 338.001 476.461 337.701C489.244 335.736 534.41 296.604 534.41 260.712C534.41 225.055 489.106 186.867 475.949 184.137C473.839 183.699 470.308 184.325 470.308 185.857C470.308 196.946 505.551 219.338 505.551 260.712Z" fill="#3749A4" />
				<path d="M509.141 260.712C509.141 302.085 473.897 323.855 473.897 335.684C473.897 347.512 538 302.085 538 260.712C538 219.338 473.897 174.768 473.897 185.857C473.897 196.946 509.141 219.338 509.141 260.712Z" fill="#5772FF" />
				<path fill-rule="evenodd" clip-rule="evenodd" d="M475.641 184.144C485.904 183.517 538 223.414 538 260.712C538 296.369 490.387 335.037 477.23 337.469C476.85 337.572 476.491 337.649 476.154 337.701C474.202 338.001 470 337.251 470 335.684C470 331.563 474.278 326.235 479.853 319.292C490.28 306.306 505.244 287.671 505.244 260.712C505.244 233.451 489.943 214.431 479.505 201.455C474.101 194.737 470 189.64 470 185.857C470 184.325 473.531 183.699 475.641 184.137L475.641 184.144ZM507.244 260.712C507.244 282.008 498.16 298.209 489.238 310.455C486.566 314.123 483.802 317.568 481.336 320.641L481.335 320.642C479.769 322.593 478.324 324.394 477.099 326.007C475.466 328.158 474.167 330.039 473.279 331.704C472.529 333.112 472.138 334.247 472.031 335.169C472.224 335.26 472.5 335.364 472.861 335.461C473.099 335.524 473.345 335.577 473.59 335.62L473.898 335.615C473.945 331.504 478.206 326.196 483.75 319.292C494.177 306.306 509.141 287.671 509.141 260.712C509.141 233.451 493.841 214.431 483.402 201.455C478.089 194.85 474.035 189.81 473.901 186.048L473.592 186.024C473.226 186.053 472.86 186.11 472.525 186.196C472.318 186.248 472.156 186.304 472.034 186.355C472.144 187.183 472.523 188.243 473.267 189.597C474.156 191.214 475.457 193.063 477.093 195.195C478.242 196.692 479.566 198.339 480.997 200.118L480.998 200.119L480.999 200.12C483.543 203.285 486.423 206.866 489.241 210.754C498.164 223.064 507.244 239.42 507.244 260.712ZM477.948 335.233C479.242 334.84 480.929 334.115 482.964 333.017C488.781 329.879 496.655 324.133 504.579 316.691C512.496 309.256 520.381 300.206 526.275 290.506C532.178 280.788 536 270.555 536 260.712C536 250.87 532.179 240.692 526.278 231.046C520.386 221.415 512.502 212.449 504.585 205.074C496.662 197.693 488.784 191.979 482.958 188.814C480.001 187.207 477.761 186.362 476.382 186.174C476.183 186.147 476.027 186.137 475.909 186.136C475.977 186.995 476.354 188.121 477.165 189.597C478.053 191.214 479.354 193.063 480.991 195.195C482.14 196.692 483.465 198.34 484.896 200.12C487.441 203.285 490.32 206.866 493.138 210.754C502.061 223.064 511.141 239.42 511.141 260.712C511.141 282.008 502.058 298.209 493.136 310.455C490.463 314.123 487.698 317.569 485.232 320.642C483.667 322.593 482.222 324.394 480.997 326.007C479.364 328.158 478.064 330.039 477.177 331.704C476.309 333.332 475.922 334.596 475.898 335.586C475.967 335.582 476.043 335.576 476.127 335.567C476.613 335.514 477.212 335.376 477.917 335.146L477.948 335.233Z" fill="#061568" />
				<path d="M511.112 263.19C510.549 283.47 501.767 299.019 493.136 310.865C490.463 314.533 487.698 317.979 485.232 321.052C483.667 323.003 482.222 324.804 480.997 326.417C479.364 328.567 478.064 330.449 477.177 332.114C476.309 333.742 475.922 335.005 475.899 335.996C476.017 336.004 476.192 336.003 476.435 335.977C477.786 335.83 480.007 335.022 482.964 333.427C488.781 330.289 496.655 324.543 504.58 317.1C505.289 316.434 505.999 315.754 506.707 315.062C520.686 300.46 534 280.318 534 261.072C534 254.718 532.549 248.286 530.101 242C528.099 247.655 525.602 252.619 513.704 261.22C512.823 261.857 511.959 262.514 511.112 263.19Z" fill="#3749A4" />
			</g>
		</g>
	</g>
	<defs>
		<radialGradient id="paint0_radial_343_553" cx="0" cy="0" r="1" gradientUnits="userSpaceOnUse" gradientTransform="translate(438 251.561) rotate(90) scale(61.962 82.6889)">
			<stop stop-color="#001A4E" />
			<stop offset="1" stop-color="#395B9F" stop-opacity="0" />
		</radialGradient>
		<radialGradient id="paint1_radial_343_553" cx="0" cy="0" r="1" gradientUnits="userSpaceOnUse" gradientTransform="translate(438 251.561) rotate(90) scale(45.7097 61)">
			<stop stop-color="#5772FF" />
			<stop offset="1" stop-color="#192A4B" />
		</radialGradient>
		<clipPath id="clip0_343_553">
			<rect width="54" height="54" fill="white" transform="translate(257.5 130)" />
		</clipPath>
	</defs>
</svg>
