<svg width="32" height="36" viewBox="0 0 32 36" fill="none" xmlns="http://www.w3.org/2000/svg">
<rect width="32" height="36" fill="black"/>
<path d="M11.4205 19H6.2642V4.45455H11.4631C12.9261 4.45455 14.1856 4.74574 15.2415 5.32812C16.2973 5.90578 17.1094 6.73674 17.6776 7.82102C18.2505 8.9053 18.5369 10.2027 18.5369 11.7131C18.5369 13.2282 18.2505 14.5303 17.6776 15.6193C17.1094 16.7083 16.2926 17.544 15.2273 18.1264C14.1667 18.7088 12.8977 19 11.4205 19ZM9.33949 16.3651H11.2926C12.2017 16.3651 12.9664 16.2041 13.5866 15.8821C14.2116 15.5554 14.6804 15.0511 14.9929 14.3693C15.3101 13.6828 15.4688 12.7973 15.4688 11.7131C15.4688 10.6383 15.3101 9.75994 14.9929 9.07812C14.6804 8.39631 14.214 7.89441 13.5938 7.57244C12.9735 7.25047 12.2088 7.08949 11.2997 7.08949H9.33949V16.3651Z" fill="white"/>
<path d="M25.3838 21.5469H22.273C22.2162 21.1444 22.1002 20.7869 21.925 20.4744C21.7498 20.1572 21.5249 19.8873 21.2503 19.6648C20.9756 19.4422 20.6584 19.2718 20.2986 19.1534C19.9434 19.035 19.5575 18.9759 19.1409 18.9759C18.388 18.9759 17.7323 19.1629 17.1736 19.5369C16.6148 19.9062 16.1816 20.446 15.8738 21.1562C15.5661 21.8617 15.4122 22.7187 15.4122 23.7273C15.4122 24.7642 15.5661 25.6354 15.8738 26.3409C16.1863 27.0464 16.6219 27.5791 17.1807 27.9389C17.7394 28.2988 18.3857 28.4787 19.1196 28.4787C19.5315 28.4787 19.9127 28.4242 20.263 28.3153C20.6182 28.2064 20.933 28.0478 21.2076 27.8395C21.4823 27.6264 21.7095 27.3684 21.8895 27.0653C22.0741 26.7623 22.202 26.4167 22.273 26.0284L25.3838 26.0426C25.3033 26.7102 25.1021 27.3542 24.7801 27.9744C24.4629 28.59 24.0343 29.1416 23.4946 29.6293C22.9595 30.1122 22.3203 30.4957 21.577 30.7798C20.8383 31.0592 20.0026 31.1989 19.0699 31.1989C17.7725 31.1989 16.6125 30.9053 15.5897 30.3182C14.5718 29.7311 13.7668 28.8812 13.175 27.7685C12.5878 26.6558 12.2943 25.3087 12.2943 23.7273C12.2943 22.1411 12.5926 20.7917 13.1892 19.679C13.7858 18.5663 14.5954 17.7187 15.6182 17.1364C16.6409 16.5492 17.7914 16.2557 19.0699 16.2557C19.9127 16.2557 20.6939 16.3741 21.4136 16.6108C22.138 16.8475 22.7796 17.1932 23.3383 17.6477C23.897 18.0975 24.3516 18.6491 24.702 19.3026C25.0571 19.956 25.2843 20.7041 25.3838 21.5469Z" fill="#008FF6"/>
</svg>
