<svg width="58" height="60" viewBox="0 0 58 60" fill="none" xmlns="http://www.w3.org/2000/svg">
<path d="M22.2727 32H14.0227V8.72727H22.3409C24.6818 8.72727 26.697 9.19318 28.3864 10.125C30.0758 11.0492 31.375 12.3788 32.2841 14.1136C33.2008 15.8485 33.6591 17.9242 33.6591 20.3409C33.6591 22.7652 33.2008 24.8485 32.2841 26.5909C31.375 28.3333 30.0682 29.6705 28.3636 30.6023C26.6667 31.5341 24.6364 32 22.2727 32ZM18.9432 27.7841H22.0682C23.5227 27.7841 24.7462 27.5265 25.7386 27.0114C26.7386 26.4886 27.4886 25.6818 27.9886 24.5909C28.4962 23.4924 28.75 22.0758 28.75 20.3409C28.75 18.6212 28.4962 17.2159 27.9886 16.125C27.4886 15.0341 26.7424 14.2311 25.75 13.7159C24.7576 13.2008 23.5341 12.9432 22.0795 12.9432H18.9432V27.7841Z" fill="white"/>
<path d="M42.5568 37.875H37.5795C37.4886 37.2311 37.303 36.6591 37.0227 36.1591C36.7424 35.6515 36.3826 35.2197 35.9432 34.8636C35.5038 34.5076 34.9962 34.2348 34.4205 34.0455C33.8523 33.8561 33.2348 33.7614 32.5682 33.7614C31.3636 33.7614 30.3144 34.0606 29.4205 34.6591C28.5265 35.25 27.8333 36.1136 27.3409 37.25C26.8485 38.3788 26.6023 39.75 26.6023 41.3636C26.6023 43.0227 26.8485 44.4167 27.3409 45.5455C27.8409 46.6742 28.5379 47.5265 29.4318 48.1023C30.3258 48.678 31.3598 48.9659 32.5341 48.9659C33.1932 48.9659 33.803 48.8788 34.3636 48.7045C34.9318 48.5303 35.4356 48.2765 35.875 47.9432C36.3144 47.6023 36.678 47.1894 36.9659 46.7045C37.2614 46.2197 37.4659 45.6667 37.5795 45.0455L42.5568 45.0682C42.428 46.1364 42.1061 47.1667 41.5909 48.1591C41.0833 49.1439 40.3977 50.0265 39.5341 50.8068C38.678 51.5795 37.6553 52.1932 36.4659 52.6477C35.2841 53.0947 33.947 53.3182 32.4545 53.3182C30.3788 53.3182 28.5227 52.8485 26.8864 51.9091C25.2576 50.9697 23.9697 49.6098 23.0227 47.8295C22.0833 46.0492 21.6136 43.8939 21.6136 41.3636C21.6136 38.8258 22.0909 36.6667 23.0455 34.8864C24 33.1061 25.2955 31.75 26.9318 30.8182C28.5682 29.8788 30.4091 29.4091 32.4545 29.4091C33.803 29.4091 35.053 29.5985 36.2045 29.9773C37.3636 30.3561 38.3902 30.9091 39.2841 31.6364C40.178 32.3561 40.9053 33.2386 41.4659 34.2841C42.0341 35.3295 42.3977 36.5265 42.5568 37.875Z" fill="#008FF6"/>
</svg>
