<svg width="114" height="64" viewBox="0 0 114 64" fill="none" xmlns="http://www.w3.org/2000/svg">
<g id="Logo-wide-light">
<g id="Digital Creation">
<g id="letters">
<path id="igital" d="M29.42 28V18.46H32.08V28H29.42ZM30.76 16.42C30.3067 16.42 29.9533 16.2933 29.7 16.04C29.4467 15.7733 29.32 15.4467 29.32 15.06C29.32 14.6733 29.4467 14.3533 29.7 14.1C29.9533 13.8333 30.3067 13.7 30.76 13.7C31.2 13.7 31.5467 13.8333 31.8 14.1C32.0667 14.3533 32.2 14.6733 32.2 15.06C32.2 15.4467 32.0733 15.7733 31.82 16.04C31.5667 16.2933 31.2133 16.42 30.76 16.42ZM36.2273 21.7C36.2273 21.18 36.3273 20.7067 36.5273 20.28C36.7407 19.8533 37.0273 19.4933 37.3873 19.2C37.7607 18.8933 38.194 18.66 38.6873 18.5C39.194 18.34 39.7473 18.26 40.3473 18.26C40.574 18.26 40.8207 18.28 41.0873 18.32C41.354 18.3467 41.6007 18.3933 41.8273 18.46H45.9073V20.14H45.0473L43.8073 19.96C43.9807 20.1733 44.1207 20.44 44.2273 20.76C44.3473 21.08 44.4073 21.4 44.4073 21.72C44.4073 22.7333 44.0407 23.5533 43.3073 24.18C42.5873 24.7933 41.594 25.1 40.3273 25.1C39.994 25.1 39.7007 25.0733 39.4473 25.02C39.114 25.1533 38.9473 25.3733 38.9473 25.68C38.9473 25.8933 39.0207 26.0533 39.1673 26.16C39.314 26.2667 39.574 26.32 39.9473 26.32H42.0873C43.1407 26.32 43.9807 26.5533 44.6073 27.02C45.2473 27.4733 45.5673 28.2067 45.5673 29.22C45.5673 29.74 45.4407 30.2133 45.1873 30.64C44.9473 31.08 44.6007 31.4533 44.1473 31.76C43.694 32.08 43.1473 32.3267 42.5073 32.5C41.8673 32.6733 41.154 32.76 40.3673 32.76C38.914 32.76 37.7607 32.5 36.9073 31.98C36.0673 31.4733 35.6473 30.74 35.6473 29.78C35.6473 29.34 35.794 28.9533 36.0873 28.62C36.3807 28.3 36.7873 28.0467 37.3073 27.86C37.1207 27.7267 36.934 27.54 36.7473 27.3C36.5607 27.0467 36.4673 26.7333 36.4673 26.36C36.4673 25.92 36.6007 25.54 36.8673 25.22C37.134 24.9 37.474 24.6467 37.8873 24.46C37.6873 24.3533 37.4873 24.22 37.2873 24.06C37.1007 23.8867 36.9273 23.6867 36.7673 23.46C36.6073 23.2333 36.474 22.9733 36.3673 22.68C36.274 22.3867 36.2273 22.06 36.2273 21.7ZM38.7873 28.32C38.5873 28.4267 38.4207 28.5667 38.2873 28.74C38.154 28.9133 38.0873 29.1333 38.0873 29.4C38.0873 29.7867 38.2607 30.1067 38.6073 30.36C38.9673 30.6267 39.5807 30.76 40.4473 30.76C41.314 30.76 41.9473 30.6133 42.3473 30.32C42.7473 30.0267 42.9473 29.6933 42.9473 29.32C42.9473 28.9467 42.8207 28.6867 42.5673 28.54C42.314 28.3933 41.9207 28.32 41.3873 28.32H38.7873ZM41.8073 21.68C41.8073 21.16 41.6673 20.7667 41.3873 20.5C41.1073 20.2333 40.754 20.1 40.3273 20.1C39.8873 20.1 39.5273 20.2333 39.2473 20.5C38.9807 20.7667 38.8473 21.1533 38.8473 21.66C38.8473 22.1933 38.9873 22.5933 39.2673 22.86C39.5473 23.1267 39.9007 23.26 40.3273 23.26C40.7673 23.26 41.1207 23.1267 41.3873 22.86C41.6673 22.5933 41.8073 22.2 41.8073 21.68ZM49.495 28V18.46H52.155V28H49.495ZM50.835 16.42C50.3817 16.42 50.0283 16.2933 49.775 16.04C49.5217 15.7733 49.395 15.4467 49.395 15.06C49.395 14.6733 49.5217 14.3533 49.775 14.1C50.0283 13.8333 50.3817 13.7 50.835 13.7C51.275 13.7 51.6217 13.8333 51.875 14.1C52.1417 14.3533 52.275 14.6733 52.275 15.06C52.275 15.4467 52.1483 15.7733 51.895 16.04C51.6417 16.2933 51.2883 16.42 50.835 16.42ZM62.1023 20.38H59.5623V24.78C59.5623 25.2333 59.6623 25.5467 59.8623 25.72C60.0757 25.88 60.3557 25.96 60.7023 25.96C60.969 25.96 61.2423 25.9333 61.5223 25.88C61.8023 25.8267 62.029 25.7533 62.2023 25.66L62.6023 27.52C62.3757 27.6267 62.0357 27.7333 61.5823 27.84C61.129 27.9467 60.649 28 60.1423 28C58.9823 28 58.1557 27.7733 57.6623 27.32C57.169 26.8533 56.9223 26.16 56.9223 25.24V20.38H55.4423V18.46H56.9223V15.52H59.5623V18.46H62.1023V20.38ZM65.7991 19.3C66.3724 18.9667 66.9791 18.7133 67.6191 18.54C68.2591 18.3533 68.9391 18.26 69.6591 18.26C70.2324 18.26 70.7524 18.3267 71.2191 18.46C71.6991 18.5933 72.1057 18.8067 72.4391 19.1C72.7857 19.38 73.0457 19.7467 73.2191 20.2C73.4057 20.64 73.4991 21.1733 73.4991 21.8V28H71.4391L71.1991 27.02H71.1191C70.8124 27.3933 70.4191 27.6867 69.9391 27.9C69.4724 28.1133 68.9257 28.22 68.2991 28.22C67.7791 28.22 67.3191 28.1467 66.9191 28C66.5191 27.84 66.1791 27.6333 65.8991 27.38C65.6191 27.1133 65.4057 26.8 65.2591 26.44C65.1257 26.08 65.0591 25.6933 65.0591 25.28C65.0591 24.7333 65.1724 24.2667 65.3991 23.88C65.6391 23.48 65.9657 23.1533 66.3791 22.9C66.7924 22.6467 67.2724 22.46 67.8191 22.34C68.3791 22.22 68.9791 22.16 69.6191 22.16H70.8191V21.58C70.8191 21.14 70.6791 20.82 70.3991 20.62C70.1324 20.4067 69.7524 20.3 69.2591 20.3C68.8724 20.3 68.4724 20.36 68.0591 20.48C67.6591 20.6 67.2124 20.7933 66.7191 21.06L65.7991 19.3ZM70.8391 23.82L69.9791 23.84C69.1657 23.8667 68.5991 24.0067 68.2791 24.26C67.9591 24.5 67.7991 24.7933 67.7991 25.14C67.7991 25.5933 67.9324 25.9067 68.1991 26.08C68.4791 26.24 68.7924 26.32 69.1391 26.32C69.4857 26.32 69.8124 26.22 70.1191 26.02C70.4391 25.82 70.6791 25.5867 70.8391 25.32V23.82ZM77.6316 28V13.72H80.2516V28H77.6316Z" fill="white"/>
<path id="reation" d="M35.2 50V40.46H37.26L37.56 42.18C37.7867 41.6733 38.1467 41.2267 38.64 40.84C39.1333 40.4533 39.7533 40.26 40.5 40.26C40.8067 40.26 41.08 40.2933 41.32 40.36C41.56 40.4267 41.76 40.5067 41.92 40.6L41.48 42.7C41.3333 42.62 41.1467 42.5533 40.92 42.5C40.6933 42.4333 40.4267 42.4 40.12 42.4C39.4667 42.4 38.92 42.62 38.48 43.06C38.0533 43.4867 37.84 44.1933 37.84 45.18V50H35.2ZM52.5852 45.92H46.2452V46C46.2452 46.76 46.5118 47.3267 47.0452 47.7C47.5785 48.0733 48.2652 48.26 49.1052 48.26C49.6385 48.26 50.1052 48.2067 50.5052 48.1C50.9185 47.9933 51.2918 47.8667 51.6252 47.72L52.1052 49.58C51.7452 49.7533 51.2918 49.9 50.7452 50.02C50.1985 50.1533 49.5518 50.22 48.8052 50.22C48.0852 50.22 47.4052 50.1267 46.7652 49.94C46.1385 49.74 45.5852 49.44 45.1052 49.04C44.6385 48.64 44.2652 48.1333 43.9852 47.52C43.7052 46.9067 43.5652 46.1733 43.5652 45.32C43.5652 44.56 43.6785 43.8733 43.9052 43.26C44.1318 42.6333 44.4518 42.1 44.8652 41.66C45.2918 41.22 45.7985 40.88 46.3852 40.64C46.9718 40.3867 47.6252 40.26 48.3452 40.26C49.6385 40.26 50.6652 40.6533 51.4252 41.44C52.1985 42.2267 52.5852 43.3267 52.5852 44.74V45.92ZM49.8652 44.1C49.8652 43.8467 49.8318 43.6 49.7652 43.36C49.7118 43.12 49.6185 42.9133 49.4852 42.74C49.3518 42.5533 49.1852 42.4067 48.9852 42.3C48.7852 42.1933 48.5385 42.14 48.2452 42.14C47.7118 42.14 47.2718 42.32 46.9252 42.68C46.5785 43.04 46.3718 43.5267 46.3052 44.14L49.8652 44.1ZM56.2163 41.3C56.7896 40.9667 57.3963 40.7133 58.0363 40.54C58.6763 40.3533 59.3563 40.26 60.0763 40.26C60.6496 40.26 61.1696 40.3267 61.6363 40.46C62.1163 40.5933 62.5229 40.8067 62.8563 41.1C63.2029 41.38 63.4629 41.7467 63.6363 42.2C63.8229 42.64 63.9163 43.1733 63.9163 43.8V50H61.8563L61.6163 49.02H61.5363C61.2296 49.3933 60.8363 49.6867 60.3563 49.9C59.8896 50.1133 59.3429 50.22 58.7163 50.22C58.1963 50.22 57.7363 50.1467 57.3363 50C56.9363 49.84 56.5963 49.6333 56.3163 49.38C56.0363 49.1133 55.8229 48.8 55.6763 48.44C55.5429 48.08 55.4763 47.6933 55.4763 47.28C55.4763 46.7333 55.5896 46.2667 55.8163 45.88C56.0563 45.48 56.3829 45.1533 56.7963 44.9C57.2096 44.6467 57.6896 44.46 58.2363 44.34C58.7963 44.22 59.3963 44.16 60.0363 44.16H61.2363V43.58C61.2363 43.14 61.0963 42.82 60.8163 42.62C60.5496 42.4067 60.1696 42.3 59.6763 42.3C59.2896 42.3 58.8896 42.36 58.4763 42.48C58.0763 42.6 57.6296 42.7933 57.1363 43.06L56.2163 41.3ZM61.2563 45.82L60.3963 45.84C59.5829 45.8667 59.0163 46.0067 58.6963 46.26C58.3763 46.5 58.2163 46.7933 58.2163 47.14C58.2163 47.5933 58.3496 47.9067 58.6163 48.08C58.8963 48.24 59.2096 48.32 59.5563 48.32C59.9029 48.32 60.2296 48.22 60.5363 48.02C60.8563 47.82 61.0963 47.5867 61.2563 47.32V45.82ZM73.6687 42.38H71.1287V46.78C71.1287 47.2333 71.2287 47.5467 71.4287 47.72C71.6421 47.88 71.9221 47.96 72.2687 47.96C72.5354 47.96 72.8087 47.9333 73.0887 47.88C73.3687 47.8267 73.5954 47.7533 73.7687 47.66L74.1687 49.52C73.9421 49.6267 73.6021 49.7333 73.1487 49.84C72.6954 49.9467 72.2154 50 71.7087 50C70.5487 50 69.7221 49.7733 69.2287 49.32C68.7354 48.8533 68.4887 48.16 68.4887 47.24V42.38H67.0087V40.46H68.4887V37.52H71.1287V40.46H73.6687V42.38ZM77.4255 50V40.46H80.0855V50H77.4255ZM78.7655 38.42C78.3121 38.42 77.9588 38.2933 77.7055 38.04C77.4521 37.7733 77.3255 37.4467 77.3255 37.06C77.3255 36.6733 77.4521 36.3533 77.7055 36.1C77.9588 35.8333 78.3121 35.7 78.7655 35.7C79.2055 35.7 79.5521 35.8333 79.8055 36.1C80.0721 36.3533 80.2055 36.6733 80.2055 37.06C80.2055 37.4467 80.0788 37.7733 79.8255 38.04C79.5721 38.2933 79.2188 38.42 78.7655 38.42ZM93.6128 45.16C93.6128 45.9467 93.4861 46.6533 93.2328 47.28C92.9795 47.9067 92.6261 48.44 92.1728 48.88C91.7328 49.3067 91.2128 49.64 90.6128 49.88C90.0128 50.1067 89.3661 50.22 88.6728 50.22C87.9795 50.22 87.3328 50.1133 86.7328 49.9C86.1461 49.6867 85.6328 49.3733 85.1928 48.96C84.7661 48.5467 84.4261 48.04 84.1728 47.44C83.9328 46.8267 83.8128 46.1333 83.8128 45.36C83.8128 44.5467 83.9395 43.8267 84.1928 43.2C84.4461 42.56 84.7928 42.0267 85.2328 41.6C85.6861 41.16 86.2128 40.8267 86.8128 40.6C87.4128 40.3733 88.0595 40.26 88.7528 40.26C89.4461 40.26 90.0861 40.3667 90.6728 40.58C91.2728 40.7933 91.7861 41.1067 92.2128 41.52C92.6528 41.92 92.9928 42.4267 93.2328 43.04C93.4861 43.6533 93.6128 44.36 93.6128 45.16ZM90.8728 45.26C90.8728 44.7133 90.8128 44.2467 90.6928 43.86C90.5728 43.4733 90.4128 43.16 90.2128 42.92C90.0128 42.68 89.7795 42.5067 89.5128 42.4C89.2461 42.28 88.9728 42.22 88.6928 42.22C88.4128 42.22 88.1461 42.2733 87.8928 42.38C87.6395 42.4733 87.4128 42.64 87.2128 42.88C87.0128 43.1067 86.8528 43.4133 86.7328 43.8C86.6128 44.1867 86.5528 44.6733 86.5528 45.26C86.5528 45.78 86.6128 46.2333 86.7328 46.62C86.8528 46.9933 87.0128 47.3 87.2128 47.54C87.4261 47.78 87.6595 47.96 87.9128 48.08C88.1795 48.2 88.4528 48.26 88.7328 48.26C89.0128 48.26 89.2795 48.2133 89.5328 48.12C89.7861 48.0133 90.0128 47.84 90.2128 47.6C90.4128 47.36 90.5728 47.0533 90.6928 46.68C90.8128 46.2933 90.8728 45.82 90.8728 45.26ZM99.7647 50H97.1047V40.46H99.1847L99.5047 41.68C99.9447 41.2267 100.425 40.88 100.945 40.64C101.478 40.3867 102.065 40.26 102.705 40.26C103.758 40.26 104.565 40.5467 105.125 41.12C105.685 41.6933 105.965 42.5267 105.965 43.62V50H103.305V43.9C103.305 43.4067 103.185 43.02 102.945 42.74C102.705 42.4467 102.351 42.3 101.885 42.3C101.538 42.3 101.171 42.4 100.785 42.6C100.411 42.7867 100.071 43.0467 99.7647 43.38V50Z" fill="white"/>
</g>
<g id="DC">
<path id="D" d="M14.2727 29H6.02273V5.72727H14.3409C16.6818 5.72727 18.697 6.19318 20.3864 7.125C22.0758 8.04924 23.375 9.37879 24.2841 11.1136C25.2008 12.8485 25.6591 14.9242 25.6591 17.3409C25.6591 19.7652 25.2008 21.8485 24.2841 23.5909C23.375 25.3333 22.0682 26.6705 20.3636 27.6023C18.6667 28.5341 16.6364 29 14.2727 29ZM10.9432 24.7841H14.0682C15.5227 24.7841 16.7462 24.5265 17.7386 24.0114C18.7386 23.4886 19.4886 22.6818 19.9886 21.5909C20.4962 20.4924 20.75 19.0758 20.75 17.3409C20.75 15.6212 20.4962 14.2159 19.9886 13.125C19.4886 12.0341 18.7424 11.2311 17.75 10.7159C16.7576 10.2008 15.5341 9.94318 14.0795 9.94318H10.9432V24.7841Z" fill="white"/>
<path id="C" d="M31.5568 35.875H26.5795C26.4886 35.2311 26.303 34.6591 26.0227 34.1591C25.7424 33.6515 25.3826 33.2197 24.9432 32.8636C24.5038 32.5076 23.9962 32.2348 23.4205 32.0455C22.8523 31.8561 22.2348 31.7614 21.5682 31.7614C20.3636 31.7614 19.3144 32.0606 18.4205 32.6591C17.5265 33.25 16.8333 34.1136 16.3409 35.25C15.8485 36.3788 15.6023 37.75 15.6023 39.3636C15.6023 41.0227 15.8485 42.4167 16.3409 43.5455C16.8409 44.6742 17.5379 45.5265 18.4318 46.1023C19.3258 46.678 20.3598 46.9659 21.5341 46.9659C22.1932 46.9659 22.803 46.8788 23.3636 46.7045C23.9318 46.5303 24.4356 46.2765 24.875 45.9432C25.3144 45.6023 25.678 45.1894 25.9659 44.7045C26.2614 44.2197 26.4659 43.6667 26.5795 43.0455L31.5568 43.0682C31.428 44.1364 31.1061 45.1667 30.5909 46.1591C30.0833 47.1439 29.3977 48.0265 28.5341 48.8068C27.678 49.5795 26.6553 50.1932 25.4659 50.6477C24.2841 51.0947 22.947 51.3182 21.4545 51.3182C19.3788 51.3182 17.5227 50.8485 15.8864 49.9091C14.2576 48.9697 12.9697 47.6098 12.0227 45.8295C11.0833 44.0492 10.6136 41.8939 10.6136 39.3636C10.6136 36.8258 11.0909 34.6667 12.0455 32.8864C13 31.1061 14.2955 29.75 15.9318 28.8182C17.5682 27.8788 19.4091 27.4091 21.4545 27.4091C22.803 27.4091 24.053 27.5985 25.2045 27.9773C26.3636 28.3561 27.3902 28.9091 28.2841 29.6364C29.178 30.3561 29.9053 31.2386 30.4659 32.2841C31.0341 33.3295 31.3977 34.5265 31.5568 35.875Z" fill="#5772FF"/>
</g>
</g>
</g>
</svg>
