<svg width="1652" height="512" viewBox="0 0 1652 512" fill="none" xmlns="http://www.w3.org/2000/svg">
	<g id="polygon-path">
		<path id="Polygon 1" d="M1322.03 411.761L1331.53 406.399L1328.34 418.045L1322.03 411.761Z" fill="#7926E2" fill-opacity="0.5" stroke="black" />
		<path id="Polygon 2" d="M1376.29 406.596L1372.82 429.24L1361.02 410.714L1376.29 406.596Z" fill="#FF4D4D" fill-opacity="0.5" stroke="black" />
		<path id="Polygon 3" d="M1340.69 447.655L1354.61 439.801L1349.93 456.86L1340.69 447.655Z" fill="#5772FF" stroke="black" />
		<path id="Polygon 4" d="M1371.47 454.095L1391.56 442.761L1384.81 467.38L1371.47 454.095Z" fill="#85DDC5" stroke="black" />
		<path id="Polygon 5" d="M1442.77 459.619L1417.91 462.893L1433 439.851L1442.77 459.619Z" fill="#5772FF" stroke="black" />
		<path id="Polygon 6" d="M1456.84 456.327L1491.31 436.886L1479.72 479.112L1456.84 456.327Z" fill="#7926E2" fill-opacity="0.5" stroke="black" />
		<path id="Polygon 7" d="M1468.22 507.003L1451.01 490.478L1473.24 487.49L1468.22 507.003Z" fill="#D9D9D9" fill-opacity="0.5" stroke="black" />
		<path id="Polygon 8" d="M1490.7 472.939L1500.11 467.63L1496.95 479.16L1490.7 472.939Z" fill="#85DDC5" stroke="black" />
		<path id="Polygon 9" d="M1525.73 496.992L1529.14 458.257L1551.07 487.82L1525.73 496.992Z" fill="#FFD953" fill-opacity="0.5" stroke="black" />
		<path id="Polygon 10" d="M1522.17 434.43L1540.28 424.212L1534.19 446.406L1522.17 434.43Z" fill="#D9D9D9" fill-opacity="0.5" stroke="black" />
		<path id="Polygon 11" d="M1552.28 426.786L1574.15 414.45L1566.8 441.243L1552.28 426.786Z" fill="#3A93FC" stroke="black" />
		<path id="Polygon 12" d="M1557.6 464.351L1574.26 449.946L1571.8 473.821L1557.6 464.351Z" fill="#D9D9D9" fill-opacity="0.5" stroke="black" />
		<path id="Polygon 13" d="M1586.72 444.84L1601.32 447.268L1589.73 457.8L1586.72 444.84Z" fill="#85DDC5" stroke="black" />
		<path id="Polygon 14" d="M1621.87 433.381L1623.65 413.065L1635.16 428.571L1621.87 433.381Z" fill="#D9D9D9" fill-opacity="0.5" stroke="black" />
		<path id="Polygon 15" d="M1599.73 413.172L1586.02 393.382L1607.88 395.57L1599.73 413.172Z" fill="#5772FF" stroke="black" />
		<path id="Polygon 16" d="M1628.13 386.552L1617.6 402.009L1615.18 382.543L1628.13 386.552Z" fill="#D9D9D9" fill-opacity="0.5" stroke="black" />
		<path id="Polygon 17" d="M1602.65 370.881L1588.57 368.162L1599.98 358.263L1602.65 370.881Z" fill="#85DDC5" stroke="black" />
		<path id="Polygon 18" d="M1632.81 352.493L1616.13 328.408L1642.73 331.071L1632.81 352.493Z" fill="#D9D9D9" fill-opacity="0.5" stroke="black" />
		<path id="Polygon 19" d="M1581.74 346.449L1580.47 315.68L1600.63 335.839L1581.74 346.449Z" fill="#3A93FC" stroke="black" />
		<path id="Polygon 20" d="M1606.64 288.438L1592.92 314.829L1585.84 285.152L1606.64 288.438Z" fill="#908C67" stroke="black" />
		<path id="Polygon 21" d="M1556.59 286.856L1564.27 267.703L1570.49 287.551L1556.59 286.856Z" fill="#85DDC5" stroke="black" />
		<path id="Polygon 22" d="M1518.17 317.656L1505.61 328.511L1507.47 310.52L1518.17 317.656Z" fill="#7926E2" stroke="black" />
		<path id="Polygon 23" d="M1531.41 296.836L1514.75 265.89L1542.39 283.454L1531.41 296.836Z" fill="#D9D9D9" fill-opacity="0.5" stroke="black" />
		<path id="Polygon 24" d="M1501.13 274.771L1482.27 284.889L1488.94 262.136L1501.13 274.771Z" fill="#3A93FC" stroke="black" />
		<path id="Polygon 25" d="M1467.44 242.198L1467.63 272.998L1448.19 251.918L1467.44 242.198Z" fill="#85DDC5" stroke="black" />
		<path id="Polygon 26" d="M1464.51 299.203L1450.46 309.878L1453.03 290.682L1464.51 299.203Z" fill="#FF4D4D" fill-opacity="0.5" stroke="black" />
		<path id="Polygon 27" d="M1386.04 308.753L1379.48 294.957L1392.21 300.584L1386.04 308.753Z" fill="#D9D9D9" fill-opacity="0.5" stroke="black" />
		<path id="Polygon 28" d="M1413.82 294.058L1408.63 273.08L1425.36 283.209L1413.82 294.058Z" fill="#85DDC5" stroke="black" />
		<path id="Polygon 29" d="M1403.99 267.671L1383.17 267.168L1394.54 247.015L1403.99 267.671Z" fill="#7926E2" fill-opacity="0.5" stroke="black" />
		<path id="Polygon 30" d="M1386.7 223.953L1364.6 241.219L1369.02 210.83L1386.7 223.953Z" fill="#D9D9D9" fill-opacity="0.5" stroke="black" />
		<path id="Polygon 31" d="M1313.26 417.96L1304.74 385.007L1325.05 412.053L1313.26 417.96Z" fill="#D9D9D9" fill-opacity="0.5" stroke="black" />
		<path id="Polygon 32" d="M1290.94 385.532L1272.9 385.153L1282.81 369.486L1290.94 385.532Z" fill="#3A93FC" stroke="black" />
		<path id="Polygon 33" d="M1267.92 342.791L1262.41 368.264L1249.62 341.907L1267.92 342.791Z" fill="#85DDC5" stroke="black" />
		<path id="Polygon 34" d="M1254.73 388.801L1240.74 391.102L1246.47 376.491L1254.73 388.801Z" fill="#FF4D4D" fill-opacity="0.5" stroke="black" />
		<path id="Polygon 35" d="M1185.58 360.413L1183.26 346.895L1192.83 356.269L1185.58 360.413Z" fill="#D9D9D9" fill-opacity="0.5" stroke="black" />
		<path id="Polygon 36" d="M1212.08 360.866L1211.5 341.314L1223.9 357.282L1212.08 360.866Z" fill="#85DDC5" stroke="black" />
		<path id="Polygon 37" d="M1208.29 334.28L1190.55 324.253L1204 312.907L1208.29 334.28Z" fill="#7926E2" fill-opacity="0.5" stroke="black" />
		<path id="Polygon 38" d="M1201.44 290L1179.26 294.027L1188.67 270.97L1201.44 290Z" fill="#D9D9D9" fill-opacity="0.5" stroke="black" />
		<path id="Polygon 39" d="M1145.84 322.775L1137.32 289.821L1157.64 316.867L1145.84 322.775Z" fill="#D9D9D9" fill-opacity="0.5" stroke="black" />
		<path id="Polygon 40" d="M1123.52 290.346L1105.49 289.967L1115.4 274.3L1123.52 290.346Z" fill="#3A93FC" stroke="black" />
		<path id="Polygon 41" d="M1100.5 247.605L1094.99 273.078L1082.21 246.721L1100.5 247.605Z" fill="#85DDC5" fill-opacity="0.6" stroke="black" />
		<path id="Polygon 42" d="M1087.32 293.615L1073.32 295.916L1079.05 281.305L1087.32 293.615Z" fill="#FF4D4D" fill-opacity="0.6" stroke="black" />
		<path id="Polygon 43" d="M1018.64 265.984L1017.52 254.543L1026.08 261.736L1018.64 265.984Z" fill="#D9D9D9" fill-opacity="0.6" stroke="black" />
		<path id="Polygon 44" d="M1044.66 265.68L1044.08 246.128L1056.48 262.096L1044.66 265.68Z" fill="#85DDC5" fill-opacity="0.6" stroke="black" />
		<path id="Polygon 45" d="M1040.87 239.095L1023.13 229.067L1036.58 217.721L1040.87 239.095Z" fill="#7926E2" fill-opacity="0.4" stroke="black" />
		<path id="Polygon 46" d="M1034.02 194.814L1011.84 198.842L1021.25 175.785L1034.02 194.814Z" fill="#D9D9D9" fill-opacity="0.6" stroke="black" />
		<path id="Polygon 47" d="M1005.94 246.158L992.48 225.889L1011.59 239.275L1005.94 246.158Z" fill="#D9D9D9" fill-opacity="0.6" stroke="black" />
		<path id="Polygon 48" d="M983.12 229.129L972.108 233.274L974.152 220.224L983.12 229.129Z" fill="#3A93FC" fill-opacity="0.4" stroke="black" />
		<path id="Polygon 49" d="M957.562 205.066L960.671 223.78L946.214 208.948L957.562 205.066Z" fill="#85DDC5" fill-opacity="0.4" stroke="black" />
		<path id="Polygon 50" d="M961.223 240.648L953.394 245.586L953.179 234.361L961.223 240.648Z" fill="#FF4D4D" fill-opacity="0.4" stroke="black" />
		<path id="Polygon 51" d="M909.466 236.878L902.066 225.4L913.117 231.878L909.466 236.878Z" fill="#D9D9D9" fill-opacity="0.4" stroke="black" />
		<path id="Polygon 52" d="M927.394 231.556L922.159 218.558L933.579 226.293L927.394 231.556Z" fill="#85DDC5" fill-opacity="0.4" stroke="black" />
		<path id="Polygon 53" d="M917.671 213.815L904.386 211.339L909.669 200.347L917.671 213.815Z" fill="#7926E2" fill-opacity="0.4" stroke="black" />
		<path id="Polygon 54" d="M901.802 184.503L889.276 192.725L889.152 174.615L901.802 184.503Z" fill="#D9D9D9" fill-opacity="0.4" stroke="black" />
		<path id="Polygon 55" d="M875.697 221.493L862.234 201.224L881.342 214.611L875.697 221.493Z" fill="#D9D9D9" fill-opacity="0.25" stroke="black" />
		<path id="Polygon 56" d="M852.874 204.465L841.862 208.609L843.906 195.56L852.874 204.465Z" fill="#3A93FC" fill-opacity="0.25" stroke="black" />
		<path id="Polygon 57" d="M827.316 180.401L830.425 199.116L815.968 184.283L827.316 180.401Z" fill="#85DDC5" fill-opacity="0.25" stroke="black" />
		<path id="Polygon 58" d="M830.978 215.984L823.149 220.921L822.934 209.696L830.978 215.984Z" fill="#FF4D4D" fill-opacity="0.25" stroke="black" />
		<path id="Polygon 59" d="M781.195 214.505L778.863 210.609L782.584 212.604L781.195 214.505Z" fill="#D9D9D9" fill-opacity="0.25" stroke="black" />
		<path id="Polygon 60" d="M797.149 206.892L791.913 193.894L803.334 201.629L797.149 206.892Z" fill="#85DDC5" fill-opacity="0.25" stroke="black" />
		<path id="Polygon 61" d="M787.426 189.151L774.141 186.675L779.424 175.683L787.426 189.151Z" fill="#7926E2" fill-opacity="0.25" stroke="black" />
		<path id="Polygon 62" d="M771.557 159.838L759.03 168.06L758.907 149.95L771.557 159.838Z" fill="#D9D9D9" fill-opacity="0.25" stroke="black" />
		<path id="Polygon 63" d="M705.71 214.081L704.292 207.155L709.076 212.16L705.71 214.081Z" fill="#D9D9D9" fill-opacity="0.25" stroke="black" />
		<path id="Polygon 64" d="M731.62 212.577L731.039 193.025L743.434 208.993L731.62 212.577Z" fill="#85DDC5" fill-opacity="0.25" stroke="black" />
		<path id="Polygon 65" d="M727.831 185.991L710.083 175.964L723.536 164.618L727.831 185.991Z" fill="#7926E2" fill-opacity="0.25" stroke="black" />
		<path id="Polygon 66" d="M720.98 141.711L698.794 145.739L708.208 122.681L720.98 141.711Z" fill="#D9D9D9" fill-opacity="0.25" stroke="black" />
		<path id="Polygon 67" d="M692.899 193.054L679.436 172.785L698.544 186.172L692.899 193.054Z" fill="#D9D9D9" fill-opacity="0.25" stroke="black" />
		<path id="Polygon 68" d="M670.076 176.026L659.063 180.171L661.107 167.121L670.076 176.026Z" fill="#3A93FC" fill-opacity="0.25" stroke="black" />
		<path id="Polygon 69" d="M644.518 151.962L647.627 170.677L633.169 155.844L644.518 151.962Z" fill="#85DDC5" fill-opacity="0.25" stroke="black" />
		<path id="Polygon 70" d="M648.179 187.545L640.35 192.483L640.135 181.257L648.179 187.545Z" fill="#FF4D4D" fill-opacity="0.25" stroke="black" />
		<path id="Polygon 71" d="M598.396 186.067L596.064 182.171L599.785 184.165L598.396 186.067Z" fill="#D9D9D9" fill-opacity="0.25" stroke="black" />
		<path id="Polygon 72" d="M614.35 178.453L609.114 165.455L620.535 173.19L614.35 178.453Z" fill="#85DDC5" fill-opacity="0.25" stroke="black" />
		<path id="Polygon 73" d="M604.626 160.712L591.342 158.236L596.625 147.244L604.626 160.712Z" fill="#7926E2" fill-opacity="0.25" stroke="black" />
		<path id="Polygon 74" d="M588.758 131.399L576.231 139.621L576.108 121.512L588.758 131.399Z" fill="#D9D9D9" fill-opacity="0.25" stroke="black" />
		<path id="Polygon 75" d="M562.652 168.39L549.189 148.121L568.297 161.507L562.652 168.39Z" fill="#D9D9D9" fill-opacity="0.25" stroke="black" />
		<path id="Polygon 76" d="M539.83 151.361L528.817 155.506L530.861 142.456L539.83 151.361Z" fill="#3A93FC" fill-opacity="0.25" stroke="black" />
		<path id="Polygon 77" d="M514.272 127.298L517.381 146.013L502.923 131.18L514.272 127.298Z" fill="#85DDC5" fill-opacity="0.25" stroke="black" />
		<path id="Polygon 78" d="M517.933 162.88L510.104 167.818L509.889 156.593L517.933 162.88Z" fill="#FF4D4D" fill-opacity="0.25" stroke="black" />
		<path id="Polygon 79" d="M468.15 161.402L465.818 157.506L469.539 159.5L468.15 161.402Z" fill="#D9D9D9" fill-opacity="0.25" stroke="black" />
		<path id="Polygon 80" d="M484.104 153.789L478.868 140.79L490.289 148.525L484.104 153.789Z" fill="#85DDC5" fill-opacity="0.25" stroke="black" />
		<path id="Polygon 81" d="M474.38 136.047L461.096 133.571L466.379 122.58L474.38 136.047Z" fill="#7926E2" fill-opacity="0.25" stroke="black" />
		<path id="Polygon 82" d="M458.512 106.735L445.985 114.957L445.862 96.847L458.512 106.735Z" fill="#D9D9D9" fill-opacity="0.25" stroke="black" />
		<path id="Polygon 83" d="M401.36 170.732L401.83 165.908L404.214 170.326L401.36 170.732Z" fill="#D9D9D9" fill-opacity="0.25" stroke="black" />
		<path id="Polygon 84" d="M422.268 176.723L426.318 163.135L432.202 177.381L422.268 176.723Z" fill="#85DDC5" fill-opacity="0.25" stroke="black" />
		<path id="Polygon 85" d="M425.361 156.826L413.931 145.195L426.975 140.932L425.361 156.826Z" fill="#7926E2" fill-opacity="0.25" stroke="black" />
		<path id="Polygon 86" d="M430.31 123.766L412.147 120.652L424.8 107.199L430.31 123.766Z" fill="#D9D9D9" fill-opacity="0.25" stroke="black" />
		<path id="Polygon 87" d="M396.134 152.386L390.478 135.093L402.006 149.183L396.134 152.386Z" fill="#D9D9D9" fill-opacity="0.25" stroke="black" />
		<path id="Polygon 88" d="M381.82 134.212L372.477 134.152L377.006 125.817L381.82 134.212Z" fill="#3A93FC" fill-opacity="0.25" stroke="black" />
		<path id="Polygon 89" d="M367.335 110.497L365.427 124.177L357.692 110.167L367.335 110.497Z" fill="#85DDC5" fill-opacity="0.25" stroke="black" />
		<path id="Polygon 90" d="M361.731 136.437L354.705 137.735L357.072 130.124L361.731 136.437Z" fill="#FF4D4D" fill-opacity="0.25" stroke="black" />
		<path id="Polygon 91" d="M322.901 121.79L322.119 118.936L324.208 120.975L322.901 121.79Z" fill="#D9D9D9" fill-opacity="0.25" stroke="black" />
		<path id="Polygon 92" d="M337.364 120.765L336.335 110.622L343.245 118.815L337.364 120.765Z" fill="#85DDC5" fill-opacity="0.25" stroke="black" />
		<path id="Polygon 93" d="M333.623 105.556L324.001 100.374L330.568 94.2501L333.623 105.556Z" fill="#7926E2" fill-opacity="0.25" stroke="black" />
		<path id="Polygon 94" d="M327.92 80.6622L316.395 82.9983L320.457 70.5504L327.92 80.6622Z" fill="#D9D9D9" fill-opacity="0.25" stroke="black" />
		<path id="Polygon 95" d="M298.75 99.6152L293.094 82.3226L304.622 96.4122L298.75 99.6152Z" fill="#D9D9D9" fill-opacity="0.25" stroke="black" />
		<path id="Polygon 96" d="M284.435 81.4415L275.092 81.3817L279.621 73.046L284.435 81.4415Z" fill="#3A93FC" fill-opacity="0.25" stroke="black" />
		<path id="Polygon 97" d="M269.95 57.7266L268.042 71.4061L260.307 57.397L269.95 57.7266Z" fill="#85DDC5" fill-opacity="0.25" stroke="black" />
		<path id="Polygon 98" d="M264.347 83.6665L257.321 84.9647L259.688 77.3534L264.347 83.6665Z" fill="#FF4D4D" fill-opacity="0.25" stroke="black" />
		<path id="Polygon 99" d="M225.517 69.0195L224.735 66.1653L226.824 68.2048L225.517 69.0195Z" fill="#D9D9D9" fill-opacity="0.25" stroke="black" />
		<path id="Polygon 100" d="M239.98 67.9941L238.951 57.8521L245.861 66.0443L239.98 67.9941Z" fill="#85DDC5" fill-opacity="0.25" stroke="black" />
		<path id="Polygon 101" d="M236.239 52.786L226.617 47.6041L233.184 41.4797L236.239 52.786Z" fill="#7926E2" fill-opacity="0.25" stroke="black" />
		<path id="Polygon 102" d="M230.536 27.892L219.011 30.2281L223.073 17.7802L230.536 27.892Z" fill="#D9D9D9" fill-opacity="0.25" stroke="black" />
		<path id="Polygon 103" d="M180.319 57.2122L180.784 55.741L183.143 57.0886L180.319 57.2122Z" fill="#D9D9D9" fill-opacity="0.25" stroke="black" />
		<path id="Polygon 104" d="M205.338 59.3468L209.73 54.8043L216.111 59.5667L205.338 59.3468Z" fill="#85DDC5" fill-opacity="0.25" stroke="black" />
		<path id="Polygon 105" d="M208.728 52.1424L196.419 48.2815L210.466 46.8664L208.728 52.1424Z" fill="#7926E2" fill-opacity="0.25" stroke="black" />
		<path id="Polygon 106" d="M214.333 40.1977L193.881 39.1167L208.129 34.4471L214.333 40.1977Z" fill="#D9D9D9" fill-opacity="0.25" stroke="black" />
		<path id="Polygon 107" d="M173.913 50.6838L167.303 44.4536L180.776 49.5298L173.913 50.6838Z" fill="#D9D9D9" fill-opacity="0.25" stroke="black" />
		<path id="Polygon 108" d="M156.997 44.084L146.434 44.0632L151.554 41.1582L156.997 44.084Z" fill="#3A93FC" fill-opacity="0.25" stroke="black" />
		<path id="Polygon 109" d="M139.817 35.7435L137.691 40.444L129.068 35.6303L139.817 35.7435Z" fill="#85DDC5" fill-opacity="0.25" stroke="black" />
		<path id="Polygon 110" d="M133.173 44.9233L125.272 45.3733L127.934 42.7349L133.173 44.9233Z" fill="#FF4D4D" fill-opacity="0.25" stroke="black" />
		<path id="Polygon 111" d="M87.3897 39.5372L86.5568 38.5999L88.7823 39.2697L87.3897 39.5372Z" fill="#D9D9D9" fill-opacity="0.25" stroke="black" />
		<path id="Polygon 112" d="M104.504 39.1184L103.33 35.5527L111.21 38.4329L104.504 39.1184Z" fill="#85DDC5" fill-opacity="0.25" stroke="black" />
		<path id="Polygon 113" d="M100.086 33.5557L89.5666 31.8093L96.7461 29.7453L100.086 33.5557Z" fill="#7926E2" fill-opacity="0.25" stroke="black" />
		<path id="Polygon 114" d="M93.2052 24.6003L79.9939 25.4258L84.6505 21.0271L93.2052 24.6003Z" fill="#D9D9D9" fill-opacity="0.25" stroke="black" />
		<path id="Polygon 115" d="M58.7951 31.4552L52.1847 25.225L65.6578 30.3012L58.7951 31.4552Z" fill="#D9D9D9" fill-opacity="0.25" stroke="black" />
		<path id="Polygon 116" d="M41.8784 24.8554L31.3155 24.8346L36.4357 21.9297L41.8784 24.8554Z" fill="#3A93FC" fill-opacity="0.25" stroke="black" />
		<path id="Polygon 117" d="M24.6992 16.515L22.5724 21.2155L13.95 16.4017L24.6992 16.515Z" fill="#85DDC5" fill-opacity="0.25" stroke="black" />
		<path id="Polygon 118" d="M18.0555 25.6947L10.1546 26.1447L12.8164 23.5064L18.0555 25.6947Z" fill="#FF4D4D" fill-opacity="0.25" stroke="black" />
	</g>
</svg>
