<svg width="651" height="731" viewBox="0 0 651 731" fill="none" xmlns="http://www.w3.org/2000/svg">
<mask id="mask0_525_11313" style="mask-type:alpha" maskUnits="userSpaceOnUse" x="94" y="3" width="791" height="688">
<path d="M284.33 588.101L278.663 587.948L282.931 592.502L284.33 588.101Z" fill="#7926E2" fill-opacity="0.5" stroke="black"/>
<path d="M255.191 600.237L262.665 610.341L263.715 598.313L255.191 600.237Z" fill="#FF4D4D" fill-opacity="0.5" stroke="black"/>
<path d="M284.352 611.843L275.697 611.61L282.216 618.564L284.352 611.843Z" fill="#5772FF" stroke="black"/>
<path d="M270.02 623.629L257.193 623.283L266.854 633.59L270.02 623.629Z" fill="#85DDC5" stroke="black"/>
<path d="M234.737 645.55L247.93 640.682L234.47 633.258L234.737 645.55Z" fill="#5772FF" stroke="black"/>
<path d="M226.004 648.213L203.457 647.604L220.439 665.721L226.004 648.213Z" fill="#7926E2" fill-opacity="0.5" stroke="black"/>
<path d="M234.063 677.025L238.306 664.469L226.564 668.766L234.063 677.025Z" fill="#D9D9D9" fill-opacity="0.5" stroke="black"/>
<path d="M212.834 666.121L207.231 665.969L211.451 670.471L212.834 666.121Z" fill="#85DDC5" stroke="black"/>
<path d="M201.013 687.845L189.149 669.404L185.863 689.957L201.013 687.845Z" fill="#FFD953" fill-opacity="0.5" stroke="black"/>
<path d="M185.897 654.778L174.408 654.467L183.061 663.7L185.897 654.778Z" fill="#D9D9D9" fill-opacity="0.5" stroke="black"/>
<path d="M168.075 659.075L154.048 658.696L164.613 669.967L168.075 659.075Z" fill="#3A93FC" stroke="black"/>
<path d="M175.495 679.96L163.624 677.237L170.945 688.237L175.495 679.96Z" fill="#D9D9D9" fill-opacity="0.5" stroke="black"/>
<path d="M155.152 678.04L148.769 682.862L156.945 684.953L155.152 678.04Z" fill="#85DDC5" stroke="black"/>
<path d="M133.441 681.222L127.439 671.893L125.777 682.29L133.441 681.222Z" fill="#D9D9D9" fill-opacity="0.5" stroke="black"/>
<path d="M139.698 664.452L141.373 651.218L131.155 657.948L139.698 664.452Z" fill="#5772FF" stroke="black"/>
<path d="M118.1 658.754L127.089 663.501L123.356 653.539L118.1 658.754Z" fill="#D9D9D9" fill-opacity="0.5" stroke="black"/>
<path d="M126.917 643.325L132.961 638.509L125.051 636.68L126.917 643.325Z" fill="#85DDC5" stroke="black"/>
<path d="M105.881 642.049L107.941 625.771L95.3732 634.049L105.881 642.049Z" fill="#D9D9D9" fill-opacity="0.5" stroke="black"/>
<path d="M130.76 625.059L123.411 609.519L118.599 624.754L130.76 625.059Z" fill="#3A93FC" stroke="black"/>
<path d="M102.619 602.003L116.293 611.455L112.121 594.944L102.619 602.003Z" fill="#908C67" stroke="black"/>
<path d="M127.639 587.423L119.065 580.152L121.066 591.301L127.639 587.423Z" fill="#85DDC5" stroke="black"/>
<path d="M156.778 592.746L165.535 594.755L160.135 586.64L156.778 592.746Z" fill="#7926E2" stroke="black"/>
<path d="M143.68 585.42L143.945 565.879L134.787 581.699L143.68 585.42Z" fill="#D9D9D9" fill-opacity="0.5" stroke="black"/>
<path d="M153.966 565.755L165.822 565.823L156.722 556.449L153.966 565.755Z" fill="#3A93FC" stroke="black"/>
<path d="M162.755 540.023L170.648 555.296L174.861 539.796L162.755 540.023Z" fill="#85DDC5" stroke="black"/>
<path d="M179.794 568.428L189.291 569.987L183.204 561.414L179.794 568.428Z" fill="#FF4D4D" fill-opacity="0.5" stroke="black"/>
<path d="M222.892 551.695L222.593 543.624L217.981 549.401L222.892 551.695Z" fill="#D9D9D9" fill-opacity="0.5" stroke="black"/>
<path d="M204.306 551.731L201.506 540.24L195.915 549.432L204.306 551.731Z" fill="#85DDC5" stroke="black"/>
<path d="M202.714 535.28L212.873 529.632L202.067 522.696L202.714 535.28Z" fill="#7926E2" fill-opacity="0.5" stroke="black"/>
<path d="M199.966 508.043L215.453 510.8L205.366 496.933L199.966 508.043Z" fill="#D9D9D9" fill-opacity="0.5" stroke="black"/>
<path d="M290.627 588.502L286.395 570.321L283.353 588.663L290.627 588.502Z" fill="#D9D9D9" fill-opacity="0.5" stroke="black"/>
<path d="M293.918 565.406L302.621 560.604L293.804 555.556L293.918 565.406Z" fill="#3A93FC" stroke="black"/>
<path d="M294.429 537.313L303.719 548.388L303.25 532.128L294.429 537.313Z" fill="#85DDC5" stroke="black"/>
<path d="M313.772 557.21L321.067 554.778L314.659 549.261L313.772 557.21Z" fill="#FF4D4D" fill-opacity="0.5" stroke="black"/>
<path d="M341.663 523.598L339.478 516.828L337.307 523.457L341.663 523.598Z" fill="#D9D9D9" fill-opacity="0.5" stroke="black"/>
<path d="M327.91 531.17L323.281 521.67L321.317 532.445L327.91 531.17Z" fill="#85DDC5" stroke="black"/>
<path d="M323.031 516.024L329.174 506.572L319.675 504.512L323.031 516.024Z" fill="#7926E2" fill-opacity="0.5" stroke="black"/>
<path d="M314.716 491.336L326.752 487.545L316.131 478.651L314.716 491.336Z" fill="#D9D9D9" fill-opacity="0.5" stroke="black"/>
<path d="M352.207 493.183L347.975 475.002L344.933 493.344L352.207 493.183Z" fill="#D9D9D9" fill-opacity="0.5" stroke="black"/>
<path d="M355.498 470.087L364.201 465.285L355.384 460.237L355.498 470.087Z" fill="#3A93FC" stroke="black"/>
<path d="M356.009 441.994L365.299 453.068L364.83 436.809L356.009 441.994Z" fill="#85DDC5" fill-opacity="0.6" stroke="black"/>
<path d="M375.352 461.89L382.647 459.459L376.239 453.942L375.352 461.89Z" fill="#FF4D4D" fill-opacity="0.6" stroke="black"/>
<path d="M403.173 428.803L400.952 423.318L398.741 428.66L403.173 428.803Z" fill="#D9D9D9" fill-opacity="0.6" stroke="black"/>
<path d="M389.491 435.851L384.861 426.351L382.898 437.125L389.491 435.851Z" fill="#85DDC5" fill-opacity="0.6" stroke="black"/>
<path d="M384.612 420.705L390.754 411.253L381.255 409.193L384.612 420.705Z" fill="#7926E2" fill-opacity="0.4" stroke="black"/>
<path d="M376.297 396.017L388.333 392.226L377.712 383.332L376.297 396.017Z" fill="#D9D9D9" fill-opacity="0.6" stroke="black"/>
<path d="M404.547 414.956L405.919 402.098L400.181 413.126L404.547 414.956Z" fill="#D9D9D9" fill-opacity="0.6" stroke="black"/>
<path d="M412.306 399.897L418.524 399.11L414.349 393.501L412.306 399.897Z" fill="#3A93FC" fill-opacity="0.4" stroke="black"/>
<path d="M419.091 380.819L422.287 390.541L425.525 379.806L419.091 380.819Z" fill="#85DDC5" fill-opacity="0.4" stroke="black"/>
<path d="M426.904 399.921L431.697 400.285L429.101 395.099L426.904 399.921Z" fill="#FF4D4D" fill-opacity="0.4" stroke="black"/>
<path d="M452.446 383.653L453.081 376.816L449.646 382.29L452.446 383.653Z" fill="#D9D9D9" fill-opacity="0.4" stroke="black"/>
<path d="M441.565 385.859L440.855 378.631L437.442 384.946L441.565 385.859Z" fill="#85DDC5" fill-opacity="0.4" stroke="black"/>
<path d="M442.275 373.822L447.977 369.339L442.743 365.47L442.275 373.822Z" fill="#7926E2" fill-opacity="0.4" stroke="black"/>
<path d="M442.668 354.494L450.804 355.261L446.297 346.529L442.668 354.494Z" fill="#D9D9D9" fill-opacity="0.4" stroke="black"/>
<path d="M465.906 366.422L467.278 353.564L461.54 364.592L465.906 366.422Z" fill="#D9D9D9" fill-opacity="0.25" stroke="black"/>
<path d="M473.664 351.363L479.883 350.576L475.708 344.967L473.664 351.363Z" fill="#3A93FC" fill-opacity="0.25" stroke="black"/>
<path d="M480.45 332.285L483.646 342.008L486.883 331.272L480.45 332.285Z" fill="#85DDC5" fill-opacity="0.25" stroke="black"/>
<path d="M488.263 351.387L493.055 351.751L490.459 346.565L488.263 351.387Z" fill="#FF4D4D" fill-opacity="0.25" stroke="black"/>
<path d="M513.388 336.846L513.484 335.229L512.632 336.478L513.388 336.846Z" fill="#D9D9D9" fill-opacity="0.25" stroke="black"/>
<path d="M502.924 337.325L502.214 330.098L498.801 336.412L502.924 337.325Z" fill="#85DDC5" fill-opacity="0.25" stroke="black"/>
<path d="M503.633 325.289L509.335 320.805L504.101 316.937L503.633 325.289Z" fill="#7926E2" fill-opacity="0.25" stroke="black"/>
<path d="M504.026 305.96L512.163 306.727L507.655 297.996L504.026 305.96Z" fill="#D9D9D9" fill-opacity="0.25" stroke="black"/>
<path d="M552.632 316.012L551.761 312.984L550.896 315.956L552.632 316.012Z" fill="#D9D9D9" fill-opacity="0.25" stroke="black"/>
<path d="M538.648 322.405L534.018 312.905L532.054 323.68L538.648 322.405Z" fill="#85DDC5" fill-opacity="0.25" stroke="black"/>
<path d="M533.769 307.26L539.911 297.807L530.412 295.747L533.769 307.26Z" fill="#7926E2" fill-opacity="0.25" stroke="black"/>
<path d="M525.453 282.571L537.489 278.78L526.869 269.887L525.453 282.571Z" fill="#D9D9D9" fill-opacity="0.25" stroke="black"/>
<path d="M553.704 301.51L555.076 288.653L549.338 299.681L553.704 301.51Z" fill="#D9D9D9" fill-opacity="0.25" stroke="black"/>
<path d="M561.463 286.451L567.681 285.664L563.506 280.055L561.463 286.451Z" fill="#3A93FC" fill-opacity="0.25" stroke="black"/>
<path d="M568.248 267.373L571.444 277.096L574.682 266.361L568.248 267.373Z" fill="#85DDC5" fill-opacity="0.25" stroke="black"/>
<path d="M576.061 286.475L580.854 286.839L578.258 281.653L576.061 286.475Z" fill="#FF4D4D" fill-opacity="0.25" stroke="black"/>
<path d="M601.187 271.934L601.283 270.317L600.431 271.566L601.187 271.934Z" fill="#D9D9D9" fill-opacity="0.25" stroke="black"/>
<path d="M590.722 272.413L590.012 265.186L586.6 271.5L590.722 272.413Z" fill="#85DDC5" fill-opacity="0.25" stroke="black"/>
<path d="M591.432 260.377L597.134 255.893L591.9 252.025L591.432 260.377Z" fill="#7926E2" fill-opacity="0.25" stroke="black"/>
<path d="M591.825 241.048L599.961 241.815L595.454 233.084L591.825 241.048Z" fill="#D9D9D9" fill-opacity="0.25" stroke="black"/>
<path d="M615.063 252.976L616.435 240.119L610.697 251.147L615.063 252.976Z" fill="#D9D9D9" fill-opacity="0.25" stroke="black"/>
<path d="M622.821 237.917L629.04 237.13L624.865 231.522L622.821 237.917Z" fill="#3A93FC" fill-opacity="0.25" stroke="black"/>
<path d="M629.607 218.839L632.803 228.562L636.04 217.827L629.607 218.839Z" fill="#85DDC5" fill-opacity="0.25" stroke="black"/>
<path d="M637.42 237.941L642.213 238.306L639.617 233.12L637.42 237.941Z" fill="#FF4D4D" fill-opacity="0.25" stroke="black"/>
<path d="M652.081 223.879L651.371 216.652L647.958 222.966L652.081 223.879Z" fill="#85DDC5" fill-opacity="0.25" stroke="black"/>
</mask>
<g mask="url(#mask0_525_11313)">
<rect width="1050.55" height="804" transform="matrix(-0.885408 0.464815 0.464815 0.885408 829.652 -82.5425)" fill="url(#paint0_linear_525_11313)"/>
</g>
<defs>
<linearGradient id="paint0_linear_525_11313" x1="1020.59" y1="499.855" x2="-211.206" y2="397.777" gradientUnits="userSpaceOnUse">
<stop stop-color="#199EBB"/>
<stop offset="1" stop-color="#A68FFF" stop-opacity="0"/>
</linearGradient>
</defs>
</svg>
