<svg width="1661" height="511" viewBox="0 0 1661 511" fill="none" xmlns="http://www.w3.org/2000/svg">
	<mask id="mask0_525_10813" style="mask-type:alpha" maskUnits="userSpaceOnUse" x="-45" y="1" width="1697" height="506">
		<path d="M1326.91 410.955L1336.51 405.601L1333.29 417.231L1326.91 410.955Z" fill="#7926E2" fill-opacity="0.5" stroke="black" />
		<path d="M1381.69 405.802L1378.18 428.411L1366.27 409.913L1381.69 405.802Z" fill="#FF4D4D" fill-opacity="0.5" stroke="black" />
		<path d="M1345.75 446.779L1359.81 438.938L1355.08 455.97L1345.75 446.779Z" fill="#5772FF" stroke="black" />
		<path d="M1376.82 453.207L1397.1 441.892L1390.29 466.469L1376.82 453.207Z" fill="#85DDC5" stroke="black" />
		<path d="M1448.8 458.721L1423.7 461.989L1438.94 438.988L1448.8 458.721Z" fill="#5772FF" stroke="black" />
		<path d="M1463 455.434L1497.79 436.028L1486.1 478.178L1463 455.434Z" fill="#7926E2" fill-opacity="0.5" stroke="black" />
		<path d="M1474.48 506.015L1457.11 489.519L1479.56 486.537L1474.48 506.015Z" fill="#D9D9D9" fill-opacity="0.5" stroke="black" />
		<path d="M1497.17 472.013L1506.68 466.713L1503.48 478.226L1497.17 472.013Z" fill="#85DDC5" stroke="black" />
		<path d="M1532.54 496.021L1535.97 457.352L1558.12 486.865L1532.54 496.021Z" fill="#FFD953" fill-opacity="0.5" stroke="black" />
		<path d="M1528.94 433.58L1547.23 423.379L1541.08 445.537L1528.94 433.58Z" fill="#D9D9D9" fill-opacity="0.5" stroke="black" />
		<path d="M1559.34 425.951L1581.42 413.636L1574 440.383L1559.34 425.951Z" fill="#3A93FC" stroke="black" />
		<path d="M1564.7 463.442L1581.53 449.061L1579.04 472.896L1564.7 463.442Z" fill="#D9D9D9" fill-opacity="0.5" stroke="black" />
		<path d="M1594.1 443.969L1608.85 446.393L1597.14 456.909L1594.1 443.969Z" fill="#85DDC5" stroke="black" />
		<path d="M1629.58 432.535L1631.38 412.249L1643 427.731L1629.58 432.535Z" fill="#D9D9D9" fill-opacity="0.5" stroke="black" />
		<path d="M1607.24 412.368L1593.4 392.612L1615.47 394.797L1607.24 412.368Z" fill="#5772FF" stroke="black" />
		<path d="M1635.91 385.799L1625.28 401.233L1622.83 381.795L1635.91 385.799Z" fill="#D9D9D9" fill-opacity="0.5" stroke="black" />
		<path d="M1610.19 370.157L1595.97 367.443L1607.5 357.559L1610.19 370.157Z" fill="#85DDC5" stroke="black" />
		<path d="M1640.63 351.807L1623.79 327.766L1650.65 330.424L1640.63 351.807Z" fill="#D9D9D9" fill-opacity="0.5" stroke="black" />
		<path d="M1589.07 345.774L1587.79 315.056L1608.15 335.181L1589.07 345.774Z" fill="#3A93FC" stroke="black" />
		<path d="M1614.22 287.875L1600.36 314.225L1593.21 284.595L1614.22 287.875Z" fill="#908C67" stroke="black" />
		<path d="M1563.69 286.294L1571.44 267.168L1577.73 286.988L1563.69 286.294Z" fill="#85DDC5" stroke="black" />
		<path d="M1524.91 317.037L1512.23 327.875L1514.1 309.912L1524.91 317.037Z" fill="#7926E2" stroke="black" />
		<path d="M1538.27 296.258L1521.45 265.366L1549.36 282.9L1538.27 296.258Z" fill="#D9D9D9" fill-opacity="0.5" stroke="black" />
		<path d="M1507.71 274.235L1488.66 284.336L1495.4 261.621L1507.71 274.235Z" fill="#3A93FC" stroke="black" />
		<path d="M1473.7 241.723L1473.9 272.472L1454.26 251.427L1473.7 241.723Z" fill="#85DDC5" stroke="black" />
		<path d="M1470.74 298.62L1456.55 309.278L1459.15 290.112L1470.74 298.62Z" fill="#FF4D4D" fill-opacity="0.5" stroke="black" />
		<path d="M1391.53 308.152L1384.91 294.378L1397.76 299.996L1391.53 308.152Z" fill="#D9D9D9" fill-opacity="0.5" stroke="black" />
		<path d="M1419.57 293.486L1414.33 272.543L1431.23 282.654L1419.57 293.486Z" fill="#85DDC5" stroke="black" />
		<path d="M1409.66 267.148L1388.63 266.647L1400.11 246.528L1409.66 267.148Z" fill="#7926E2" fill-opacity="0.5" stroke="black" />
		<path d="M1392.2 223.516L1369.88 240.754L1374.35 210.416L1392.2 223.516Z" fill="#D9D9D9" fill-opacity="0.5" stroke="black" />
		<path d="M1318.06 417.145L1309.45 384.239L1329.97 411.246L1318.06 417.145Z" fill="#D9D9D9" fill-opacity="0.5" stroke="black" />
		<path d="M1295.53 384.779L1277.32 384.402L1287.33 368.76L1295.53 384.779Z" fill="#3A93FC" stroke="black" />
		<path d="M1272.3 342.122L1266.73 367.556L1253.82 341.239L1272.3 342.122Z" fill="#85DDC5" stroke="black" />
		<path d="M1258.98 388.041L1244.85 390.339L1250.64 375.752L1258.98 388.041Z" fill="#FF4D4D" fill-opacity="0.5" stroke="black" />
		<path d="M1189.17 359.71L1186.82 346.209L1196.5 355.571L1189.17 359.71Z" fill="#D9D9D9" fill-opacity="0.5" stroke="black" />
		<path d="M1215.92 360.161L1215.34 340.635L1227.86 356.582L1215.92 360.161Z" fill="#85DDC5" stroke="black" />
		<path d="M1212.11 333.631L1194.19 323.619L1207.77 312.29L1212.11 333.631Z" fill="#7926E2" fill-opacity="0.5" stroke="black" />
		<path d="M1205.19 289.434L1182.79 293.454L1192.3 270.437L1205.19 289.434Z" fill="#D9D9D9" fill-opacity="0.5" stroke="black" />
		<path d="M1149.06 322.145L1140.46 289.239L1160.97 316.246L1149.06 322.145Z" fill="#D9D9D9" fill-opacity="0.5" stroke="black" />
		<path d="M1126.54 289.779L1108.32 289.402L1118.33 273.76L1126.54 289.779Z" fill="#3A93FC" stroke="black" />
		<path d="M1103.3 247.122L1097.73 272.556L1084.82 246.24L1103.3 247.122Z" fill="#85DDC5" fill-opacity="0.6" stroke="black" />
		<path d="M1089.99 293.041L1075.85 295.339L1081.64 280.752L1089.99 293.041Z" fill="#FF4D4D" fill-opacity="0.6" stroke="black" />
		<path d="M1020.66 265.466L1019.52 254.038L1028.17 261.223L1020.66 265.466Z" fill="#D9D9D9" fill-opacity="0.6" stroke="black" />
		<path d="M1046.92 265.162L1046.34 245.636L1058.86 261.583L1046.92 265.162Z" fill="#85DDC5" fill-opacity="0.6" stroke="black" />
		<path d="M1043.11 238.632L1025.19 228.62L1038.77 217.291L1043.11 238.632Z" fill="#7926E2" fill-opacity="0.4" stroke="black" />
		<path d="M1036.19 194.434L1013.79 198.455L1023.3 175.437L1036.19 194.434Z" fill="#D9D9D9" fill-opacity="0.6" stroke="black" />
		<path d="M1007.84 245.679L994.246 225.442L1013.54 238.807L1007.84 245.679Z" fill="#D9D9D9" fill-opacity="0.6" stroke="black" />
		<path d="M984.806 228.682L973.685 232.821L975.749 219.791L984.806 228.682Z" fill="#3A93FC" fill-opacity="0.4" stroke="black" />
		<path d="M959.008 204.663L962.148 223.354L947.545 208.54L959.008 204.663Z" fill="#85DDC5" fill-opacity="0.4" stroke="black" />
		<path d="M962.701 240.179L954.795 245.109L954.578 233.901L962.701 240.179Z" fill="#FF4D4D" fill-opacity="0.4" stroke="black" />
		<path d="M910.454 236.417L902.98 224.957L914.141 231.425L910.454 236.417Z" fill="#D9D9D9" fill-opacity="0.4" stroke="black" />
		<path d="M928.55 231.107L923.261 218.125L934.798 225.85L928.55 231.107Z" fill="#85DDC5" fill-opacity="0.4" stroke="black" />
		<path d="M918.742 213.4L905.323 210.927L910.659 199.95L918.742 213.4Z" fill="#7926E2" fill-opacity="0.4" stroke="black" />
		<path d="M902.719 184.143L890.07 192.352L889.946 174.272L902.719 184.143Z" fill="#D9D9D9" fill-opacity="0.4" stroke="black" />
		<path d="M876.365 221.063L862.77 200.826L882.066 214.191L876.365 221.063Z" fill="#D9D9D9" fill-opacity="0.25" stroke="black" />
		<path d="M853.33 204.066L842.208 208.204L844.273 195.175L853.33 204.066Z" fill="#3A93FC" fill-opacity="0.25" stroke="black" />
		<path d="M827.531 180.047L830.672 198.738L816.068 183.924L827.531 180.047Z" fill="#85DDC5" fill-opacity="0.25" stroke="black" />
		<path d="M831.226 215.563L823.319 220.493L823.102 209.285L831.226 215.563Z" fill="#FF4D4D" fill-opacity="0.25" stroke="black" />
		<path d="M780.971 214.089L778.614 210.195L782.375 212.188L780.971 214.089Z" fill="#D9D9D9" fill-opacity="0.25" stroke="black" />
		<path d="M797.074 206.49L791.786 193.509L803.322 201.234L797.074 206.49Z" fill="#85DDC5" fill-opacity="0.25" stroke="black" />
		<path d="M787.266 188.784L773.848 186.311L779.184 175.334L787.266 188.784Z" fill="#7926E2" fill-opacity="0.25" stroke="black" />
		<path d="M771.244 159.527L758.595 167.735L758.471 149.656L771.244 159.527Z" fill="#D9D9D9" fill-opacity="0.25" stroke="black" />
		<path d="M704.771 213.665L703.337 206.74L708.174 211.743L704.771 213.665Z" fill="#D9D9D9" fill-opacity="0.25" stroke="black" />
		<path d="M730.923 212.162L730.337 192.636L742.857 208.583L730.923 212.162Z" fill="#85DDC5" fill-opacity="0.25" stroke="black" />
		<path d="M727.108 185.632L709.186 175.62L722.771 164.291L727.108 185.632Z" fill="#7926E2" fill-opacity="0.25" stroke="black" />
		<path d="M720.191 141.435L697.79 145.455L707.295 122.438L720.191 141.435Z" fill="#D9D9D9" fill-opacity="0.25" stroke="black" />
		<path d="M691.841 192.68L678.246 172.443L697.542 185.808L691.841 192.68Z" fill="#D9D9D9" fill-opacity="0.25" stroke="black" />
		<path d="M668.805 175.683L657.683 179.821L659.748 166.791L668.805 175.683Z" fill="#3A93FC" fill-opacity="0.25" stroke="black" />
		<path d="M643.006 151.664L646.147 170.354L631.543 155.541L643.006 151.664Z" fill="#85DDC5" fill-opacity="0.25" stroke="black" />
		<path d="M646.7 187.18L638.794 192.11L638.576 180.902L646.7 187.18Z" fill="#FF4D4D" fill-opacity="0.25" stroke="black" />
		<path d="M596.445 185.706L594.088 181.812L597.849 183.805L596.445 185.706Z" fill="#D9D9D9" fill-opacity="0.25" stroke="black" />
		<path d="M612.548 178.107L607.26 165.125L618.796 172.851L612.548 178.107Z" fill="#85DDC5" fill-opacity="0.25" stroke="black" />
		<path d="M602.74 160.4L589.322 157.928L594.658 146.95L602.74 160.4Z" fill="#7926E2" fill-opacity="0.25" stroke="black" />
		<path d="M586.718 131.144L574.069 139.352L573.945 121.273L586.718 131.144Z" fill="#D9D9D9" fill-opacity="0.25" stroke="black" />
		<path d="M560.364 168.063L546.769 147.826L566.065 161.192L560.364 168.063Z" fill="#D9D9D9" fill-opacity="0.25" stroke="black" />
		<path d="M537.328 151.066L526.207 155.205L528.271 142.175L537.328 151.066Z" fill="#3A93FC" fill-opacity="0.25" stroke="black" />
		<path d="M511.53 127.048L514.671 145.738L500.067 130.925L511.53 127.048Z" fill="#85DDC5" fill-opacity="0.25" stroke="black" />
		<path d="M515.224 162.563L507.318 167.494L507.1 156.285L515.224 162.563Z" fill="#FF4D4D" fill-opacity="0.25" stroke="black" />
		<path d="M464.969 161.089L462.611 157.195L466.373 159.189L464.969 161.089Z" fill="#D9D9D9" fill-opacity="0.25" stroke="black" />
		<path d="M481.072 153.491L475.783 140.509L487.32 148.234L481.072 153.491Z" fill="#85DDC5" fill-opacity="0.25" stroke="black" />
		<path d="M471.264 135.784L457.846 133.311L463.182 122.334L471.264 135.784Z" fill="#7926E2" fill-opacity="0.25" stroke="black" />
		<path d="M455.242 106.527L442.593 114.736L442.469 96.6562L455.242 106.527Z" fill="#D9D9D9" fill-opacity="0.25" stroke="black" />
		<path d="M397.544 170.398L398.019 165.57L400.433 169.992L397.544 170.398Z" fill="#D9D9D9" fill-opacity="0.25" stroke="black" />
		<path d="M418.649 176.377L422.741 162.805L428.685 177.034L418.649 176.377Z" fill="#85DDC5" fill-opacity="0.25" stroke="black" />
		<path d="M421.78 156.524L410.236 144.911L423.409 140.654L421.78 156.524Z" fill="#7926E2" fill-opacity="0.25" stroke="black" />
		<path d="M426.776 123.525L408.435 120.416L421.213 106.986L426.776 123.525Z" fill="#D9D9D9" fill-opacity="0.25" stroke="black" />
		<path d="M392.27 152.09L386.555 134.813L398.203 148.89L392.27 152.09Z" fill="#D9D9D9" fill-opacity="0.25" stroke="black" />
		<path d="M377.828 133.951L368.39 133.891L372.965 125.566L377.828 133.951Z" fill="#3A93FC" fill-opacity="0.25" stroke="black" />
		<path d="M363.205 110.282L361.278 123.946L353.463 109.953L363.205 110.282Z" fill="#85DDC5" fill-opacity="0.25" stroke="black" />
		<path d="M357.548 136.171L350.451 137.468L352.842 129.866L357.548 136.171Z" fill="#FF4D4D" fill-opacity="0.25" stroke="black" />
		<path d="M318.345 121.554L317.553 118.694L319.67 120.738L318.345 121.554Z" fill="#D9D9D9" fill-opacity="0.25" stroke="black" />
		<path d="M332.944 120.53L331.904 110.395L338.887 118.581L332.944 120.53Z" fill="#85DDC5" fill-opacity="0.25" stroke="black" />
		<path d="M329.177 105.354L319.456 100.178L326.091 94.0609L329.177 105.354Z" fill="#7926E2" fill-opacity="0.25" stroke="black" />
		<path d="M323.417 80.5053L311.779 82.8378L315.881 70.4089L323.417 80.5053Z" fill="#D9D9D9" fill-opacity="0.25" stroke="black" />
		<path d="M293.966 99.4225L288.251 82.146L299.899 96.2225L293.966 99.4225Z" fill="#D9D9D9" fill-opacity="0.25" stroke="black" />
		<path d="M279.523 81.2836L270.086 81.2238L274.66 72.8988L279.523 81.2836Z" fill="#3A93FC" fill-opacity="0.25" stroke="black" />
		<path d="M264.901 57.6146L262.974 71.2789L255.159 57.2854L264.901 57.6146Z" fill="#85DDC5" fill-opacity="0.25" stroke="black" />
		<path d="M259.244 83.5038L252.147 84.8003L254.538 77.1987L259.244 83.5038Z" fill="#FF4D4D" fill-opacity="0.25" stroke="black" />
		<path d="M220.041 68.8867L219.249 66.0263L221.366 68.0703L220.041 68.8867Z" fill="#D9D9D9" fill-opacity="0.25" stroke="black" />
		<path d="M234.64 67.8624L233.6 57.7274L240.583 65.9139L234.64 67.8624Z" fill="#85DDC5" fill-opacity="0.25" stroke="black" />
		<path d="M230.873 52.6872L221.152 47.5112L227.787 41.3937L230.873 52.6872Z" fill="#7926E2" fill-opacity="0.25" stroke="black" />
		<path d="M225.113 27.8383L213.475 30.1708L217.577 17.7419L225.113 27.8383Z" fill="#D9D9D9" fill-opacity="0.25" stroke="black" />
		<path d="M174.415 57.1013L174.886 55.628L177.275 56.9774L174.415 57.1013Z" fill="#D9D9D9" fill-opacity="0.25" stroke="black" />
		<path d="M199.672 59.2301L204.107 54.6951L210.551 59.4496L199.672 59.2301Z" fill="#85DDC5" fill-opacity="0.25" stroke="black" />
		<path d="M203.101 52.0416L190.672 48.1872L204.855 46.7745L203.101 52.0416Z" fill="#7926E2" fill-opacity="0.25" stroke="black" />
		<path d="M208.762 40.1209L188.099 39.0412L202.494 34.377L208.762 40.1209Z" fill="#D9D9D9" fill-opacity="0.25" stroke="black" />
		<path d="M167.95 50.5873L161.266 44.3592L174.889 49.4337L167.95 50.5873Z" fill="#D9D9D9" fill-opacity="0.25" stroke="black" />
		<path d="M150.886 43.9997L140.204 43.9788L145.382 41.0743L150.886 43.9997Z" fill="#3A93FC" fill-opacity="0.25" stroke="black" />
		<path d="M133.539 35.673L131.39 40.3685L122.679 35.5599L133.539 35.673Z" fill="#85DDC5" fill-opacity="0.25" stroke="black" />
		<path d="M126.838 44.8368L118.844 45.287L121.537 42.6477L126.838 44.8368Z" fill="#FF4D4D" fill-opacity="0.25" stroke="black" />
		<path d="M80.6089 39.4627L79.7609 38.5192L82.0268 39.1934L80.6089 39.4627Z" fill="#D9D9D9" fill-opacity="0.25" stroke="black" />
		<path d="M97.8833 39.0442L96.6962 35.4786L104.667 38.3587L97.8833 39.0442Z" fill="#85DDC5" fill-opacity="0.25" stroke="black" />
		<path d="M93.4351 33.4924L82.803 31.7473L90.0593 29.6848L93.4351 33.4924Z" fill="#7926E2" fill-opacity="0.25" stroke="black" />
		<path d="M86.4925 24.5536L73.1377 25.3786L77.8449 20.9823L86.4925 24.5536Z" fill="#D9D9D9" fill-opacity="0.25" stroke="black" />
		<path d="M51.7445 31.3963L45.0609 25.1682L58.6833 30.2427L51.7445 31.3963Z" fill="#D9D9D9" fill-opacity="0.25" stroke="black" />
		<path d="M34.6801 24.8087L23.9982 24.7878L29.1761 21.8834L34.6801 24.8087Z" fill="#3A93FC" fill-opacity="0.25" stroke="black" />
		<path d="M17.3336 16.4821L15.1848 21.1775L6.47326 16.3689L17.3336 16.4821Z" fill="#85DDC5" fill-opacity="0.25" stroke="black" />
		<path d="M10.633 25.6458L2.63894 26.096L5.33215 23.4567L10.633 25.6458Z" fill="#FF4D4D" fill-opacity="0.25" stroke="black" />
	</mask>
	<g mask="url(#mask0_525_10813)">
		<rect x="-39" y="-99" width="2219" height="804" fill="url(#paint0_linear_525_10813)" />
	</g>
	<defs>
		<linearGradient id="paint0_linear_525_10813" x1="2116.7" y1="400.855" x2="-425.105" y2="-44.0614" gradientUnits="userSpaceOnUse">
			<stop stop-color="#199EBB" />
			<stop offset="1" stop-color="#A68FFF" stop-opacity="0" />
		</linearGradient>
	</defs>
</svg>
