<svg width="1920" height="592" viewBox="0 0 1920 592" fill="none" xmlns="http://www.w3.org/2000/svg">
<mask id="mask0_525_11687" style="mask-type:alpha" maskUnits="userSpaceOnUse" x="-83" y="1" width="2050" height="487">
<path d="M1937.93 486.069L1924.85 446.767L1956.05 479.023L1937.93 486.069Z" fill="#D9D9D9" fill-opacity="0.5" stroke="black"/>
<path d="M1905.02 448.316L1877.39 447.866L1892.57 429.229L1905.02 448.316Z" fill="#3A93FC" stroke="black"/>
<path d="M1870.49 398.424L1862.07 428.647L1842.53 397.375L1870.49 398.424Z" fill="#85DDC5" stroke="black"/>
<path d="M1850.8 452.082L1829.26 454.832L1838.09 437.371L1850.8 452.082Z" fill="#FF4D4D" fill-opacity="0.5" stroke="black"/>
<path d="M1746.77 419.187L1743.14 402.788L1758.11 414.159L1746.77 419.187Z" fill="#D9D9D9" fill-opacity="0.5" stroke="black"/>
<path d="M1786.39 419.666L1785.5 396.243L1804.62 415.372L1786.39 419.666Z" fill="#85DDC5" stroke="black"/>
<path d="M1781.27 388.869L1754.11 376.954L1774.69 363.473L1781.27 388.869Z" fill="#7926E2" fill-opacity="0.5" stroke="black"/>
<path d="M1771.01 337.222L1737.21 341.987L1751.55 314.706L1771.01 337.222Z" fill="#D9D9D9" fill-opacity="0.5" stroke="black"/>
<path d="M1687.28 375.415L1674.19 336.113L1705.4 368.369L1687.28 375.415Z" fill="#D9D9D9" fill-opacity="0.5" stroke="black"/>
<path d="M1654.37 337.662L1626.73 337.212L1641.92 318.575L1654.37 337.662Z" fill="#3A93FC" stroke="black"/>
<path d="M1619.83 287.769L1611.41 317.992L1591.87 286.72L1619.83 287.769Z" fill="#85DDC5" fill-opacity="0.6" stroke="black"/>
<path d="M1600.15 341.428L1578.6 344.178L1587.43 326.717L1600.15 341.428Z" fill="#FF4D4D" fill-opacity="0.6" stroke="black"/>
<path d="M1496.82 309.418L1495.06 295.523L1508.46 304.26L1496.82 309.418Z" fill="#D9D9D9" fill-opacity="0.6" stroke="black"/>
<path d="M1535.74 309.012L1534.84 285.589L1553.96 304.718L1535.74 309.012Z" fill="#85DDC5" fill-opacity="0.6" stroke="black"/>
<path d="M1530.61 278.216L1503.45 266.301L1524.04 252.819L1530.61 278.216Z" fill="#7926E2" fill-opacity="0.4" stroke="black"/>
<path d="M1520.35 226.568L1486.55 231.334L1500.89 204.053L1520.35 226.568Z" fill="#D9D9D9" fill-opacity="0.6" stroke="black"/>
<path d="M1477.98 286.394L1457.17 262.07L1486.71 278.134L1477.98 286.394Z" fill="#D9D9D9" fill-opacity="0.6" stroke="black"/>
<path d="M1444.14 266.43L1427.11 271.409L1430.27 255.734L1444.14 266.43Z" fill="#3A93FC" fill-opacity="0.4" stroke="black"/>
<path d="M1405.75 238.217L1410.56 260.667L1388.22 242.874L1405.75 238.217Z" fill="#85DDC5" fill-opacity="0.4" stroke="black"/>
<path d="M1411.33 279.799L1399.15 285.763L1398.81 272.205L1411.33 279.799Z" fill="#FF4D4D" fill-opacity="0.4" stroke="black"/>
<path d="M1333.55 275.613L1321.94 261.638L1339.28 269.526L1333.55 275.613Z" fill="#D9D9D9" fill-opacity="0.4" stroke="black"/>
<path d="M1360.29 269.422L1352.12 253.663L1369.95 263.041L1360.29 269.422Z" fill="#85DDC5" fill-opacity="0.4" stroke="black"/>
<path d="M1346.24 248.757L1325.67 245.779L1333.85 232.56L1346.24 248.757Z" fill="#7926E2" fill-opacity="0.4" stroke="black"/>
<path d="M1322.36 214.527L1303.14 224.32L1302.96 202.752L1322.36 214.527Z" fill="#D9D9D9" fill-opacity="0.4" stroke="black"/>
<path d="M1282.98 257.721L1262.17 233.397L1291.7 249.462L1282.98 257.721Z" fill="#D9D9D9" fill-opacity="0.25" stroke="black"/>
<path d="M1249.14 237.758L1232.1 242.736L1235.26 227.062L1249.14 237.758Z" fill="#3A93FC" fill-opacity="0.25" stroke="black"/>
<path d="M1210.75 209.545L1215.55 231.994L1193.22 214.202L1210.75 209.545Z" fill="#85DDC5" fill-opacity="0.25" stroke="black"/>
<path d="M1216.32 251.126L1204.14 257.09L1203.81 243.532L1216.32 251.126Z" fill="#FF4D4D" fill-opacity="0.25" stroke="black"/>
<path d="M1141.5 249.612L1137.55 244.493L1143.85 247.113L1141.5 249.612Z" fill="#D9D9D9" fill-opacity="0.25" stroke="black"/>
<path d="M1165.29 240.75L1157.12 224.991L1174.95 234.369L1165.29 240.75Z" fill="#85DDC5" fill-opacity="0.25" stroke="black"/>
<path d="M1151.24 220.084L1130.66 217.106L1138.84 203.888L1151.24 220.084Z" fill="#7926E2" fill-opacity="0.25" stroke="black"/>
<path d="M1127.35 185.855L1108.14 195.647L1107.95 174.079L1127.35 185.855Z" fill="#D9D9D9" fill-opacity="0.25" stroke="black"/>
<path d="M1028.31 249.073L1026 240.281L1033.82 246.634L1028.31 249.073Z" fill="#D9D9D9" fill-opacity="0.25" stroke="black"/>
<path d="M1067.04 247.279L1066.15 223.856L1085.27 242.985L1067.04 247.279Z" fill="#85DDC5" fill-opacity="0.25" stroke="black"/>
<path d="M1061.92 216.483L1034.76 204.568L1055.34 191.086L1061.92 216.483Z" fill="#7926E2" fill-opacity="0.25" stroke="black"/>
<path d="M1051.66 164.835L1017.85 169.601L1032.2 142.32L1051.66 164.835Z" fill="#D9D9D9" fill-opacity="0.25" stroke="black"/>
<path d="M1009.29 224.661L988.482 200.337L1018.02 216.401L1009.29 224.661Z" fill="#D9D9D9" fill-opacity="0.25" stroke="black"/>
<path d="M975.451 204.697L958.415 209.676L961.577 194.001L975.451 204.697Z" fill="#3A93FC" fill-opacity="0.25" stroke="black"/>
<path d="M937.062 176.485L941.866 198.934L919.53 181.142L937.062 176.485Z" fill="#85DDC5" fill-opacity="0.25" stroke="black"/>
<path d="M942.635 218.066L930.457 224.03L930.122 210.472L942.635 218.066Z" fill="#FF4D4D" fill-opacity="0.25" stroke="black"/>
<path d="M867.808 216.551L863.861 211.432L870.158 214.053L867.808 216.551Z" fill="#D9D9D9" fill-opacity="0.25" stroke="black"/>
<path d="M891.602 207.69L883.427 191.931L901.26 201.309L891.602 207.69Z" fill="#85DDC5" fill-opacity="0.25" stroke="black"/>
<path d="M877.55 187.024L856.974 184.046L865.157 170.827L877.55 187.024Z" fill="#7926E2" fill-opacity="0.25" stroke="black"/>
<path d="M853.667 152.795L834.453 162.587L834.264 141.019L853.667 152.795Z" fill="#D9D9D9" fill-opacity="0.25" stroke="black"/>
<path d="M814.284 195.988L793.476 171.664L823.009 187.729L814.284 195.988Z" fill="#D9D9D9" fill-opacity="0.25" stroke="black"/>
<path d="M780.446 176.025L763.409 181.004L766.572 165.329L780.446 176.025Z" fill="#3A93FC" fill-opacity="0.25" stroke="black"/>
<path d="M742.057 147.812L746.861 170.261L724.525 152.469L742.057 147.812Z" fill="#85DDC5" fill-opacity="0.25" stroke="black"/>
<path d="M747.63 189.393L735.452 195.357L735.117 181.799L747.63 189.393Z" fill="#FF4D4D" fill-opacity="0.25" stroke="black"/>
<path d="M672.802 187.879L668.856 182.76L675.152 185.38L672.802 187.879Z" fill="#D9D9D9" fill-opacity="0.25" stroke="black"/>
<path d="M696.597 179.017L688.422 163.258L706.255 172.636L696.597 179.017Z" fill="#85DDC5" fill-opacity="0.25" stroke="black"/>
<path d="M682.545 158.351L661.969 155.373L670.151 142.155L682.545 158.351Z" fill="#7926E2" fill-opacity="0.25" stroke="black"/>
<path d="M658.662 124.122L639.448 133.914L639.259 112.346L658.662 124.122Z" fill="#D9D9D9" fill-opacity="0.25" stroke="black"/>
<path d="M572.548 198.594L573.343 192.26L577.374 198.061L572.548 198.594Z" fill="#D9D9D9" fill-opacity="0.25" stroke="black"/>
<path d="M603.831 205.509L610.124 189.116L619.267 206.303L603.831 205.509Z" fill="#85DDC5" fill-opacity="0.25" stroke="black"/>
<path d="M608.935 182.61L591.367 168.73L611.414 163.643L608.935 182.61Z" fill="#7926E2" fill-opacity="0.25" stroke="black"/>
<path d="M616.465 144.038L588.654 140.336L608.029 124.342L616.465 144.038Z" fill="#D9D9D9" fill-opacity="0.25" stroke="black"/>
<path d="M564.827 177.345L555.931 156.226L574.062 173.433L564.827 177.345Z" fill="#D9D9D9" fill-opacity="0.25" stroke="black"/>
<path d="M543.899 156.156L529.275 156.083L536.364 145.953L543.899 156.156Z" fill="#3A93FC" fill-opacity="0.25" stroke="black"/>
<path d="M522.12 128.375L519.151 144.904L507.114 127.976L522.12 128.375Z" fill="#85DDC5" fill-opacity="0.25" stroke="black"/>
<path d="M513.801 158.707L502.705 160.298L506.443 150.965L513.801 158.707Z" fill="#FF4D4D" fill-opacity="0.25" stroke="black"/>
<path d="M455.187 141.792L453.749 137.718L457.59 140.629L455.187 141.792Z" fill="#D9D9D9" fill-opacity="0.25" stroke="black"/>
<path d="M476.774 140.555L475.14 128.049L486.112 138.151L476.774 140.555Z" fill="#85DDC5" fill-opacity="0.25" stroke="black"/>
<path d="M471.731 122.981L456.707 116.698L466.961 109.273L471.731 122.981Z" fill="#7926E2" fill-opacity="0.25" stroke="black"/>
<path d="M463.174 93.8641L445.341 96.6709L451.627 81.7144L463.174 93.8641Z" fill="#D9D9D9" fill-opacity="0.25" stroke="black"/>
<path d="M419.023 115.999L410.127 94.8799L428.258 112.087L419.023 115.999Z" fill="#D9D9D9" fill-opacity="0.25" stroke="black"/>
<path d="M398.094 94.8101L383.471 94.7374L390.559 84.6072L398.094 94.8101Z" fill="#3A93FC" fill-opacity="0.25" stroke="black"/>
<path d="M376.315 67.0288L373.346 83.5579L361.309 66.6305L376.315 67.0288Z" fill="#85DDC5" fill-opacity="0.25" stroke="black"/>
<path d="M367.997 97.3606L356.901 98.9525L360.639 89.619L367.997 97.3606Z" fill="#FF4D4D" fill-opacity="0.25" stroke="black"/>
<path d="M309.382 80.4459L307.945 76.3717L311.786 79.283L309.382 80.4459Z" fill="#D9D9D9" fill-opacity="0.25" stroke="black"/>
<path d="M330.97 79.209L329.335 66.7032L340.308 76.8047L330.97 79.209Z" fill="#85DDC5" fill-opacity="0.25" stroke="black"/>
<path d="M325.927 61.6349L310.903 55.3523L321.157 47.9269L325.927 61.6349Z" fill="#7926E2" fill-opacity="0.25" stroke="black"/>
<path d="M317.37 32.5185L299.537 35.3253L305.822 20.3688L317.37 32.5185Z" fill="#D9D9D9" fill-opacity="0.25" stroke="black"/>
<path d="M241.539 66.6277L242.37 64.5862L246.586 66.4561L241.539 66.6277Z" fill="#D9D9D9" fill-opacity="0.25" stroke="black"/>
<path d="M278.955 69.0713L285.845 63.5392L295.854 69.339L278.955 69.0713Z" fill="#85DDC5" fill-opacity="0.25" stroke="black"/>
<path d="M284.582 60.7692L265.337 56.0824L287.297 54.3645L284.582 60.7692Z" fill="#7926E2" fill-opacity="0.25" stroke="black"/>
<path d="M293.224 46.8494L261.326 45.5404L283.548 39.8859L293.224 46.8494Z" fill="#D9D9D9" fill-opacity="0.25" stroke="black"/>
<path d="M232.143 59.0465L221.635 51.3562L243.054 57.6221L232.143 59.0465Z" fill="#D9D9D9" fill-opacity="0.25" stroke="black"/>
<path d="M207.479 51.338L190.505 51.312L198.733 47.6876L207.479 51.338Z" fill="#3A93FC" fill-opacity="0.25" stroke="black"/>
<path d="M181.562 41.4511L178.205 47.2111L164.597 41.3124L181.562 41.4511Z" fill="#85DDC5" fill-opacity="0.25" stroke="black"/>
<path d="M171.859 52.2873L158.95 52.8582L163.299 49.511L171.859 52.2873Z" fill="#FF4D4D" fill-opacity="0.25" stroke="black"/>
<path d="M102.575 46.0956L100.912 44.6423L105.356 45.6808L102.575 46.0956Z" fill="#D9D9D9" fill-opacity="0.25" stroke="black"/>
<path d="M128.115 45.6026L126.216 41.1239L138.964 44.7415L128.115 45.6026Z" fill="#85DDC5" fill-opacity="0.25" stroke="black"/>
<path d="M122.155 39.1595L105.308 36.9879L116.806 34.4214L122.155 39.1595Z" fill="#7926E2" fill-opacity="0.25" stroke="black"/>
<path d="M112.014 28.6599L91.145 29.6723L98.5006 24.2773L112.014 28.6599Z" fill="#D9D9D9" fill-opacity="0.25" stroke="black"/>
<path d="M59.7877 36.6932L49.2788 29.0029L70.6978 35.2688L59.7877 36.6932Z" fill="#D9D9D9" fill-opacity="0.25" stroke="black"/>
<path d="M35.1231 28.9848L18.1496 28.9587L26.3773 25.3343L35.1231 28.9848Z" fill="#3A93FC" fill-opacity="0.25" stroke="black"/>
<path d="M9.206 19.0978L5.84947 24.8577L-7.75853 18.959L9.206 19.0978Z" fill="#85DDC5" fill-opacity="0.25" stroke="black"/>
<path d="M-0.495313 29.934L-13.4051 30.5049L-9.0558 27.1577L-0.495313 29.934Z" fill="#FF4D4D" fill-opacity="0.25" stroke="black"/>
</mask>
<g mask="url(#mask0_525_11687)">
<rect x="-80" y="-99" width="2219" height="804" fill="url(#paint0_linear_525_11687)"/>
</g>
<defs>
<linearGradient id="paint0_linear_525_11687" x1="2075.7" y1="400.855" x2="-466.105" y2="-44.0614" gradientUnits="userSpaceOnUse">
<stop stop-color="#199EBB"/>
<stop offset="1" stop-color="#A68FFF" stop-opacity="0"/>
</linearGradient>
</defs>
</svg>
