<svg width="44" height="67" viewBox="0 0 44 67" fill="none" xmlns="http://www.w3.org/2000/svg">
<path d="M14.8732 57.6382C13.5278 57.6382 12.3836 58.0482 11.4357 58.8701C10.4872 59.6921 10.0139 60.6905 10.0153 61.8606C10.0169 63.1855 10.4982 64.2232 11.4578 64.9793C12.4209 65.7347 13.5379 66.1128 14.8187 66.1128C16.1213 66.1128 17.2557 65.7402 18.2261 64.9929C19.1965 64.2477 19.6782 63.2045 19.6766 61.8613C19.6752 60.6905 19.2108 59.6927 18.2827 58.8708C17.3525 58.0482 16.2172 57.6382 14.8732 57.6382ZM28.5514 28.5454C27.3168 26.7332 25.55 25.2801 23.2966 24.2321C21.0594 23.1889 18.4536 22.6636 15.5467 22.6636C12.4194 22.6636 9.63741 23.2955 7.28079 24.5437C4.91925 25.7912 3.09994 27.393 1.86562 29.3083C0.622878 31.2298 -0.00224536 33.1614 6.05969e-06 35.051C0.00121102 36.0623 0.434653 37.0037 1.28837 37.8501C2.14631 38.7012 3.21358 39.1328 4.45861 39.1328C6.5781 39.1328 8.02943 37.9247 8.76422 35.5621C9.43353 33.6026 10.2592 32.1114 11.2153 31.1225C12.1153 30.1913 13.5759 29.7203 15.5558 29.7203C17.2633 29.7203 18.6106 30.1832 19.6807 31.1361C20.7345 32.0782 21.2475 33.2022 21.2491 34.5691C21.2563 35.231 21.0845 35.8831 20.751 36.4607C20.3964 37.0775 19.955 37.6435 19.4392 38.1426C18.8924 38.672 17.9908 39.4708 16.7582 40.5134C15.3224 41.7317 14.1635 42.802 13.3175 43.685C12.4229 44.6305 11.7047 45.719 11.1948 46.9022C10.6622 48.1266 10.3937 49.5845 10.3957 51.2372C10.3974 52.6496 10.8057 53.7431 11.6116 54.4883C12.409 55.2281 13.4012 55.6034 14.5627 55.6034C16.7832 55.6034 18.1763 54.4299 18.5878 52.2349C18.8015 51.322 18.9572 50.684 19.0627 50.3196C19.1585 49.9897 19.2971 49.6517 19.4756 49.3137C19.6486 48.9866 19.9233 48.6139 20.2912 48.204C20.676 47.7757 21.1997 47.2701 21.8383 46.706C24.2284 44.6387 25.9138 43.1407 26.8489 42.2543C27.8136 41.3387 28.6544 40.2426 29.3513 38.9923C30.0628 37.7096 30.4238 36.2035 30.4218 34.5141C30.4178 32.3734 29.788 30.3671 28.5471 28.5475" fill="#48CCA8" fill-opacity="0.25"/>
<path d="M27.2581 37.356C25.8121 37.356 24.5817 37.7926 23.5619 38.6678C22.5413 39.5431 22.0313 40.6062 22.0313 41.8523C22.0313 43.2631 22.5473 44.3682 23.5777 45.1733C24.6119 45.9777 25.8121 46.3803 27.1888 46.3803C28.5888 46.3803 29.8086 45.9835 30.8526 45.1878C31.8966 44.3942 32.4156 43.2833 32.4156 41.853C32.4156 40.6063 31.9177 39.5438 30.9212 38.6686C29.9225 37.7926 28.7027 37.356 27.2581 37.356ZM41.9972 6.37614C40.6726 4.4464 38.7754 2.89899 36.3548 1.78307C33.9514 0.672201 31.1513 0.112793 28.0268 0.112793C24.6655 0.112793 21.6745 0.785672 19.1399 2.11481C16.6001 3.44322 14.6425 5.14891 13.3134 7.18851C11.9752 9.23461 11.3008 11.2916 11.3008 13.3037C11.3008 14.3806 11.7655 15.383 12.682 16.2843C13.6031 17.1906 14.7497 17.6503 16.0879 17.6503C18.366 17.6503 19.9275 16.3638 20.7203 13.8479C21.4422 11.7613 22.3315 10.1735 23.3605 9.12041C24.329 8.1288 25.8996 7.62721 28.0276 7.62721C29.8629 7.62721 31.3105 8.12013 32.4593 9.13487C33.5908 10.138 34.1408 11.3349 34.1408 12.7905C34.1476 13.4954 33.9622 14.1897 33.6029 14.8048C33.2211 15.4616 32.7458 16.0644 32.1908 16.5958C31.6024 17.1595 30.6323 18.0102 29.3062 19.1204C27.7613 20.4177 26.5144 21.5575 25.6039 22.4978C24.6411 23.5046 23.8678 24.6637 23.3182 25.9236C22.7442 27.2274 22.4537 28.7799 22.4537 30.5398C22.4537 32.0438 22.8913 33.2082 23.7565 34.0018C24.6127 34.7896 25.6786 35.1892 26.927 35.1892C29.3137 35.1892 30.8126 33.9396 31.2577 31.6022C31.4885 30.6301 31.6567 29.9508 31.7706 29.5626C31.874 29.2114 32.0233 28.8515 32.2157 28.4915C32.402 28.1432 32.6977 27.7464 33.0937 27.3098C33.5079 26.8538 34.0714 26.3153 34.7586 25.7147C37.3301 23.5132 39.1436 21.9181 40.1498 20.9742C41.1878 19.9992 42.093 18.832 42.8436 17.5007C43.61 16.1347 44 14.5309 44 12.732C43.9985 10.4524 43.3241 8.31599 41.9927 6.3783" fill="#48CCA8"/>
</svg>
