<svg width="24" height="24" viewBox="0 0 24 24" fill="none" xmlns="http://www.w3.org/2000/svg">
<path d="M15.3866 0.147868C15.7095 0.332592 15.962 0.674414 16.0887 1.09818C16.2154 1.52194 16.2058 1.99296 16.0621 2.40766L8.9512 22.9513C8.88245 23.1613 8.78174 23.3517 8.65496 23.5111C8.52818 23.6705 8.3779 23.7959 8.2129 23.8797C8.04791 23.9636 7.87154 24.0044 7.69412 23.9996C7.5167 23.9949 7.34181 23.9447 7.1797 23.852C7.01759 23.7593 6.87152 23.626 6.75005 23.4599C6.62858 23.2938 6.53415 23.0982 6.47231 22.8846C6.41047 22.6711 6.38246 22.4438 6.38991 22.2161C6.39736 21.9885 6.44014 21.765 6.51572 21.5589L13.6266 1.01526C13.7705 0.600642 14.0367 0.276352 14.3667 0.113695C14.6968 -0.0489627 15.0636 -0.0366706 15.3866 0.147868V0.147868ZM5.77441 5.5691C6.03844 5.87046 6.19853 6.29405 6.21953 6.74685C6.24053 7.19965 6.12072 7.64464 5.8864 7.98411L3.11671 11.9833L5.8864 15.9824C6.1212 16.322 6.24131 16.7675 6.22031 17.2208C6.1993 17.6742 6.03891 18.0982 5.77441 18.3997C5.64344 18.549 5.49086 18.6637 5.32537 18.7372C5.15988 18.8108 4.98472 18.8418 4.80991 18.8284C4.45685 18.8015 4.12659 18.5955 3.8918 18.2559L0.336347 13.12C0.119671 12.8067 0 12.4023 0 11.9833C0 11.5643 0.119671 11.1598 0.336347 10.8465L3.8918 5.71062C4.00821 5.5419 4.14942 5.40437 4.30733 5.3059C4.46524 5.20744 4.63674 5.14998 4.81199 5.13683C4.98723 5.12368 5.16278 5.1551 5.32855 5.22928C5.49431 5.30346 5.64704 5.41894 5.77796 5.5691H5.77441ZM18.2256 5.5691C18.3564 5.41964 18.5089 5.30474 18.6744 5.23096C18.8398 5.15718 19.0149 5.12597 19.1897 5.13912C19.3646 5.15226 19.5356 5.20949 19.6932 5.30755C19.8508 5.40561 19.9918 5.54257 20.1082 5.71062L23.6637 10.8465C23.8803 11.1598 24 11.5643 24 11.9833C24 12.4023 23.8803 12.8067 23.6637 13.12L20.1082 18.2559C19.8734 18.5955 19.5432 18.8015 19.1901 18.8284C18.837 18.8554 18.4901 18.7012 18.2256 18.3997C17.9611 18.0982 17.8007 17.6742 17.7797 17.2208C17.7587 16.7675 17.8788 16.322 18.1136 15.9824L20.8815 11.9833L18.1154 7.98411C17.8811 7.64464 17.7612 7.19965 17.7822 6.74685C17.8032 6.29405 17.9633 5.87046 18.2274 5.5691H18.2256Z" fill="white"/>
</svg>
