<svg width="24" height="24" viewBox="0 0 24 24" fill="none" xmlns="http://www.w3.org/2000/svg">
<path fill-rule="evenodd" clip-rule="evenodd" d="M12 20C9.67704 20 7.52226 19.3781 5.74668 18.3166C5.36802 16.5639 5.16065 14.4496 5.16065 12C5.16065 7.46369 5.87176 4.07748 7.06495 2.00742C8.54911 1.36289 10.2255 1 12 1C13.7745 1 15.4509 1.36289 16.9351 2.00742C18.1282 4.07748 18.8393 7.46369 18.8393 12C18.8393 14.4496 18.632 16.5639 18.2533 18.3166C16.4777 19.3781 14.323 20 12 20ZM1 10.5C1 7.36177 2.76194 4.57895 5.47809 2.84911C4.54374 4.94598 4 8.03328 4 12C4 14.0246 4.14164 15.8201 4.40457 17.3717C2.30684 15.6418 1 13.2027 1 10.5ZM19.5954 17.3717C21.6932 15.6418 23 13.2027 23 10.5C23 7.36177 21.2381 4.57895 18.5219 2.84912C19.4563 4.94598 20 8.03328 20 12C20 14.0246 19.8584 15.8201 19.5954 17.3717ZM16 13C17.1046 13 18 11.6569 18 10C18 8.34315 17.1046 7 16 7C14.8954 7 14 8.34315 14 10C14 11.6569 14.8954 13 16 13ZM10 10C10 11.6569 9.10457 13 8 13C6.89543 13 6 11.6569 6 10C6 8.34315 6.89543 7 8 7C9.10457 7 10 8.34315 10 10ZM11 14C10.4477 14 10 14.4477 10 15C10 15.5523 10.4477 16 11 16H13C13.5523 16 14 15.5523 14 15C14 14.4477 13.5523 14 13 14H11Z" fill="white"/>
<path d="M4.44541 12C4.44541 18.6274 5.6842 22.8 7.57894 24C3.3932 24 0 18.6274 0 12C0 5.37258 3.81427 0 8 0C6.10527 1.2 4.44541 5.37258 4.44541 12Z" fill="white"/>
<path d="M19.5546 12C19.5546 18.6274 18.3158 22.8 16.4211 24C20.6068 24 24 18.6274 24 12C24 5.37258 20.1857 0 16 0C17.8947 1.2 19.5546 5.37258 19.5546 12Z" fill="white"/>
</svg>
