<svg width="24" height="24" viewBox="0 0 24 24" fill="none" xmlns="http://www.w3.org/2000/svg">
<path d="M11.1421 4.28566C10.1821 4.28566 9.28562 4.54794 8.51939 5.00566C8.43679 4.12656 8.15543 3.27774 7.69659 2.52337C8.8079 1.96831 10.0368 1.68986 11.2788 1.71171C12.5208 1.73357 13.7392 2.05507 14.8303 2.64888C15.9214 3.24269 16.8529 4.09125 17.5457 5.12238C18.2385 6.15351 18.6721 7.33672 18.8095 8.57138H21.0002C22.6561 8.57138 24 9.91539 24 11.5714V19.2857C24 19.6798 23.9223 20.0701 23.7715 20.4342C23.6206 20.7982 23.3995 21.129 23.1208 21.4076C22.842 21.6862 22.5111 21.9072 22.147 22.0578C21.7828 22.2085 21.3926 22.2859 20.9985 22.2857H13.2848C12.4892 22.2857 11.7262 21.9696 11.1636 21.407C10.601 20.8444 10.285 20.0814 10.285 19.2857V17.0966C9.69073 17.0306 9.10623 16.8954 8.54339 16.6937C8.56053 16.2891 8.57082 15.8674 8.57082 15.4285V15.2914C8.57082 14.88 8.57082 14.3948 8.55367 13.8737C9.08788 14.1866 9.67452 14.3998 10.285 14.5028V11.5714C10.285 9.91539 11.6289 8.57138 13.2848 8.57138H16.2143C16.0117 7.37274 15.3911 6.28461 14.4625 5.50006C13.534 4.71552 12.3576 4.28527 11.1421 4.28566ZM18.6655 11.1428C18.3416 12.5596 17.6247 13.8563 16.5971 14.884C15.5695 15.9116 14.2729 16.6286 12.8562 16.9526V19.2857C12.8562 19.5223 13.0482 19.7143 13.2848 19.7143H20.9985C21.1122 19.7143 21.2212 19.6691 21.3015 19.5887C21.3819 19.5084 21.427 19.3994 21.427 19.2857V11.5714C21.427 11.4577 21.3819 11.3487 21.3015 11.2683C21.2212 11.188 21.1122 11.1428 20.9985 11.1428H18.6655ZM15.9914 11.1428H13.2848C13.1711 11.1428 13.0621 11.188 12.9817 11.2683C12.9014 11.3487 12.8562 11.4577 12.8562 11.5714V14.28C13.5796 14.0235 14.2366 13.6088 14.7793 13.066C15.322 12.5233 15.7367 11.8662 15.9931 11.1428H15.9914ZM4.42426 0.214218C4.56654 0.338678 4.66368 0.506688 4.70058 0.692097C4.73747 0.877505 4.71204 1.06991 4.62824 1.23936C4.61373 1.28952 4.60623 1.34144 4.60596 1.39365C4.60596 1.50165 4.63338 1.70736 4.89222 1.96451C5.01736 2.08965 5.11335 2.17879 5.21791 2.27651C5.30362 2.35537 5.39447 2.43765 5.50932 2.5508C5.73216 2.76337 5.967 3.01365 6.17784 3.32737C6.61496 3.98394 6.85665 4.80509 6.85665 5.99995C6.85665 7.42624 6.3424 8.6451 5.53332 9.41482C6.03385 9.92225 6.32526 10.5857 6.50525 11.2491C6.85665 12.5383 6.85665 14.1325 6.85665 15.3651V15.4285C6.85665 18.9566 6.1967 21.0514 5.44932 22.2977C5.16698 22.7884 4.79618 23.2226 4.35569 23.5783C4.18123 23.7144 3.99137 23.8294 3.79001 23.9211C3.79001 23.9211 3.57232 24 3.42833 24C3.30475 23.9902 3.18308 23.9637 3.06664 23.9211C2.86528 23.8294 2.67542 23.7144 2.50096 23.5783C2.06047 23.2226 1.68967 22.7884 1.40733 22.2977C0.659953 21.0531 0 18.9566 0 15.4285V15.3668C0 14.1325 7.66291e-08 12.54 0.351404 11.2474C0.531391 10.5857 0.822798 9.92225 1.32333 9.4131C0.514249 8.64681 0 7.42624 0 5.99995C0 5.44109 0.149132 4.77423 0.354832 4.1588C0.560531 3.54166 0.848511 2.90394 1.18106 2.38965C1.57703 1.72108 2.13413 1.16051 2.5661 0.783362C2.80293 0.575069 3.05008 0.378821 3.30662 0.19536L3.35805 0.161075L3.37347 0.149075L3.37862 0.145646L3.38204 0.143932C3.53923 0.0391485 3.72662 -0.0107676 3.91509 0.00194296C4.10357 0.0146535 4.28256 0.0892786 4.42426 0.214218Z" fill="white"/>
</svg>
