<svg width="24" height="24" viewBox="0 0 24 24" xmlns="http://www.w3.org/2000/svg">
<path d="M24 6.22708V19.3846C24 20.6087 23.6049 21.7826 22.9017 22.6482C22.1984 23.5137 21.2446 24 20.25 24H3.75C2.75544 24 1.80161 23.5137 1.09835 22.6482C0.395088 21.7826 0 20.6087 0 19.3846V6.22708L11.619 14.6418C11.7344 14.7256 11.866 14.7698 12 14.7698C12.134 14.7698 12.2656 14.7256 12.381 14.6418L24 6.22708ZM20.25 5.71434e-08C21.1727 -0.000178553 22.0631 0.418351 22.7508 1.17552C23.4385 1.93269 23.8753 2.97534 23.9775 4.104L12 12.7754L0.0225002 4.104C0.124737 2.97534 0.561486 1.93269 1.24919 1.17552C1.9369 0.418351 2.82728 -0.000178553 3.75 5.71434e-08H20.25Z"/>
</svg>
