<svg width="390" height="311" viewBox="0 0 390 311" fill="none" xmlns="http://www.w3.org/2000/svg">
<path d="M356.995 138.301C356.264 221.824 275.408 272.635 193.725 271.993C112.818 271.356 33.811 221.031 33.0061 138.301C32.193 54.7277 112.63 2.32291 194.363 2.00003C276.481 1.67562 357.73 54.3336 356.995 138.301Z" fill="#5772FF"/>
<mask id="mask0_714_2775" style="mask-type:alpha" maskUnits="userSpaceOnUse" x="33" y="1" width="324" height="271">
<path d="M356.995 138.301C356.264 221.824 275.408 272.635 193.725 271.993C112.818 271.356 33.811 221.031 33.0061 138.301C32.193 54.7277 112.63 2.32291 194.363 2.00003C276.481 1.67562 357.73 54.3336 356.995 138.301Z" fill="#DDDDDD"/>
</mask>
<g mask="url(#mask0_714_2775)">
<path fill-rule="evenodd" clip-rule="evenodd" d="M334.501 70.9693C291.213 22.2042 222.254 -2.39962 159.479 11.0399C93.0358 25.2647 46.4526 66.9323 34.711 126.546C41.0076 45.5222 122.53 -0.712354 202.464 3.47231C255.236 6.23499 306.402 31.093 334.501 70.9693Z" fill="#AEBBFF"/>
<ellipse cx="166.994" cy="12.9467" rx="29.5" ry="5.5" transform="rotate(-8.79965 166.994 12.9467)" fill="#AEBBFF"/>
</g>
<mask id="mask1_714_2775" style="mask-type:alpha" maskUnits="userSpaceOnUse" x="33" y="1" width="324" height="271">
<path d="M356.995 138.301C356.264 221.824 275.408 272.635 193.725 271.993C112.818 271.356 33.811 221.031 33.0061 138.301C32.193 54.7277 112.63 2.32291 194.363 2.00003C276.481 1.67562 357.73 54.3336 356.995 138.301Z" fill="#DDDDDD"/>
</mask>
<g mask="url(#mask1_714_2775)">
<path fill-rule="evenodd" clip-rule="evenodd" d="M187.732 233.779C269.415 234.422 338.776 183.611 339.507 100.087C339.725 75.1985 333.75 53.0606 323.095 34.2378C344.228 58.4076 357.294 89.5686 356.995 126.203C356.253 217.151 274.148 272.479 191.205 271.779C109.05 271.085 28.8235 216.287 28.0062 126.203C27.7751 100.729 34.0089 77.9144 44.9269 58.2589C40.9422 71.1192 38.8614 85.1022 39.0072 100.087C39.3628 136.644 49.3022 177.874 71 200.285C92.6978 222.696 142.577 233.424 187.732 233.779ZM44.9269 58.2589C63.1656 -0.604134 121.292 -35.9484 188.37 -36.2134C246.147 -36.4416 297.804 -10.4416 323.095 34.2378C291.485 -1.91447 241.828 -22.4249 191.853 -22.2132C132.091 -21.9601 73.0117 7.6981 44.9269 58.2589Z" fill="#3749A4"/>
<path d="M71.2749 152.378C71.2749 235.789 140 279.678 140 303.525C140 327.371 15 235.789 15 152.378C15 68.967 140 -20.8895 140 1.46676C140 23.823 71.2749 68.967 71.2749 152.378Z" fill="#3749A4"/>
<path d="M317.725 152.378C317.725 235.789 249 279.678 249 303.525C249 327.371 374 235.789 374 152.378C374 68.967 249 -20.8895 249 1.46676C249 23.823 317.725 68.967 317.725 152.378Z" fill="#3749A4"/>
</g>
<path d="M356.995 138.301C356.264 221.824 275.408 272.635 193.725 271.993C112.818 271.356 33.811 221.031 33.0061 138.301C32.193 54.7277 112.63 2.32291 194.363 2.00003C276.481 1.67562 357.73 54.3336 356.995 138.301Z" stroke="#061568" stroke-width="2"/>
<path d="M311.996 136.867C311.466 192.549 252.82 226.423 193.575 225.995C134.893 225.57 77.5882 192.02 77.0044 136.867C76.4147 81.1513 134.756 46.2148 194.038 45.9995C253.599 45.7833 312.53 80.8885 311.996 136.867Z" fill="url(#paint0_radial_714_2775)"/>
<path d="M311.996 136.867C311.466 192.549 252.82 226.423 193.575 225.995C134.893 225.57 77.5882 192.02 77.0044 136.867C76.4147 81.1513 134.756 46.2148 194.038 45.9995C253.599 45.7833 312.53 80.8885 311.996 136.867Z" fill="url(#paint1_radial_714_2775)"/>
<rect x="164" y="175" width="5" height="5" rx="1" fill="#48CCA8"/>
<rect x="164" y="181" width="5" height="5" rx="1" fill="#48CCA8"/>
<rect x="164" y="187" width="5" height="5" rx="1" fill="#48CCA8"/>
<rect x="170" y="187" width="5" height="5" rx="1" fill="#48CCA8"/>
<rect x="170" y="181" width="5" height="5" rx="1" fill="#48CCA8"/>
<rect x="170" y="175" width="5" height="5" rx="1" fill="#48CCA8"/>
<rect x="170" y="169" width="5" height="5" rx="1" fill="#48CCA8"/>
<rect x="164" y="169" width="5" height="5" rx="1" fill="#48CCA8"/>
<rect x="158" y="169" width="5" height="5" rx="1" fill="#48CCA8"/>
<rect x="176" y="169" width="5" height="5" rx="1" fill="#48CCA8"/>
<rect x="176" y="175" width="5" height="5" rx="1" fill="#48CCA8"/>
<rect x="176" y="181" width="5" height="5" rx="1" fill="#48CCA8"/>
<rect x="176" y="187" width="5" height="5" rx="1" fill="#48CCA8"/>
<rect x="182" y="187" width="5" height="5" rx="1" fill="#48CCA8"/>
<rect x="182" y="181" width="5" height="5" rx="1" fill="#48CCA8"/>
<rect x="182" y="175" width="5" height="5" rx="1" fill="#48CCA8"/>
<rect x="182" y="169" width="5" height="5" rx="1" fill="#48CCA8"/>
<rect x="188" y="169" width="5" height="5" rx="1" fill="#48CCA8"/>
<rect x="194" y="169" width="5" height="5" rx="1" fill="#48CCA8"/>
<rect x="188" y="175" width="5" height="5" rx="1" fill="#48CCA8"/>
<rect x="188" y="181" width="5" height="5" rx="1" fill="#48CCA8"/>
<rect x="188" y="187" width="5" height="5" rx="1" fill="#48CCA8"/>
<rect x="134" y="175" width="5" height="5" rx="1" fill="#48CCA8"/>
<rect x="134" y="181" width="5" height="5" rx="1" fill="#48CCA8"/>
<rect x="140" y="187" width="5" height="5" rx="1" fill="#48CCA8"/>
<rect x="140" y="181" width="5" height="5" rx="1" fill="#48CCA8"/>
<rect x="140" y="175" width="5" height="5" rx="1" fill="#48CCA8"/>
<rect x="140" y="169" width="5" height="5" rx="1" fill="#48CCA8"/>
<rect x="146" y="169" width="5" height="5" rx="1" fill="#48CCA8"/>
<rect x="146" y="175" width="5" height="5" rx="1" fill="#48CCA8"/>
<rect x="146" y="181" width="5" height="5" rx="1" fill="#48CCA8"/>
<rect x="146" y="187" width="5" height="5" rx="1" fill="#48CCA8"/>
<rect x="152" y="187" width="5" height="5" rx="1" fill="#48CCA8"/>
<rect x="152" y="181" width="5" height="5" rx="1" fill="#48CCA8"/>
<rect x="152" y="175" width="5" height="5" rx="1" fill="#48CCA8"/>
<rect x="152" y="169" width="5" height="5" rx="1" fill="#48CCA8"/>
<rect x="158" y="175" width="5" height="5" rx="1" fill="#48CCA8"/>
<rect x="158" y="181" width="5" height="5" rx="1" fill="#48CCA8"/>
<rect x="158" y="187" width="5" height="5" rx="1" fill="#48CCA8"/>
<rect x="194" y="175" width="5" height="5" rx="1" fill="#48CCA8"/>
<rect x="194" y="181" width="5" height="5" rx="1" fill="#48CCA8"/>
<rect x="194" y="187" width="5" height="5" rx="1" fill="#48CCA8"/>
<rect x="200" y="187" width="5" height="5" rx="1" fill="#48CCA8"/>
<rect x="200" y="181" width="5" height="5" rx="1" fill="#48CCA8"/>
<rect x="200" y="175" width="5" height="5" rx="1" fill="#48CCA8"/>
<rect x="200" y="169" width="5" height="5" rx="1" fill="#48CCA8"/>
<rect x="206" y="169" width="5" height="5" rx="1" fill="#48CCA8"/>
<rect x="206" y="175" width="5" height="5" rx="1" fill="#48CCA8"/>
<rect x="206" y="181" width="5" height="5" rx="1" fill="#48CCA8"/>
<rect x="206" y="187" width="5" height="5" rx="1" fill="#48CCA8"/>
<rect x="212" y="187" width="5" height="5" rx="1" fill="#48CCA8"/>
<rect x="212" y="181" width="5" height="5" rx="1" fill="#48CCA8"/>
<rect x="212" y="175" width="5" height="5" rx="1" fill="#48CCA8"/>
<rect x="212" y="169" width="5" height="5" rx="1" fill="#48CCA8"/>
<rect x="218" y="169" width="5" height="5" rx="1" fill="#48CCA8"/>
<rect x="224" y="169" width="5" height="5" rx="1" fill="#48CCA8"/>
<rect x="218" y="175" width="5" height="5" rx="1" fill="#48CCA8"/>
<rect x="218" y="181" width="5" height="5" rx="1" fill="#48CCA8"/>
<rect x="218" y="187" width="5" height="5" rx="1" fill="#48CCA8"/>
<rect x="224" y="175" width="5" height="5" rx="1" fill="#48CCA8"/>
<rect x="224" y="181" width="5" height="5" rx="1" fill="#48CCA8"/>
<rect x="224" y="187" width="5" height="5" rx="1" fill="#48CCA8"/>
<rect x="230" y="187" width="5" height="5" rx="1" fill="#48CCA8"/>
<rect x="230" y="181" width="5" height="5" rx="1" fill="#48CCA8"/>
<rect x="230" y="175" width="5" height="5" rx="1" fill="#48CCA8"/>
<rect x="230" y="169" width="5" height="5" rx="1" fill="#48CCA8"/>
<rect x="236" y="169" width="5" height="5" rx="1" fill="#48CCA8"/>
<rect x="236" y="175" width="5" height="5" rx="1" fill="#48CCA8"/>
<rect x="236" y="181" width="5" height="5" rx="1" fill="#48CCA8"/>
<rect x="236" y="187" width="5" height="5" rx="1" fill="#48CCA8"/>
<rect x="242" y="187" width="5" height="5" rx="1" fill="#48CCA8"/>
<rect x="242" y="181" width="5" height="5" rx="1" fill="#48CCA8"/>
<rect x="242" y="175" width="5" height="5" rx="1" fill="#48CCA8"/>
<rect x="242" y="169" width="5" height="5" rx="1" fill="#48CCA8"/>
<rect x="248" y="175" width="5" height="5" rx="1" fill="#48CCA8"/>
<rect x="248" y="181" width="5" height="5" rx="1" fill="#48CCA8"/>
<rect x="165" y="130" width="5" height="5" rx="1" fill="#48CCA8"/>
<rect x="165" y="136" width="5" height="5" rx="1" fill="#48CCA8"/>
<rect x="165" y="142" width="5" height="5" rx="1" fill="#48CCA8"/>
<rect x="171" y="142" width="5" height="5" rx="1" fill="#48CCA8"/>
<rect x="171" y="136" width="5" height="5" rx="1" fill="#48CCA8"/>
<rect x="171" y="130" width="5" height="5" rx="1" fill="#48CCA8"/>
<rect x="171" y="124" width="5" height="5" rx="1" fill="#48CCA8"/>
<rect x="165" y="124" width="5" height="5" rx="1" fill="#48CCA8"/>
<rect x="159" y="124" width="5" height="5" rx="1" fill="#48CCA8"/>
<rect x="177" y="124" width="5" height="5" rx="1" fill="#48CCA8"/>
<rect x="177" y="130" width="5" height="5" rx="1" fill="#48CCA8"/>
<rect x="177" y="136" width="5" height="5" rx="1" fill="#48CCA8"/>
<rect x="177" y="142" width="5" height="5" rx="1" fill="#48CCA8"/>
<rect x="183" y="142" width="5" height="5" rx="1" fill="#48CCA8"/>
<rect x="183" y="136" width="5" height="5" rx="1" fill="#48CCA8"/>
<rect x="183" y="130" width="5" height="5" rx="1" fill="#48CCA8"/>
<rect x="183" y="124" width="5" height="5" rx="1" fill="#48CCA8"/>
<rect x="189" y="124" width="5" height="5" rx="1" fill="#48CCA8"/>
<rect x="195" y="124" width="5" height="5" rx="1" fill="#48CCA8"/>
<rect x="189" y="130" width="5" height="5" rx="1" fill="#48CCA8"/>
<rect x="189" y="136" width="5" height="5" rx="1" fill="#48CCA8"/>
<rect x="189" y="142" width="5" height="5" rx="1" fill="#48CCA8"/>
<rect x="135" y="130" width="5" height="5" rx="1" fill="#48CCA8"/>
<rect x="135" y="136" width="5" height="5" rx="1" fill="#48CCA8"/>
<rect x="141" y="142" width="5" height="5" rx="1" fill="#48CCA8"/>
<rect x="141" y="136" width="5" height="5" rx="1" fill="#48CCA8"/>
<rect x="141" y="130" width="5" height="5" rx="1" fill="#48CCA8"/>
<rect x="141" y="124" width="5" height="5" rx="1" fill="#48CCA8"/>
<rect x="147" y="124" width="5" height="5" rx="1" fill="#48CCA8"/>
<rect x="147" y="130" width="5" height="5" rx="1" fill="#48CCA8"/>
<rect x="147" y="136" width="5" height="5" rx="1" fill="#48CCA8"/>
<rect x="147" y="142" width="5" height="5" rx="1" fill="#48CCA8"/>
<rect x="153" y="142" width="5" height="5" rx="1" fill="#48CCA8"/>
<rect x="153" y="136" width="5" height="5" rx="1" fill="#48CCA8"/>
<rect x="153" y="130" width="5" height="5" rx="1" fill="#48CCA8"/>
<rect x="153" y="124" width="5" height="5" rx="1" fill="#48CCA8"/>
<rect x="159" y="130" width="5" height="5" rx="1" fill="#48CCA8"/>
<rect x="159" y="136" width="5" height="5" rx="1" fill="#48CCA8"/>
<rect x="159" y="142" width="5" height="5" rx="1" fill="#48CCA8"/>
<rect x="195" y="130" width="5" height="5" rx="1" fill="#48CCA8"/>
<rect x="195" y="136" width="5" height="5" rx="1" fill="#48CCA8"/>
<rect x="195" y="142" width="5" height="5" rx="1" fill="#48CCA8"/>
<rect x="201" y="142" width="5" height="5" rx="1" fill="#48CCA8"/>
<rect x="201" y="136" width="5" height="5" rx="1" fill="#48CCA8"/>
<rect x="201" y="130" width="5" height="5" rx="1" fill="#48CCA8"/>
<rect x="201" y="124" width="5" height="5" rx="1" fill="#48CCA8"/>
<rect x="207" y="124" width="5" height="5" rx="1" fill="#48CCA8"/>
<rect x="207" y="130" width="5" height="5" rx="1" fill="#48CCA8"/>
<rect x="207" y="136" width="5" height="5" rx="1" fill="#48CCA8"/>
<rect x="207" y="142" width="5" height="5" rx="1" fill="#48CCA8"/>
<rect x="213" y="142" width="5" height="5" rx="1" fill="#48CCA8"/>
<rect x="213" y="136" width="5" height="5" rx="1" fill="#48CCA8"/>
<rect x="213" y="130" width="5" height="5" rx="1" fill="#48CCA8"/>
<rect x="213" y="124" width="5" height="5" rx="1" fill="#48CCA8"/>
<rect x="219" y="124" width="5" height="5" rx="1" fill="#48CCA8"/>
<rect x="225" y="124" width="5" height="5" rx="1" fill="#48CCA8"/>
<rect x="219" y="130" width="5" height="5" rx="1" fill="#48CCA8"/>
<rect x="219" y="136" width="5" height="5" rx="1" fill="#48CCA8"/>
<rect x="219" y="142" width="5" height="5" rx="1" fill="#48CCA8"/>
<rect x="225" y="130" width="5" height="5" rx="1" fill="#48CCA8"/>
<rect x="225" y="136" width="5" height="5" rx="1" fill="#48CCA8"/>
<rect x="225" y="142" width="5" height="5" rx="1" fill="#48CCA8"/>
<rect x="231" y="142" width="5" height="5" rx="1" fill="#48CCA8"/>
<rect x="231" y="136" width="5" height="5" rx="1" fill="#48CCA8"/>
<rect x="231" y="130" width="5" height="5" rx="1" fill="#48CCA8"/>
<rect x="231" y="124" width="5" height="5" rx="1" fill="#48CCA8"/>
<rect x="237" y="124" width="5" height="5" rx="1" fill="#48CCA8"/>
<rect x="237" y="130" width="5" height="5" rx="1" fill="#48CCA8"/>
<rect x="237" y="136" width="5" height="5" rx="1" fill="#48CCA8"/>
<rect x="237" y="142" width="5" height="5" rx="1" fill="#48CCA8"/>
<rect x="243" y="142" width="5" height="5" rx="1" fill="#48CCA8"/>
<rect x="243" y="136" width="5" height="5" rx="1" fill="#48CCA8"/>
<rect x="243" y="130" width="5" height="5" rx="1" fill="#48CCA8"/>
<rect x="243" y="124" width="5" height="5" rx="1" fill="#48CCA8"/>
<rect x="249" y="130" width="5" height="5" rx="1" fill="#48CCA8"/>
<rect x="249" y="136" width="5" height="5" rx="1" fill="#48CCA8"/>
<rect x="164" y="85" width="5" height="5" rx="1" fill="#48CCA8"/>
<rect x="164" y="91" width="5" height="5" rx="1" fill="#48CCA8"/>
<rect x="164" y="97" width="5" height="5" rx="1" fill="#48CCA8"/>
<rect x="170" y="97" width="5" height="5" rx="1" fill="#48CCA8"/>
<rect x="170" y="91" width="5" height="5" rx="1" fill="#48CCA8"/>
<rect x="170" y="85" width="5" height="5" rx="1" fill="#48CCA8"/>
<rect x="170" y="79" width="5" height="5" rx="1" fill="#48CCA8"/>
<rect x="164" y="79" width="5" height="5" rx="1" fill="#48CCA8"/>
<rect x="158" y="79" width="5" height="5" rx="1" fill="#48CCA8"/>
<rect x="176" y="79" width="5" height="5" rx="1" fill="#48CCA8"/>
<rect x="176" y="85" width="5" height="5" rx="1" fill="#48CCA8"/>
<rect x="176" y="91" width="5" height="5" rx="1" fill="#48CCA8"/>
<rect x="176" y="97" width="5" height="5" rx="1" fill="#48CCA8"/>
<rect x="182" y="97" width="5" height="5" rx="1" fill="#48CCA8"/>
<rect x="182" y="91" width="5" height="5" rx="1" fill="#48CCA8"/>
<rect x="182" y="85" width="5" height="5" rx="1" fill="#48CCA8"/>
<rect x="182" y="79" width="5" height="5" rx="1" fill="#48CCA8"/>
<rect x="188" y="79" width="5" height="5" rx="1" fill="#48CCA8"/>
<rect x="194" y="79" width="5" height="5" rx="1" fill="#48CCA8"/>
<rect x="188" y="85" width="5" height="5" rx="1" fill="#48CCA8"/>
<rect x="188" y="91" width="5" height="5" rx="1" fill="#48CCA8"/>
<rect x="188" y="97" width="5" height="5" rx="1" fill="#48CCA8"/>
<rect x="134" y="85" width="5" height="5" rx="1" fill="#48CCA8"/>
<rect x="134" y="91" width="5" height="5" rx="1" fill="#48CCA8"/>
<rect x="140" y="97" width="5" height="5" rx="1" fill="#48CCA8"/>
<rect x="140" y="91" width="5" height="5" rx="1" fill="#48CCA8"/>
<rect x="140" y="85" width="5" height="5" rx="1" fill="#48CCA8"/>
<rect x="140" y="79" width="5" height="5" rx="1" fill="#48CCA8"/>
<rect x="146" y="79" width="5" height="5" rx="1" fill="#48CCA8"/>
<rect x="146" y="85" width="5" height="5" rx="1" fill="#48CCA8"/>
<rect x="146" y="91" width="5" height="5" rx="1" fill="#48CCA8"/>
<rect x="146" y="97" width="5" height="5" rx="1" fill="#48CCA8"/>
<rect x="152" y="97" width="5" height="5" rx="1" fill="#48CCA8"/>
<rect x="152" y="91" width="5" height="5" rx="1" fill="#48CCA8"/>
<rect x="152" y="85" width="5" height="5" rx="1" fill="#48CCA8"/>
<rect x="152" y="79" width="5" height="5" rx="1" fill="#48CCA8"/>
<rect x="158" y="85" width="5" height="5" rx="1" fill="#48CCA8"/>
<rect x="158" y="91" width="5" height="5" rx="1" fill="#48CCA8"/>
<rect x="158" y="97" width="5" height="5" rx="1" fill="#48CCA8"/>
<rect x="194" y="85" width="5" height="5" rx="1" fill="#48CCA8"/>
<rect x="194" y="91" width="5" height="5" rx="1" fill="#48CCA8"/>
<rect x="194" y="97" width="5" height="5" rx="1" fill="#48CCA8"/>
<rect x="200" y="97" width="5" height="5" rx="1" fill="#48CCA8"/>
<rect x="200" y="91" width="5" height="5" rx="1" fill="#48CCA8"/>
<rect x="200" y="85" width="5" height="5" rx="1" fill="#48CCA8"/>
<rect x="200" y="79" width="5" height="5" rx="1" fill="#48CCA8"/>
<rect x="206" y="79" width="5" height="5" rx="1" fill="#48CCA8"/>
<rect x="206" y="85" width="5" height="5" rx="1" fill="#48CCA8"/>
<rect x="206" y="91" width="5" height="5" rx="1" fill="#48CCA8"/>
<rect x="206" y="97" width="5" height="5" rx="1" fill="#48CCA8"/>
<rect x="212" y="97" width="5" height="5" rx="1" fill="#48CCA8"/>
<rect x="212" y="91" width="5" height="5" rx="1" fill="#48CCA8"/>
<rect x="212" y="85" width="5" height="5" rx="1" fill="#48CCA8"/>
<rect x="212" y="79" width="5" height="5" rx="1" fill="#48CCA8"/>
<rect x="218" y="79" width="5" height="5" rx="1" fill="#48CCA8"/>
<rect x="224" y="79" width="5" height="5" rx="1" fill="#48CCA8"/>
<rect x="218" y="85" width="5" height="5" rx="1" fill="#48CCA8"/>
<rect x="218" y="91" width="5" height="5" rx="1" fill="#48CCA8"/>
<rect x="218" y="97" width="5" height="5" rx="1" fill="#48CCA8"/>
<rect x="224" y="85" width="5" height="5" rx="1" fill="#48CCA8"/>
<rect x="224" y="91" width="5" height="5" rx="1" fill="#48CCA8"/>
<rect x="224" y="97" width="5" height="5" rx="1" fill="#48CCA8"/>
<rect x="230" y="97" width="5" height="5" rx="1" fill="#48CCA8"/>
<rect x="230" y="91" width="5" height="5" rx="1" fill="#48CCA8"/>
<rect x="230" y="85" width="5" height="5" rx="1" fill="#48CCA8"/>
<rect x="230" y="79" width="5" height="5" rx="1" fill="#48CCA8"/>
<rect x="236" y="79" width="5" height="5" rx="1" fill="#48CCA8"/>
<rect x="236" y="85" width="5" height="5" rx="1" fill="#48CCA8"/>
<rect x="236" y="91" width="5" height="5" rx="1" fill="#48CCA8"/>
<rect x="236" y="97" width="5" height="5" rx="1" fill="#48CCA8"/>
<rect x="242" y="97" width="5" height="5" rx="1" fill="#48CCA8"/>
<rect x="242" y="91" width="5" height="5" rx="1" fill="#48CCA8"/>
<rect x="242" y="85" width="5" height="5" rx="1" fill="#48CCA8"/>
<rect x="242" y="79" width="5" height="5" rx="1" fill="#48CCA8"/>
<rect x="248" y="85" width="5" height="5" rx="1" fill="#48CCA8"/>
<rect x="248" y="91" width="5" height="5" rx="1" fill="#48CCA8"/>
<path d="M184 57.4985C189.017 64.5652 156.496 62.462 132.5 79.4985C108.504 96.5349 102.517 120.065 97.5 112.998C92.4829 105.932 98.7474 88.1428 122.744 71.1063C146.74 54.0699 178.983 50.4317 184 57.4985Z" fill="#D9D9D9" fill-opacity="0.5"/>
<circle cx="95" cy="122.998" r="4" fill="#D9D9D9" fill-opacity="0.5"/>
<path d="M208.727 214.847C209.89 208.607 226.077 205.637 249.566 191.91C273.055 178.183 286.367 158.349 289.524 163.704C292.682 169.059 283.748 188.688 260.259 202.415C236.77 216.142 211.884 220.202 208.727 214.847Z" fill="#4C5896" fill-opacity="0.5"/>
<path d="M311.996 137.867C311.468 193.549 253.072 227.423 194.079 226.994C135.646 226.57 78.5857 193.02 78.0044 137.867C77.4172 82.1512 135.51 47.2147 194.54 46.9995C253.847 46.7832 312.527 81.8885 311.996 137.867Z" stroke="#061568" stroke-width="2"/>
<path d="M62.2749 155.655C62.2749 197.655 79.5837 229.683 96.82 254.141C102.03 261.533 107.284 268.299 112.034 274.416C115.1 278.365 117.957 282.044 120.456 285.446C123.668 289.819 126.315 293.765 128.158 297.34C130.005 300.922 131 304.05 131 306.802C131 307.113 130.802 307.537 130.089 308.034C129.391 308.521 128.368 308.949 127.161 309.283C124.739 309.952 121.887 310.156 120.157 309.881C117.215 309.414 113.235 307.815 108.476 305.157C103.736 302.509 98.2927 298.85 92.4396 294.329C80.7341 285.289 67.437 272.843 54.9116 258.26C29.8268 229.054 8 191.472 8 155.655C8 120.081 29.8879 83.0952 55.1314 54.2307C67.7355 39.8186 81.1356 27.4781 92.9719 18.4044C98.8901 13.8674 104.407 10.1549 109.23 7.4101C114.067 4.65679 118.15 2.90961 121.21 2.25305C123.098 1.84784 125.688 1.93179 127.787 2.4868C128.836 2.76416 129.688 3.14021 130.255 3.57081C130.816 3.99638 131 4.39098 131 4.74355C131 7.29749 130.013 10.2758 128.164 13.7564C126.321 17.2252 123.673 21.0999 120.459 25.4293C118.137 28.5563 115.516 31.9257 112.707 35.5363C107.785 41.8626 102.287 48.9294 96.8186 56.7296C79.5823 81.3151 62.2749 113.656 62.2749 155.655Z" fill="#3749A4" stroke="#061568" stroke-width="2"/>
<path d="M55.2749 155.655C55.2749 197.655 72.5837 229.683 89.82 254.141C95.0299 261.533 100.284 268.299 105.034 274.416C108.1 278.365 110.957 282.044 113.456 285.446C116.668 289.819 119.315 293.765 121.158 297.34C123.005 300.922 124 304.05 124 306.802C124 308.062 123.602 308.74 123.036 309.122C122.408 309.546 121.351 309.762 119.741 309.581C116.53 309.219 111.792 307.356 105.956 304.101C94.3341 297.62 78.7784 285.861 63.1966 270.732C47.6193 255.608 32.0562 237.155 20.3934 217.307C8.72609 197.452 1 176.266 1 155.655C1 135.045 8.72556 113.967 20.3919 94.2513C32.0539 74.5428 47.6162 56.2589 63.1937 41.2568C78.7749 26.2509 94.3325 14.5655 105.959 8.03406C111.795 4.75536 116.543 2.83172 119.768 2.37844C121.392 2.15021 122.457 2.32046 123.082 2.69516C123.622 3.01935 124 3.60106 124 4.74355C124 7.29749 123.013 10.2758 121.164 13.7564C119.321 17.2252 116.673 21.0999 113.459 25.4293C111.138 28.5562 108.516 31.9256 105.707 35.5362C100.785 41.8626 95.2872 48.9293 89.8186 56.7296C72.5823 81.3151 55.2749 113.656 55.2749 155.655Z" fill="#5772FF" stroke="#061568" stroke-width="2"/>
<mask id="mask2_714_2775" style="mask-type:alpha" maskUnits="userSpaceOnUse" x="0" y="1" width="125" height="310">
<path d="M55.2749 155.655C55.2749 197.655 72.5837 229.683 89.82 254.141C95.0299 261.533 100.284 268.299 105.034 274.416C108.1 278.365 110.957 282.044 113.456 285.446C116.668 289.819 119.315 293.765 121.158 297.34C123.005 300.922 124 304.05 124 306.802C124 308.062 123.602 308.74 123.036 309.122C122.408 309.546 121.351 309.762 119.741 309.581C116.53 309.219 111.792 307.356 105.956 304.101C94.3341 297.62 78.7784 285.861 63.1966 270.732C47.6193 255.608 32.0562 237.155 20.3934 217.307C8.72609 197.452 1 176.266 1 155.655C1 135.045 8.72556 113.967 20.3919 94.2513C32.0539 74.5428 47.6162 56.2589 63.1937 41.2568C78.7749 26.2509 94.3325 14.5655 105.959 8.03406C111.795 4.75536 116.543 2.83172 119.768 2.37844C121.392 2.15021 122.457 2.32046 123.082 2.69516C123.622 3.01935 124 3.60106 124 4.74355C124 7.29749 123.013 10.2758 121.164 13.7564C119.321 17.2252 116.673 21.0999 113.459 25.4293C111.138 28.5562 108.516 31.9256 105.707 35.5362C100.785 41.8626 95.2872 48.9293 89.8186 56.7296C72.5823 81.3151 55.2749 113.656 55.2749 155.655Z" fill="#D9D9D9" stroke="#061568" stroke-width="2"/>
</mask>
<g mask="url(#mask2_714_2775)">
<path d="M65.5749 162.14C65.5749 249.201 130 295.01 130 319.9C130 344.79 -7.80242 219.085 -7.80242 132.024C-7.80242 44.9635 -20.3386 158.93 49.5001 191.286C119.339 223.643 65.5749 75.0796 65.5749 162.14Z" fill="#3749A4"/>
<path d="M55.2749 155.655C55.2749 197.655 72.5837 229.683 89.82 254.141C95.0299 261.533 100.284 268.299 105.034 274.416C108.1 278.365 110.957 282.044 113.456 285.446C116.668 289.819 119.315 293.765 121.158 297.34C123.005 300.922 124 304.05 124 306.802C124 308.062 123.602 308.74 123.036 309.122C122.408 309.546 121.351 309.762 119.741 309.581C116.53 309.219 111.792 307.356 105.956 304.101C94.3341 297.62 78.7784 285.861 63.1966 270.732C47.6193 255.608 32.0562 237.155 20.3934 217.307C8.72609 197.452 1 176.266 1 155.655C1 135.045 8.72556 113.967 20.3919 94.2513C32.0539 74.5428 47.6162 56.2589 63.1937 41.2568C78.7749 26.2509 94.3325 14.5655 105.959 8.03406C111.795 4.75536 116.543 2.83172 119.768 2.37844C121.392 2.15021 122.457 2.32046 123.082 2.69516C123.622 3.01935 124 3.60106 124 4.74355C124 7.29749 123.013 10.2758 121.164 13.7564C119.321 17.2252 116.673 21.0999 113.459 25.4293C111.138 28.5562 108.516 31.9256 105.707 35.5362C100.785 41.8626 95.2872 48.9293 89.8186 56.7296C72.5823 81.3151 55.2749 113.656 55.2749 155.655Z" stroke="#061568" stroke-width="2"/>
<path fill-rule="evenodd" clip-rule="evenodd" d="M124.99 309.175C98.6369 303.359 7 225.951 7 154.534C7 94.4256 71.9131 30.9701 108.183 8.57239C74.0815 26.2879 0 94.3209 0 158.534C0 241.945 125 333.527 125 309.681C125 309.513 124.997 309.345 124.99 309.175Z" fill="#5772FF"/>
</g>
<mask id="mask3_714_2775" style="mask-type:alpha" maskUnits="userSpaceOnUse" x="0" y="1" width="125" height="310">
<path d="M55.2749 155.655C55.2749 197.655 72.5837 229.683 89.82 254.141C95.0299 261.533 100.284 268.299 105.034 274.416C108.1 278.365 110.957 282.044 113.456 285.446C116.668 289.819 119.315 293.765 121.158 297.34C123.005 300.922 124 304.05 124 306.802C124 308.062 123.602 308.74 123.036 309.122C122.408 309.546 121.351 309.762 119.741 309.581C116.53 309.219 111.792 307.356 105.956 304.101C94.3341 297.62 78.7784 285.861 63.1966 270.732C47.6193 255.608 32.0562 237.155 20.3934 217.307C8.72609 197.452 1 176.266 1 155.655C1 135.045 8.72556 113.967 20.3919 94.2513C32.0539 74.5428 47.6162 56.2589 63.1937 41.2568C78.7749 26.2509 94.3325 14.5655 105.959 8.03406C111.795 4.75536 116.543 2.83172 119.768 2.37844C121.392 2.15021 122.457 2.32046 123.082 2.69516C123.622 3.01935 124 3.60106 124 4.74355C124 7.29749 123.013 10.2758 121.164 13.7564C119.321 17.2252 116.673 21.0999 113.459 25.4293C111.138 28.5562 108.516 31.9256 105.707 35.5362C100.785 41.8626 95.2872 48.9293 89.8186 56.7296C72.5823 81.3151 55.2749 113.656 55.2749 155.655Z" fill="#D9D9D9" stroke="#061568" stroke-width="2"/>
</mask>
<g mask="url(#mask3_714_2775)">
<path d="M0.063937 158.941C1.60899 157.914 2.83848 156.831 3 155.572C11.5518 88.9248 96.8561 13.7083 124.735 3.18487C118.386 -12.7983 0 74.4805 0 155.655C0 156.749 0.0215003 157.844 0.063937 158.941Z" fill="#AEBBFF"/>
<path d="M55.2749 155.655C55.2749 197.655 72.5837 229.683 89.82 254.141C95.0299 261.533 100.284 268.299 105.034 274.416C108.1 278.365 110.957 282.044 113.456 285.446C116.668 289.819 119.315 293.765 121.158 297.34C123.005 300.922 124 304.05 124 306.802C124 308.062 123.602 308.74 123.036 309.122C122.408 309.546 121.351 309.762 119.741 309.581C116.53 309.219 111.792 307.356 105.956 304.101C94.3341 297.62 78.7784 285.861 63.1966 270.732C47.6193 255.608 32.0562 237.155 20.3934 217.307C8.72609 197.452 1 176.266 1 155.655C1 135.045 8.72556 113.967 20.3919 94.2513C32.0539 74.5428 47.6162 56.2589 63.1937 41.2568C78.7749 26.2509 94.3325 14.5655 105.959 8.03406C111.795 4.75536 116.543 2.83172 119.768 2.37844C121.392 2.15021 122.457 2.32046 123.082 2.69516C123.622 3.01935 124 3.60106 124 4.74355C124 7.29749 123.013 10.2758 121.164 13.7564C119.321 17.2252 116.673 21.0999 113.459 25.4293C111.138 28.5562 108.516 31.9256 105.707 35.5362C100.785 41.8626 95.2872 48.9293 89.8186 56.7296C72.5823 81.3151 55.2749 113.656 55.2749 155.655Z" stroke="#061568" stroke-width="2"/>
<ellipse cx="97" cy="21.517" rx="3.44901" ry="8.63333" transform="rotate(54.2123 97 21.517)" fill="#AEBBFF"/>
</g>
<path d="M327.725 155.42C327.725 197.357 310.416 229.338 293.18 253.758C287.97 261.139 282.716 267.895 277.966 274.003C274.899 277.946 272.043 281.619 269.544 285.016C266.332 289.382 263.684 293.322 261.842 296.891C259.995 300.468 259 303.591 259 306.337C259 306.647 259.197 307.07 259.911 307.567C260.609 308.052 261.631 308.48 262.839 308.814C265.26 309.482 268.113 309.686 269.843 309.411C272.785 308.944 276.766 307.348 281.525 304.694C286.265 302.05 291.708 298.396 297.561 293.883C309.266 284.856 322.564 272.429 335.089 257.868C360.174 228.707 382 191.182 382 155.42C382 119.901 360.113 82.9723 334.869 54.1515C322.265 39.7613 308.865 27.4396 297.029 18.3796C291.11 13.8496 285.593 10.1426 280.771 7.40201C275.933 4.65289 271.85 2.9083 268.791 2.25269C266.902 1.84805 264.312 1.9319 262.213 2.48611C261.164 2.76308 260.312 3.1386 259.744 3.56856C259.184 3.99359 259 4.38714 259 4.73787C259 7.2872 259.987 10.2605 261.836 13.7357C263.679 17.1992 266.327 21.0679 269.541 25.3907C271.862 28.5129 274.483 31.8772 277.292 35.4822C282.214 41.799 287.712 48.8551 293.181 56.6436C310.417 81.1918 327.725 113.485 327.725 155.42Z" fill="#3749A4" stroke="#061568" stroke-width="2"/>
<path d="M334.725 155.42C334.725 197.357 317.416 229.338 300.18 253.758C294.97 261.139 289.716 267.895 284.966 274.003C281.899 277.946 279.043 281.619 276.544 285.016C273.332 289.382 270.684 293.322 268.842 296.891C266.995 300.468 266 303.591 266 306.337C266 307.595 266.398 308.271 266.963 308.652C267.591 309.076 268.649 309.292 270.259 309.111C273.471 308.75 278.209 306.89 284.045 303.64C295.667 297.168 311.222 285.427 326.804 270.321C342.381 255.22 357.944 236.795 369.607 216.978C381.274 197.153 389 175.999 389 155.42C389 134.842 381.275 113.797 369.608 94.1112C357.947 74.4327 342.384 56.1767 326.807 41.1973C311.226 26.2142 295.668 14.5465 284.042 8.02501C278.206 4.7513 273.458 2.8305 270.232 2.37787C268.608 2.14996 267.542 2.31996 266.918 2.69423C266.378 3.01788 266 3.59816 266 4.73786C266 7.28719 266.987 10.2605 268.836 13.7357C270.679 17.1992 273.327 21.0679 276.541 25.3907C278.862 28.5129 281.483 31.8772 284.292 35.4823C289.214 41.7991 294.712 48.8552 300.181 56.6436C317.417 81.1918 334.725 113.485 334.725 155.42Z" fill="#5772FF" stroke="#061568" stroke-width="2"/>
<mask id="mask4_714_2775" style="mask-type:alpha" maskUnits="userSpaceOnUse" x="265" y="2" width="125" height="309">
<path d="M334.725 156.245C334.725 198.182 317.416 230.162 300.18 254.583C294.97 261.964 289.716 268.72 284.966 274.828C281.899 278.771 279.043 282.444 276.544 285.841C273.332 290.207 270.684 294.147 268.842 297.716C266.995 301.293 266 304.415 266 307.162C266 308.42 266.398 309.096 266.963 309.477C267.591 309.901 268.649 310.117 270.259 309.936C273.471 309.575 278.209 307.714 284.045 304.464C295.667 297.993 311.222 286.252 326.804 271.146C342.381 256.045 357.944 237.62 369.607 217.802C381.274 197.977 389 176.824 389 156.245C389 135.667 381.275 114.622 369.608 94.9358C357.947 75.2573 342.384 57.0013 326.807 42.0219C311.226 27.0389 295.668 15.3712 284.042 8.84966C278.206 5.57595 273.458 3.65515 270.232 3.20252C268.608 2.97461 267.542 3.1446 266.918 3.51887C266.378 3.84253 266 4.42281 266 5.56251C266 8.11184 266.987 11.0851 268.836 14.5604C270.679 18.0238 273.327 21.8926 276.541 26.2153C278.862 29.3375 281.483 32.7018 284.292 36.307C289.214 42.6237 294.712 49.6798 300.181 57.4682C317.417 82.0165 334.725 114.309 334.725 156.245Z" fill="#D9D9D9" stroke="#061568" stroke-width="2"/>
</mask>
<g mask="url(#mask4_714_2775)">
<path d="M347 156.55C281.011 202.839 260 300.662 260 321.18C260 341.697 457.501 232.387 451.5 156.55C445.499 80.7122 605.518 -91.6825 474 11.7698C342.482 115.222 412.989 110.26 347 156.55Z" fill="#3749A4"/>
<path fill-rule="evenodd" clip-rule="evenodd" d="M265.01 309.706C291.363 303.899 383 226.608 383 155.3C383 95.2823 318.087 31.923 281.817 9.55939C315.918 27.2477 390 95.1777 390 159.293C390 242.578 265 334.021 265 310.211C265 310.043 265.003 309.875 265.01 309.706Z" fill="#5772FF"/>
<path d="M334.725 156.245C334.725 198.182 317.416 230.162 300.18 254.583C294.97 261.964 289.716 268.72 284.966 274.827C281.899 278.771 279.043 282.444 276.544 285.841C273.332 290.207 270.684 294.147 268.842 297.716C266.995 301.293 266 304.415 266 307.162C266 308.42 266.398 309.096 266.963 309.477C267.591 309.901 268.649 310.117 270.259 309.936C273.471 309.575 278.209 307.714 284.045 304.464C295.667 297.993 311.222 286.252 326.804 271.146C342.381 256.045 357.944 237.62 369.607 217.802C381.274 197.977 389 176.824 389 156.245C389 135.667 381.275 114.622 369.608 94.9358C357.947 75.2573 342.384 57.0013 326.807 42.0219C311.226 27.0389 295.668 15.3712 284.042 8.84966C278.206 5.57595 273.458 3.65515 270.232 3.20252C268.608 2.97461 267.542 3.1446 266.918 3.51887C266.378 3.84253 266 4.42281 266 5.56251C266 8.11184 266.987 11.0851 268.836 14.5604C270.679 18.0238 273.327 21.8926 276.541 26.2153C278.862 29.3375 281.483 32.7018 284.292 36.3069C289.214 42.6237 294.712 49.6798 300.181 57.4682C317.417 82.0165 334.725 114.309 334.725 156.245Z" stroke="#061568" stroke-width="2"/>
</g>
<defs>
<radialGradient id="paint0_radial_714_2775" cx="0" cy="0" r="1" gradientUnits="userSpaceOnUse" gradientTransform="translate(194.5 135.999) rotate(90) scale(122 159.278)">
<stop stop-color="#001A4E"/>
<stop offset="1" stop-color="#395B9F" stop-opacity="0"/>
</radialGradient>
<radialGradient id="paint1_radial_714_2775" cx="0" cy="0" r="1" gradientUnits="userSpaceOnUse" gradientTransform="translate(194.5 135.999) rotate(90) scale(90 117.5)">
<stop stop-color="#5772FF"/>
<stop offset="1" stop-color="#192A4B"/>
</radialGradient>
</defs>
</svg>
