<svg width="391" height="311" viewBox="0 0 391 311" fill="none" xmlns="http://www.w3.org/2000/svg">
	<g id="robot-v2.0">
		<g id="main">
			<g id="body">
				<path id="bg" d="M357.116 138.301C356.385 221.824 275.528 272.635 193.846 271.993C112.938 271.356 33.9316 221.031 33.1267 138.301C32.3136 54.7277 112.75 2.32293 194.483 2.00004C276.601 1.67563 357.851 54.3336 357.116 138.301Z" fill="#5772FF" />
				<g id="highlight">
					<mask id="mask0_406_4005" style="mask-type:alpha" maskUnits="userSpaceOnUse" x="33" y="1" width="325" height="271">
						<path id="bg_2" d="M357.116 138.301C356.385 221.824 275.528 272.635 193.846 271.993C112.938 271.356 33.9316 221.031 33.1267 138.301C32.3136 54.7277 112.75 2.32293 194.483 2.00004C276.601 1.67563 357.851 54.3336 357.116 138.301Z" fill="#DDDDDD" />
					</mask>
					<g mask="url(#mask0_406_4005)">
						<path id="Subtract" fill-rule="evenodd" clip-rule="evenodd" d="M334.622 70.9694C291.333 22.2042 222.375 -2.39961 159.6 11.0399C93.1563 25.2647 46.5731 66.9323 34.8315 126.546C41.1281 45.5222 122.651 -0.712339 202.585 3.47232C255.357 6.23501 306.522 31.093 334.622 70.9694Z" fill="#AEBBFF" />
						<ellipse id="Ellipse 18" cx="167.115" cy="12.9467" rx="29.5" ry="5.5" transform="rotate(-8.79965 167.115 12.9467)" fill="#AEBBFF" />
					</g>
				</g>
				<g id="shadow">
					<mask id="mask1_406_4005" style="mask-type:alpha" maskUnits="userSpaceOnUse" x="33" y="1" width="325" height="271">
						<path id="bg_3" d="M357.116 138.301C356.385 221.824 275.528 272.635 193.846 271.993C112.938 271.356 33.9316 221.031 33.1267 138.301C32.3136 54.7277 112.75 2.32293 194.483 2.00004C276.601 1.67563 357.851 54.3336 357.116 138.301Z" fill="#DDDDDD" />
					</mask>
					<g mask="url(#mask1_406_4005)">
						<path id="Exclude" fill-rule="evenodd" clip-rule="evenodd" d="M187.853 233.779C269.535 234.422 338.897 183.611 339.628 100.087C339.846 75.1985 333.87 53.0605 323.216 34.2378C344.349 58.4076 357.415 89.5686 357.116 126.203C356.373 217.151 274.269 272.479 191.326 271.779C109.17 271.085 28.9441 216.287 28.1268 126.203C27.8957 100.729 34.1296 77.9144 45.0475 58.2588C41.0628 71.1192 38.982 85.1021 39.1278 100.087C39.4834 136.644 49.4228 177.874 71.1206 200.285C92.8184 222.696 142.697 233.424 187.853 233.779ZM45.0475 58.2588C63.2862 -0.604149 121.412 -35.9484 188.491 -36.2134C246.268 -36.4416 297.925 -10.4416 323.216 34.2378C291.606 -1.91449 241.948 -22.4249 191.974 -22.2132C132.212 -21.9601 73.1323 7.69808 45.0475 58.2588Z" fill="#3749A4" />
						<path id="Ellipse 27" d="M71.3955 152.378C71.3955 235.789 140.121 279.678 140.121 303.525C140.121 327.371 15.1206 235.789 15.1206 152.378C15.1206 68.967 140.121 -20.8895 140.121 1.46674C140.121 23.823 71.3955 68.967 71.3955 152.378Z" fill="#3749A4" />
						<path id="Ellipse 28" d="M317.846 152.378C317.846 235.789 249.121 279.678 249.121 303.525C249.121 327.371 374.121 235.789 374.121 152.378C374.121 68.967 249.121 -20.8895 249.121 1.46674C249.121 23.823 317.846 68.967 317.846 152.378Z" fill="#3749A4" />
					</g>
				</g>
				<path id="stroke" d="M357.116 138.301C356.385 221.824 275.528 272.635 193.846 271.993C112.938 271.356 33.9316 221.031 33.1267 138.301C32.3136 54.7277 112.75 2.32293 194.483 2.00004C276.601 1.67563 357.851 54.3336 357.116 138.301Z" stroke="black" stroke-width="2" />
			</g>
			<g id="screen">
				<g id="bg_4">
					<path d="M312.117 136.867C311.587 192.549 252.941 226.423 193.696 225.995C135.013 225.57 77.7088 192.02 77.125 136.867C76.5353 81.1513 134.877 46.2148 194.158 45.9995C253.719 45.7833 312.65 80.8885 312.117 136.867Z" fill="url(#paint0_radial_406_4005)" />
					<path d="M312.117 136.867C311.587 192.549 252.941 226.423 193.696 225.995C135.013 225.57 77.7088 192.02 77.125 136.867C76.5353 81.1513 134.877 46.2148 194.158 45.9995C253.719 45.7833 312.65 80.8885 312.117 136.867Z" fill="url(#paint1_radial_406_4005)" />
				</g>
				<g id="inter-face">
					<g id="mouth">
						<rect id="pixel" x="174.121" y="156.998" width="5" height="5" rx="1" fill="#48CCA8" />
						<rect id="pixel_2" x="168.121" y="157" width="5" height="5" rx="1" fill="#48CCA8" />
						<rect id="pixel_3" x="168.121" y="151" width="5" height="5" rx="1" fill="#48CCA8" />
						<rect id="pixel_4" x="180.121" y="156.998" width="5" height="5" rx="1" fill="#48CCA8" />
						<rect id="pixel_5" x="186.121" y="156.998" width="5" height="5" rx="1" fill="#48CCA8" />
						<rect id="pixel_6" x="192.121" y="156.998" width="5" height="5" rx="1" fill="#48CCA8" />
						<rect id="pixel_7" x="198.121" y="156.998" width="5" height="5" rx="1" fill="#48CCA8" />
						<rect id="pixel_8" x="204.121" y="156.998" width="5" height="5" rx="1" fill="#48CCA8" />
						<rect id="pixel_9" x="210.121" y="156.998" width="5" height="5" rx="1" fill="#48CCA8" />
						<rect id="pixel_10" x="216.121" y="156.998" width="5" height="5" rx="1" fill="#48CCA8" />
						<rect id="pixel_11" x="216.121" y="151" width="5" height="5" rx="1" fill="#48CCA8" />
						<rect id="pixel_12" x="210.121" y="162.999" width="5" height="5" rx="1" fill="#48CCA8" />
						<rect id="pixel_13" x="204.121" y="162.999" width="5" height="5" rx="1" fill="#48CCA8" />
						<rect id="pixel_14" x="198.121" y="162.999" width="5" height="5" rx="1" fill="#48CCA8" />
						<rect id="pixel_15" x="192.121" y="162.999" width="5" height="5" rx="1" fill="#48CCA8" />
						<rect id="pixel_16" x="186.121" y="162.999" width="5" height="5" rx="1" fill="#48CCA8" />
						<rect id="pixel_17" x="180.121" y="162.998" width="5" height="5" rx="1" fill="#48CCA8" />
						<rect id="pixel_18" x="180.121" y="169" width="5" height="5" rx="1" fill="#48CCA8" />
						<rect id="pixel_19" x="174.121" y="163" width="5" height="5" rx="1" fill="#48CCA8" />
						<rect id="pixel_20" x="186.121" y="169" width="5" height="5" rx="1" fill="#48CCA8" />
						<rect id="pixel_21" x="192.121" y="169" width="5" height="5" rx="1" fill="#48CCA8" />
						<rect id="pixel_22" x="198.121" y="169" width="5" height="5" rx="1" fill="#48CCA8" />
						<rect id="pixel_23" x="204.121" y="169" width="5" height="5" rx="1" fill="#48CCA8" />
					</g>
					<g id="pixel-eye1">
						<rect id="pixel_24" x="139.121" y="107" width="5" height="5" rx="1" fill="#48CCA8" />
						<rect id="pixel_25" x="139.121" y="113" width="5" height="5" rx="1" fill="#48CCA8" />
						<rect id="pixel_26" x="145.121" y="107" width="5" height="5" rx="1" fill="#48CCA8" />
						<rect id="pixel_27" x="145.121" y="101" width="5" height="5" rx="1" fill="#48CCA8" />
						<rect id="pixel_28" x="151.121" y="101" width="5" height="5" rx="1" fill="#48CCA8" />
						<rect id="pixel_29" x="151.121" y="107" width="5" height="5" rx="1" fill="#48CCA8" />
						<rect id="pixel_30" x="157.121" y="107" width="5" height="5" rx="1" fill="#48CCA8" />
						<rect id="pixel_31" x="157.121" y="101" width="5" height="5" rx="1" fill="#48CCA8" />
						<rect id="pixel_32" x="163.121" y="107" width="5" height="5" rx="1" fill="#48CCA8" />
						<rect id="pixel_33" x="163.121" y="113" width="5" height="5" rx="1" fill="#48CCA8" />
					</g>
					<g id="pixel-eye2">
						<rect id="pixel_34" x="221.121" y="107" width="5" height="5" rx="1" fill="#48CCA8" />
						<rect id="pixel_35" x="221.121" y="113" width="5" height="5" rx="1" fill="#48CCA8" />
						<rect id="pixel_36" x="227.121" y="107" width="5" height="5" rx="1" fill="#48CCA8" />
						<rect id="pixel_37" x="227.121" y="101" width="5" height="5" rx="1" fill="#48CCA8" />
						<rect id="pixel_38" x="233.121" y="101" width="5" height="5" rx="1" fill="#48CCA8" />
						<rect id="pixel_39" x="233.121" y="107" width="5" height="5" rx="1" fill="#48CCA8" />
						<rect id="pixel_40" x="239.121" y="107" width="5" height="5" rx="1" fill="#48CCA8" />
						<rect id="pixel_41" x="239.121" y="101" width="5" height="5" rx="1" fill="#48CCA8" />
						<rect id="pixel_42" x="245.121" y="107" width="5" height="5" rx="1" fill="#48CCA8" />
						<rect id="pixel_43" x="245.121" y="113" width="5" height="5" rx="1" fill="#48CCA8" />
					</g>
				</g>
				<g id="highlight_2">
					<path id="Ellipse 22" d="M184.121 57.4985C189.138 64.5652 156.617 62.462 132.621 79.4985C108.624 96.5349 102.638 120.065 97.6205 112.998C92.6034 105.932 98.8679 88.1428 122.864 71.1063C146.86 54.0699 179.103 50.4317 184.121 57.4985Z" fill="#D9D9D9" fill-opacity="0.5" />
					<circle id="Ellipse 23" cx="95.1206" cy="122.998" r="4" fill="#D9D9D9" fill-opacity="0.5" />
				</g>
				<g id="shadow_2">
					<path id="Ellipse 21" d="M208.847 214.847C210.011 208.607 226.197 205.637 249.687 191.91C273.176 178.183 286.487 158.349 289.645 163.704C292.803 169.059 283.868 188.688 260.379 202.415C236.89 216.142 212.005 220.202 208.847 214.847Z" fill="#4C5896" fill-opacity="0.5" />
				</g>
				<path id="stroke_2" d="M312.117 137.867C311.589 193.549 253.193 227.423 194.2 226.994C135.767 226.57 78.7063 193.02 78.125 137.867C77.5378 82.1512 135.631 47.2147 194.66 46.9995C253.968 46.7832 312.648 81.8885 312.117 137.867Z" stroke="black" stroke-width="2" />
			</g>
		</g>
		<g id="shield">
			<path id="Ellipse 26" d="M62.3955 155.655C62.3955 197.655 79.7043 229.683 96.9407 254.141C102.151 261.533 107.404 268.299 112.154 274.416C115.221 278.365 118.077 282.044 120.576 285.446C123.789 289.819 126.436 293.765 128.279 297.34C130.126 300.922 131.121 304.05 131.121 306.802C131.121 307.113 130.923 307.537 130.209 308.034C129.512 308.521 128.489 308.949 127.282 309.283C124.86 309.952 122.007 310.156 120.278 309.881C117.336 309.414 113.355 307.815 108.597 305.157C103.857 302.509 98.4133 298.85 92.5602 294.329C80.8547 285.289 67.5576 272.843 55.0322 258.26C29.9474 229.054 8.12061 191.472 8.12061 155.655C8.12061 120.081 30.0085 83.0952 55.252 54.2307C67.8561 39.8186 81.2562 27.4781 93.0925 18.4044C99.0107 13.8674 104.528 10.1549 109.35 7.4101C114.188 4.65679 118.271 2.90961 121.33 2.25305C123.219 1.84784 125.809 1.93179 127.908 2.4868C128.956 2.76416 129.808 3.14021 130.376 3.57081C130.936 3.99638 131.121 4.39098 131.121 4.74355C131.121 7.29749 130.134 10.2758 128.284 13.7564C126.441 17.2252 123.793 21.0999 120.579 25.4293C118.258 28.5563 115.637 31.9257 112.828 35.5363C107.906 41.8626 102.408 48.9294 96.9392 56.7296C79.7029 81.3151 62.3955 113.656 62.3955 155.655Z" fill="#3749A4" stroke="black" stroke-width="2" />
			<path id="Ellipse 24" d="M55.3955 155.655C55.3955 197.655 72.7043 229.683 89.9407 254.141C95.1505 261.533 100.404 268.299 105.154 274.416C108.221 278.365 111.077 282.044 113.576 285.446C116.789 289.819 119.436 293.765 121.279 297.34C123.126 300.922 124.121 304.05 124.121 306.801C124.121 308.062 123.722 308.74 123.157 309.122C122.529 309.546 121.472 309.762 119.861 309.581C116.651 309.219 111.913 307.356 106.076 304.101C94.4547 297.62 78.899 285.861 63.3172 270.732C47.7399 255.608 32.1768 237.155 20.514 217.307C8.84669 197.452 1.12061 176.266 1.12061 155.655C1.12061 135.045 8.84616 113.967 20.5125 94.2513C32.1745 74.5428 47.7368 56.2589 63.3143 41.2567C78.8956 26.2509 94.4531 14.5655 106.079 8.03404C111.915 4.75534 116.663 2.83171 119.889 2.37843C121.513 2.1502 122.578 2.32045 123.202 2.69515C123.742 3.01933 124.121 3.60104 124.121 4.74354C124.121 7.29747 123.134 10.2758 121.284 13.7563C119.441 17.2252 116.793 21.0999 113.579 25.4293C111.258 28.5562 108.637 31.9256 105.828 35.5362C100.906 41.8626 95.4078 48.9293 89.9392 56.7296C72.7029 81.3151 55.3955 113.656 55.3955 155.655Z" fill="#5772FF" stroke="black" stroke-width="2" />
			<g id="shadow_3">
				<mask id="mask2_406_4005" style="mask-type:alpha" maskUnits="userSpaceOnUse" x="0" y="1" width="126" height="310">
					<path id="bg_5" d="M55.3955 155.655C55.3955 197.655 72.7043 229.683 89.9407 254.141C95.1505 261.533 100.404 268.299 105.154 274.416C108.221 278.365 111.077 282.044 113.576 285.446C116.789 289.819 119.436 293.765 121.279 297.34C123.126 300.922 124.121 304.05 124.121 306.801C124.121 308.062 123.722 308.74 123.157 309.122C122.529 309.546 121.472 309.762 119.861 309.581C116.651 309.219 111.913 307.356 106.076 304.101C94.4547 297.62 78.899 285.861 63.3172 270.732C47.7399 255.608 32.1768 237.155 20.514 217.307C8.84669 197.452 1.12061 176.266 1.12061 155.655C1.12061 135.045 8.84616 113.967 20.5125 94.2513C32.1745 74.5428 47.7368 56.2589 63.3143 41.2567C78.8956 26.2509 94.4531 14.5655 106.079 8.03404C111.915 4.75534 116.663 2.83171 119.889 2.37843C121.513 2.1502 122.578 2.32045 123.202 2.69515C123.742 3.01933 124.121 3.60104 124.121 4.74354C124.121 7.29747 123.134 10.2758 121.284 13.7563C119.441 17.2252 116.793 21.0999 113.579 25.4293C111.258 28.5562 108.637 31.9256 105.828 35.5362C100.906 41.8626 95.4078 48.9293 89.9392 56.7296C72.7029 81.3151 55.3955 113.656 55.3955 155.655Z" fill="#D9D9D9" stroke="black" stroke-width="2" />
				</mask>
				<g mask="url(#mask2_406_4005)">
					<path id="shw" d="M65.6954 162.14C65.6954 249.201 130.121 295.01 130.121 319.9C130.121 344.79 -7.68194 219.085 -7.68194 132.024C-7.68194 44.9635 -20.2181 158.93 49.6206 191.286C119.459 223.643 65.6954 75.0796 65.6954 162.14Z" fill="#3749A4" />
					<path id="stroke_3" d="M55.3955 155.655C55.3955 197.655 72.7043 229.683 89.9407 254.141C95.1505 261.533 100.404 268.299 105.154 274.416C108.221 278.365 111.077 282.044 113.576 285.446C116.789 289.819 119.436 293.765 121.279 297.34C123.126 300.922 124.121 304.05 124.121 306.801C124.121 308.062 123.722 308.74 123.157 309.122C122.529 309.546 121.472 309.762 119.861 309.581C116.651 309.219 111.913 307.356 106.076 304.101C94.4547 297.62 78.899 285.861 63.3172 270.732C47.7399 255.608 32.1768 237.155 20.514 217.307C8.84669 197.452 1.12061 176.266 1.12061 155.655C1.12061 135.045 8.84616 113.967 20.5125 94.2513C32.1745 74.5428 47.7368 56.2589 63.3143 41.2567C78.8956 26.2509 94.4531 14.5655 106.079 8.03404C111.915 4.75534 116.663 2.83171 119.889 2.37843C121.513 2.1502 122.578 2.32045 123.202 2.69515C123.742 3.01933 124.121 3.60104 124.121 4.74354C124.121 7.29747 123.134 10.2758 121.284 13.7563C119.441 17.2252 116.793 21.0999 113.579 25.4293C111.258 28.5562 108.637 31.9256 105.828 35.5362C100.906 41.8626 95.4078 48.9293 89.9392 56.7296C72.7029 81.3151 55.3955 113.656 55.3955 155.655Z" stroke="black" stroke-width="2" />
					<path id="Subtract_2" fill-rule="evenodd" clip-rule="evenodd" d="M125.11 309.175C98.7575 303.359 7.12061 225.951 7.12061 154.534C7.12061 94.4258 72.0337 30.9703 108.303 8.57253C74.2021 26.288 0.120605 94.321 0.120605 158.534C0.120605 241.945 125.121 333.527 125.121 309.681C125.121 309.513 125.117 309.345 125.11 309.175Z" fill="#5772FF" />
				</g>
			</g>
			<g id="highlight_3">
				<mask id="mask3_406_4005" style="mask-type:alpha" maskUnits="userSpaceOnUse" x="0" y="1" width="126" height="310">
					<path id="bg_6" d="M55.3955 155.655C55.3955 197.655 72.7043 229.683 89.9407 254.141C95.1505 261.533 100.404 268.299 105.154 274.416C108.221 278.365 111.077 282.044 113.576 285.446C116.789 289.819 119.436 293.765 121.279 297.34C123.126 300.922 124.121 304.05 124.121 306.801C124.121 308.062 123.722 308.74 123.157 309.122C122.529 309.546 121.472 309.762 119.861 309.581C116.651 309.219 111.913 307.356 106.076 304.101C94.4547 297.62 78.899 285.861 63.3172 270.732C47.7399 255.608 32.1768 237.155 20.514 217.307C8.84669 197.452 1.12061 176.266 1.12061 155.655C1.12061 135.045 8.84616 113.967 20.5125 94.2513C32.1745 74.5428 47.7368 56.2589 63.3143 41.2567C78.8956 26.2509 94.4531 14.5655 106.079 8.03404C111.915 4.75534 116.663 2.83171 119.889 2.37843C121.513 2.1502 122.578 2.32045 123.202 2.69515C123.742 3.01933 124.121 3.60104 124.121 4.74354C124.121 7.29747 123.134 10.2758 121.284 13.7563C119.441 17.2252 116.793 21.0999 113.579 25.4293C111.258 28.5562 108.637 31.9256 105.828 35.5362C100.906 41.8626 95.4078 48.9293 89.9392 56.7296C72.7029 81.3151 55.3955 113.656 55.3955 155.655Z" fill="#D9D9D9" stroke="black" stroke-width="2" />
				</mask>
				<g mask="url(#mask3_406_4005)">
					<path id="hl" d="M0.184542 158.941C1.72959 157.914 2.95908 156.831 3.12061 155.572C11.6724 88.9247 96.9767 13.7083 124.856 3.18485C118.507 -12.7983 0.120605 74.4805 0.120605 155.655C0.120605 156.749 0.142106 157.844 0.184542 158.941Z" fill="#AEBBFF" />
					<path id="stroke_4" d="M55.3955 155.655C55.3955 197.655 72.7043 229.683 89.9407 254.141C95.1505 261.533 100.404 268.299 105.154 274.416C108.221 278.365 111.077 282.044 113.576 285.446C116.789 289.819 119.436 293.765 121.279 297.34C123.126 300.922 124.121 304.05 124.121 306.801C124.121 308.062 123.722 308.74 123.157 309.122C122.529 309.546 121.472 309.762 119.861 309.581C116.651 309.219 111.913 307.356 106.076 304.101C94.4547 297.62 78.899 285.861 63.3172 270.732C47.7399 255.608 32.1768 237.155 20.514 217.307C8.84669 197.452 1.12061 176.266 1.12061 155.655C1.12061 135.045 8.84616 113.967 20.5125 94.2513C32.1745 74.5428 47.7368 56.2589 63.3143 41.2567C78.8956 26.2509 94.4531 14.5655 106.079 8.03404C111.915 4.75534 116.663 2.83171 119.889 2.37843C121.513 2.1502 122.578 2.32045 123.202 2.69515C123.742 3.01933 124.121 3.60104 124.121 4.74354C124.121 7.29747 123.134 10.2758 121.284 13.7563C119.441 17.2252 116.793 21.0999 113.579 25.4293C111.258 28.5562 108.637 31.9256 105.828 35.5362C100.906 41.8626 95.4078 48.9293 89.9392 56.7296C72.7029 81.3151 55.3955 113.656 55.3955 155.655Z" stroke="black" stroke-width="2" />
					<ellipse id="Ellipse 29" cx="97.1206" cy="21.5169" rx="3.44901" ry="8.63333" transform="rotate(54.2123 97.1206 21.5169)" fill="#AEBBFF" />
				</g>
			</g>
		</g>
		<g id="shield_2">
			<path id="Ellipse 26_2" d="M327.846 155.42C327.846 197.357 310.536 229.338 293.3 253.758C288.09 261.139 282.836 267.895 278.087 274.003C275.02 277.946 272.163 281.619 269.664 285.016C266.452 289.382 263.805 293.322 261.962 296.891C260.115 300.468 259.121 303.591 259.121 306.337C259.121 306.647 259.317 307.07 260.031 307.567C260.729 308.052 261.752 308.48 262.959 308.814C265.381 309.482 268.234 309.686 269.964 309.411C272.906 308.944 276.887 307.348 281.645 304.694C286.385 302.05 291.829 298.396 297.682 293.883C309.387 284.856 322.684 272.429 335.209 257.868C360.294 228.707 382.121 191.182 382.121 155.42C382.121 119.901 360.233 82.9723 334.99 54.1515C322.386 39.7613 308.986 27.4396 297.149 18.3796C291.231 13.8496 285.714 10.1426 280.891 7.40201C276.054 4.65289 271.971 2.9083 268.911 2.25269C267.022 1.84805 264.432 1.9319 262.333 2.48611C261.284 2.76308 260.432 3.1386 259.865 3.56856C259.304 3.99359 259.121 4.38714 259.121 4.73787C259.121 7.2872 260.107 10.2605 261.956 13.7357C263.799 17.1992 266.448 21.0679 269.661 25.3907C271.983 28.5129 274.604 31.8772 277.413 35.4822C282.335 41.799 287.833 48.8551 293.302 56.6436C310.538 81.1918 327.846 113.485 327.846 155.42Z" fill="#3749A4" stroke="black" stroke-width="2" />
			<path id="Ellipse 24_2" d="M334.846 155.42C334.846 197.357 317.536 229.338 300.3 253.758C295.09 261.14 289.836 267.895 285.086 274.003C282.02 277.946 279.163 281.619 276.664 285.016C273.452 289.382 270.805 293.322 268.962 296.891C267.115 300.468 266.121 303.591 266.121 306.337C266.121 307.595 266.519 308.271 267.084 308.652C267.712 309.076 268.769 309.292 270.38 309.111C273.591 308.75 278.329 306.89 284.165 303.64C295.787 297.168 311.343 285.427 326.925 270.321C342.502 255.22 358.065 236.795 369.728 216.978C381.395 197.153 389.121 175.999 389.121 155.42C389.121 134.842 381.395 113.797 369.729 94.1112C358.067 74.4327 342.505 56.1767 326.927 41.1973C311.346 26.2142 295.789 14.5466 284.163 8.02503C278.327 4.75132 273.578 2.83051 270.353 2.37789C268.729 2.14998 267.663 2.31997 267.039 2.69424C266.499 3.0179 266.121 3.59818 266.121 4.73788C266.121 7.28721 267.107 10.2605 268.956 13.7357C270.799 17.1992 273.448 21.0679 276.661 25.3907C278.983 28.5129 281.604 31.8772 284.413 35.4823C289.335 41.7991 294.833 48.8552 300.302 56.6436C317.538 81.1918 334.846 113.485 334.846 155.42Z" fill="#5772FF" stroke="black" stroke-width="2" />
			<g id="shadow_4">
				<mask id="mask4_406_4005" style="mask-type:alpha" maskUnits="userSpaceOnUse" x="265" y="2" width="126" height="309">
					<path id="bg_7" d="M334.846 156.245C334.846 198.182 317.536 230.162 300.3 254.583C295.09 261.964 289.836 268.72 285.086 274.828C282.02 278.771 279.163 282.444 276.664 285.841C273.452 290.207 270.805 294.147 268.962 297.716C267.115 301.293 266.121 304.415 266.121 307.162C266.121 308.42 266.519 309.096 267.084 309.477C267.712 309.901 268.769 310.117 270.38 309.936C273.591 309.575 278.329 307.714 284.165 304.464C295.787 297.993 311.343 286.252 326.925 271.146C342.502 256.045 358.065 237.62 369.728 217.802C381.395 197.977 389.121 176.824 389.121 156.245C389.121 135.667 381.395 114.622 369.729 94.9358C358.067 75.2573 342.505 57.0013 326.927 42.0219C311.346 27.0388 295.789 15.3712 284.163 8.84963C278.327 5.57592 273.578 3.65511 270.353 3.20249C268.729 2.97458 267.663 3.14457 267.039 3.51884C266.499 3.8425 266.121 4.42278 266.121 5.56248C266.121 8.11181 267.107 11.0851 268.956 14.5603C270.799 18.0238 273.448 21.8925 276.661 26.2153C278.983 29.3375 281.604 32.7018 284.413 36.3069C289.335 42.6237 294.833 49.6798 300.302 57.4682C317.538 82.0164 334.846 114.309 334.846 156.245Z" fill="#D9D9D9" stroke="black" stroke-width="2" />
				</mask>
				<g mask="url(#mask4_406_4005)">
					<path id="Ellipse 28_2" d="M347.121 156.55C281.131 202.839 260.121 300.662 260.121 321.18C260.121 341.697 457.622 232.387 451.621 156.55C445.62 80.7122 605.639 -91.6825 474.121 11.7698C342.603 115.222 413.11 110.26 347.121 156.55Z" fill="#3749A4" />
					<path id="Subtract_3" fill-rule="evenodd" clip-rule="evenodd" d="M265.131 309.706C291.484 303.899 383.121 226.608 383.121 155.299C383.121 95.2823 318.207 31.9229 281.937 9.55931C316.039 27.2477 390.121 95.1776 390.121 159.293C390.121 242.578 265.121 334.021 265.121 310.211C265.121 310.043 265.124 309.875 265.131 309.706Z" fill="#5772FF" />
					<path id="stroke_5" d="M334.846 156.245C334.846 198.182 317.536 230.162 300.3 254.583C295.09 261.964 289.836 268.72 285.087 274.827C282.02 278.771 279.163 282.444 276.664 285.841C273.452 290.207 270.805 294.147 268.962 297.716C267.115 301.293 266.121 304.415 266.121 307.162C266.121 308.42 266.519 309.096 267.084 309.477C267.712 309.901 268.769 310.117 270.38 309.936C273.591 309.575 278.329 307.714 284.165 304.464C295.787 297.993 311.343 286.252 326.925 271.146C342.502 256.045 358.065 237.62 369.728 217.802C381.395 197.977 389.121 176.824 389.121 156.245C389.121 135.667 381.395 114.622 369.729 94.9358C358.067 75.2573 342.505 57.0013 326.927 42.0219C311.346 27.0388 295.789 15.3712 284.163 8.84963C278.327 5.57592 273.578 3.65511 270.353 3.20249C268.729 2.97458 267.663 3.14457 267.039 3.51884C266.499 3.8425 266.121 4.42278 266.121 5.56248C266.121 8.11181 267.107 11.0851 268.956 14.5603C270.799 18.0238 273.448 21.8925 276.661 26.2153C278.983 29.3375 281.604 32.7018 284.413 36.3069C289.335 42.6236 294.833 49.6797 300.302 57.4682C317.538 82.0164 334.846 114.309 334.846 156.245Z" stroke="black" stroke-width="2" />
				</g>
			</g>
		</g>
	</g>
	<defs>
		<radialGradient id="paint0_radial_406_4005" cx="0" cy="0" r="1" gradientUnits="userSpaceOnUse" gradientTransform="translate(194.621 135.999) rotate(90) scale(122 159.278)">
			<stop stop-color="#001A4E" />
			<stop offset="1" stop-color="#395B9F" stop-opacity="0" />
		</radialGradient>
		<radialGradient id="paint1_radial_406_4005" cx="0" cy="0" r="1" gradientUnits="userSpaceOnUse" gradientTransform="translate(194.621 135.999) rotate(90) scale(90 117.5)">
			<stop stop-color="#5772FF" />
			<stop offset="1" stop-color="#192A4B" />
		</radialGradient>
	</defs>
</svg>
